<?xml version="1.0" encoding="UTF-8" standalone="no" ?>
<!DOCTYPE svg PUBLIC "-//W3C//DTD SVG 1.1//EN" "http://www.w3.org/Graphics/SVG/1.1/DTD/svg11.dtd">
<svg xmlns="http://www.w3.org/2000/svg" xmlns:xlink="http://www.w3.org/1999/xlink" version="1.1" width="500" height="500" viewBox="135 135 230 230" xml:space="preserve">
<g transform="matrix(3.0975 0 0 3.0975 250 250)" id="JzdWc4Y-WTf_Oer-2RzH1"  >
<path style="stroke: rgb(255,255,255); stroke-width: 4; stroke-dasharray: none; stroke-linecap: butt; stroke-dashoffset: 0; stroke-linejoin: miter; stroke-miterlimit: 4; fill: rgb(0,0,0); fill-rule: nonzero; opacity: 1;"  transform=" translate(0, 0)" d="M 0 -34.15301 C 18.85246 -34.15301 34.15301 -18.85246 34.15301 0 C 34.15301 18.85246 18.85246 34.15301 0 34.15301 C -18.85246 34.15301 -34.15301 18.85246 -34.15301 0 C -34.15301 -18.85246 -18.85246 -34.15301 0 -34.15301 z" stroke-linecap="round" />
</g>
<g transform="matrix(0.5877371228 0 0 0.5877371228 250 250)" id="rdAj5CvzRQgxnkUObX2Xh"  >
<path style="stroke:white;stroke-width: 4; stroke-dasharray: none; stroke-linecap: butt; stroke-dashoffset: 0; stroke-linejoin: miter; stroke-miterlimit: 4; stroke: white;fill-rule: evenodd; opacity: 1;filter: url(#SVGID_0);"  transform=" translate(-131.1158854461, -128.859)" d="M 153.338 4.24 C 151.529 4.24 149.849 4.628 148.298 5.1450000000000005 C 151.594 7.3420000000000005 153.403 10.25 154.308 13.545000000000002 C 154.373 13.998000000000001 154.50199999999998 14.321000000000002 154.566 14.773000000000001 C 154.631 15.161000000000001 154.696 15.548000000000002 154.696 15.936000000000002 C 154.954 21.623 153.209 22.333000000000002 151.981 25.694000000000003 C 150.107 30.024 150.624 34.676 152.886 38.42400000000001 C 153.07999999999998 38.876000000000005 153.338 39.39300000000001 153.662 39.845000000000006 C 151.20600000000002 23.497000000000007 164.841 21.041000000000007 167.36100000000002 15.936000000000007 C 167.555 11.477000000000007 163.871 8.505000000000006 160.96400000000003 6.4370000000000065 C 158.18400000000003 4.757000000000007 155.66400000000002 4.240000000000006 153.33800000000002 4.240000000000006 z M 173.888 7.923 C 173.62800000000001 9.41 173.823 9.022 173.758 9.797 C 173.69400000000002 10.314 173.69400000000002 10.96 173.62900000000002 11.477 C 173.50000000000003 11.994 173.371 12.511000000000001 173.17700000000002 13.028 C 173.04700000000003 13.545 172.854 14.062000000000001 172.66000000000003 14.579 C 172.40100000000004 15.096 172.20800000000003 15.549000000000001 171.95000000000002 16.065 C 171.75500000000002 16.324 171.626 16.582 171.43200000000002 16.841 L 171.044 17.422 C 170.721 17.875 170.39800000000002 18.327 170.07500000000002 18.715 C 169.687 19.103 169.365 19.555 168.912 19.878 L 168.912 19.943 C 168.524 20.266000000000002 168.137 20.653000000000002 167.684 20.977 C 166.327 22.01 164.776 22.786 163.35399999999998 23.755 C 162.902 24.078 162.45 24.337 162.06199999999998 24.724999999999998 C 161.60999999999999 25.048 161.22199999999998 25.371 160.83499999999998 25.758 C 160.38199999999998 26.146 160.05899999999997 26.534 159.671 26.986 C 159.34799999999998 27.374000000000002 158.96099999999998 27.826 158.702 28.279 C 158.379 28.731 158.056 29.183 157.797 29.636 C 157.539 30.153 157.345 30.605 157.087 31.122 C 156.893 31.639 156.69899999999998 32.092 156.57 32.608 C 156.39744604069742 33.14039075347503 156.24632447617654 33.679491080772436 156.117 34.224000000000004 C 156.053 34.482 156.053 34.805 155.988 35.064 C 155.923 35.322 155.923 35.581 155.859 35.839 C 155.859 36.356 155.794 36.937999999999995 155.794 37.455 C 155.794 37.842 155.794 38.23 155.859 38.617999999999995 C 155.859 39.135 155.924 39.651999999999994 156.053 40.233 C 156.118 40.75 156.24699999999999 41.266999999999996 156.376 41.784 C 156.57 42.301 156.699 42.818 156.893 43.333999999999996 C 157.023 43.657999999999994 157.216 43.980999999999995 157.345 44.239999999999995 L 142.483 38.48799999999999 C 139.963 37.77799999999999 137.507 37.13099999999999 134.987 36.54999999999999 L 130.916 35.57999999999999 C 127.02723037408703 34.80467691501545 123.10241267644338 34.22262912039889 119.15600000000002 33.83599999999998 C 119.026 33.83599999999999 118.961 33.770999999999994 118.832 33.770999999999994 C 114.955 33.382999999999996 111.142 33.18999999999999 107.26499999999999 33.18999999999999 C 104.42199999999998 33.18999999999999 101.57899999999998 33.31899999999999 98.79999999999998 33.51299999999999 C 94.85799999999998 33.770999999999994 90.91599999999998 34.28799999999999 86.97499999999998 34.93399999999999 C 86.00499999999998 35.06399999999999 85.03499999999998 35.25699999999999 84.06699999999998 35.45099999999999 C 82.06299999999997 35.83899999999999 80.12499999999997 36.291 78.25099999999998 36.74399999999999 L 75.34299999999998 37.51899999999999 C 74.37299999999998 37.90699999999999 73.46899999999998 38.358999999999995 72.56399999999998 38.74699999999999 L 70.43199999999997 39.71699999999999 C 70.30199999999998 39.78099999999999 70.17299999999997 39.78099999999999 70.10899999999998 39.84499999999999 C 69.46299999999998 40.16799999999999 68.88099999999999 40.42699999999999 68.29899999999998 40.74999999999999 C 68.10599999999998 40.81499999999999 67.97599999999998 40.879999999999995 67.84699999999998 40.943999999999996 C 67.13699999999999 41.266999999999996 66.42599999999997 41.653999999999996 65.84399999999998 41.977999999999994 C 65.39199999999998 42.172 64.93899999999998 42.42999999999999 64.55199999999998 42.623999999999995 C 64.35799999999998 42.754 64.09899999999998 42.882999999999996 63.96999999999998 42.946999999999996 C 63.38799999999998 43.269999999999996 62.80699999999998 43.592999999999996 62.28999999999998 43.916999999999994 C 61.70799999999998 44.239 61.19099999999998 44.562999999999995 60.738999999999976 44.885999999999996 C 60.28699999999997 45.208999999999996 59.833999999999975 45.467 59.446999999999974 45.79 C 59.38199999999998 45.855 59.31699999999997 45.855 59.25299999999997 45.92 C 58.864999999999974 46.178000000000004 58.41299999999997 46.501000000000005 58.02499999999997 46.824000000000005 L 57.89499999999997 46.95400000000001 L 56.926999999999964 47.729000000000006 C 56.79699999999996 47.793000000000006 56.666999999999966 47.92300000000001 56.538999999999966 47.98700000000001 C 56.215999999999966 48.24600000000001 55.892999999999965 48.56900000000001 55.56899999999997 48.82700000000001 C 55.50499999999997 48.957000000000015 55.37599999999997 49.021000000000015 55.310999999999964 49.08600000000001 C 54.922999999999966 49.47400000000001 54.535999999999966 49.796000000000014 54.14799999999997 50.18400000000001 C 54.08299999999997 50.18400000000001 54.08299999999997 50.24900000000001 54.017999999999965 50.314000000000014 C 53.630999999999965 50.637000000000015 53.24299999999997 51.024000000000015 52.85499999999997 51.41200000000001 C 52.79099999999997 51.47700000000001 52.79099999999997 51.542000000000016 52.72599999999997 51.542000000000016 C 52.3870826279039 51.87104860641243 52.063729826649265 52.21575804263125 51.75699999999997 52.57500000000002 C 51.62699999999997 52.70500000000002 51.43399999999997 52.83400000000002 51.30499999999997 52.963000000000015 C 50.98199999999997 53.35100000000001 50.59399999999997 53.738000000000014 50.205999999999975 54.12600000000001 C 50.14099999999998 54.256000000000014 50.01199999999997 54.320000000000014 49.94799999999997 54.44900000000001 C 49.43099999999997 54.966000000000015 48.97799999999997 55.48300000000001 48.46099999999997 56.000000000000014 L 48.26799999999997 56.19400000000002 C 47.23399999999997 57.292000000000016 46.13499999999997 58.39100000000002 44.97199999999997 59.360000000000014 C 43.82627747095006 60.38238013055204 42.617572416181375 61.33190996495585 41.35299999999997 62.20300000000002 C 40.09985353322367 63.08194799011381 38.80609311516003 63.90151868569398 37.47599999999997 64.65900000000002 C 36.15714623298104 65.38255397969016 34.79791880702837 66.02994822653915 33.40499999999997 66.59800000000001 C 32.030669505587035 67.1817281858662 30.62904899032528 67.69899289983185 29.204999999999973 68.14800000000001 C 26.490999999999975 68.73 23.711999999999975 69.82800000000002 21.320999999999973 70.022 C 20.803999999999974 70.022 20.222999999999974 70.152 19.705999999999975 70.21600000000001 C 19.123999999999974 70.346 18.606999999999974 70.47500000000001 18.089999999999975 70.60400000000001 L 16.539999999999974 71.186 C 16.021999999999974 71.379 15.504999999999974 71.638 14.987999999999975 71.896 C 14.535999999999975 72.219 14.018999999999975 72.478 13.566999999999975 72.801 C 13.113999999999976 73.124 12.661999999999976 73.511 12.273999999999976 73.9 C 11.821999999999976 74.223 11.369999999999976 74.67500000000001 10.981999999999976 75.063 C 10.593999999999976 75.515 10.206999999999976 75.903 9.882999999999976 76.355 C 9.559999999999976 76.872 9.172999999999977 77.325 8.913999999999977 77.84100000000001 C 8.590999999999976 78.29400000000001 8.267999999999976 78.811 8.009999999999977 79.328 C 7.749999999999977 79.909 7.492999999999976 80.426 7.298999999999976 81.00800000000001 C 7.095018727094629 81.56449223402849 6.900987816208039 82.12458146133001 6.7169999999999686 82.68800000000006 C 6.587999999999976 83.20500000000001 6.4589999999999765 83.72200000000002 6.393999999999976 84.23800000000001 C 6.393999999999976 84.30400000000002 6.328999999999976 84.36800000000001 6.328999999999976 84.433 C 6.199999999999976 85.01400000000001 6.199999999999976 85.79 6.134999999999976 86.177 C 6.070999999999976 86.63000000000001 6.005999999999975 87.01700000000001 6.005999999999975 87.47000000000001 C 6.005999999999975 87.72800000000001 6.005999999999975 88.05100000000002 6.070999999999976 88.31000000000002 C 6.135999999999976 88.76200000000001 6.200999999999976 89.15000000000002 6.329999999999976 89.53800000000001 C 6.4589999999999765 89.92500000000001 6.587999999999976 90.31300000000002 6.781999999999976 90.70100000000001 L 6.781999999999976 90.765 C 6.975999999999976 91.153 7.233999999999976 91.541 7.491999999999976 91.929 C 7.751999999999976 92.316 8.009999999999977 92.70400000000001 8.331999999999976 93.092 C 8.655999999999976 93.41499999999999 9.043999999999976 93.80199999999999 9.431999999999976 94.126 C 9.818999999999976 94.513 10.206999999999976 94.836 10.658999999999976 95.16000000000001 C 12.209999999999976 96.51700000000001 12.597999999999976 96.96900000000001 14.600999999999976 98.00300000000001 C 14.923999999999976 98.19700000000002 15.246999999999977 98.32600000000001 15.634999999999977 98.52000000000001 C 15.699999999999976 98.52000000000001 15.763999999999976 98.584 15.828999999999978 98.584 C 15.828999999999978 98.714 15.828999999999978 98.778 15.892999999999978 98.908 C 15.957999999999977 99.425 16.08699999999998 99.94200000000001 16.216999999999977 100.458 C 16.340000483545634 100.99003201375703 16.51276104380847 101.50931811640754 16.732999999999976 102.009 C 16.926999999999975 102.397 17.056999999999977 102.785 17.249999999999975 103.173 C 17.314999999999976 103.302 17.379999999999974 103.431 17.443999999999974 103.496 C 17.702999999999975 104.01299999999999 17.960999999999974 104.46499999999999 18.219999999999974 104.917 L 19.188999999999975 106.274 C 19.511999999999976 106.662 19.898999999999976 107.114 20.287999999999975 107.502 C 20.674999999999976 107.89 21.062999999999974 108.21199999999999 21.514999999999976 108.601 C 21.514999999999976 108.601 21.579999999999977 108.66499999999999 21.644999999999975 108.66499999999999 C 22.031999999999975 108.98799999999999 22.419999999999973 109.312 22.807999999999975 109.57 C 23.259999999999977 109.89299999999999 23.711999999999975 110.15199999999999 24.228999999999974 110.41 C 24.681999999999974 110.669 25.198999999999973 110.92699999999999 25.715999999999973 111.11999999999999 C 26.102999999999973 111.31499999999998 26.555999999999973 111.44399999999999 27.007999999999974 111.573 C 27.072999999999976 111.63799999999999 27.136999999999976 111.63799999999999 27.265999999999973 111.70299999999999 C 27.525999999999975 111.76699999999998 27.847999999999974 111.832 28.105999999999973 111.89599999999999 C 27.912999999999972 115.38599999999998 27.847999999999974 118.68099999999998 28.365999999999975 119.844 C 28.945999999999973 121.137 31.789999999999974 117.195 34.632999999999974 112.672 C 34.244999999999976 117.13 33.98699999999997 122.365 34.632999999999974 123.91499999999999 C 35.34399999999997 125.53099999999999 39.220999999999975 120.49099999999999 42.580999999999975 114.93299999999999 C 88.39699999999998 104.336 130.20599999999996 136 134.59999999999997 180.716 C 133.75999999999996 173.737 125.16499999999996 169.86 121.22299999999997 170.829 C 119.28499999999997 175.61100000000002 115.98899999999998 181.75 110.68999999999997 185.56300000000002 C 111.1528568138143 181.24775406124385 110.93486563853548 176.88658076510887 110.04399999999997 172.639 C 108.62299999999996 178.584 105.84399999999997 184.14100000000002 102.03099999999996 188.923 C 95.89299999999996 189.375 89.75399999999996 186.403 86.52299999999997 181.943 C 86.26399999999997 181.75 86.19999999999997 181.363 86.00599999999997 181.103 C 85.81199999999997 180.651 85.61799999999997 180.199 85.48899999999998 179.747 C 85.30047331953097 179.31372650885416 85.17001135912113 178.8574458895858 85.10099999999997 178.39000000000001 C 85.03599999999997 177.937 85.03599999999997 177.485 85.03599999999997 176.96800000000002 L 85.03599999999997 175.99800000000002 C 85.10099999999997 175.54600000000002 85.22999999999998 175.09400000000002 85.35899999999997 174.64200000000002 C 85.48899999999996 174.18900000000002 85.61799999999997 173.73700000000002 85.81199999999997 173.28500000000003 C 86.06999999999996 172.83200000000002 86.26399999999997 172.38000000000002 86.58699999999997 171.92800000000003 C 87.68599999999998 168.82600000000002 87.68599999999998 166.30600000000004 85.68299999999998 164.82000000000002 C 85.29496225551992 164.56613073935742 84.88380099578394 164.3495009876887 84.45499999999998 164.17300000000003 C 84.19599999999998 164.10900000000004 83.87299999999999 163.98000000000002 83.61499999999998 163.91500000000002 C 83.42099999999998 163.85000000000002 83.29199999999999 163.78500000000003 83.09799999999998 163.72100000000003 C 82.64499999999998 163.59100000000004 82.19299999999998 163.46200000000005 81.74099999999999 163.39800000000002 C 81.29992728672718 163.27036605780026 80.84316709827281 163.20506651722533 80.38399999999999 163.20400000000004 C 79.93099999999998 163.13900000000004 79.41399999999999 163.07400000000004 78.96199999999999 163.07400000000004 C 78.639 163.07400000000004 78.31599999999999 163.14000000000004 77.99199999999999 163.14000000000004 C 77.47599999999998 163.14000000000004 77.02399999999999 163.20400000000004 76.57199999999999 163.33300000000006 C 76.11899999999999 163.39800000000005 75.66699999999999 163.46300000000005 75.21399999999998 163.59200000000004 C 74.76199999999999 163.72200000000004 74.30899999999998 163.85100000000003 73.85699999999999 164.04400000000004 C 73.40499999999999 164.23800000000003 73.01699999999998 164.43200000000004 72.56499999999998 164.62600000000003 C 72.17699999999998 164.82000000000002 71.78899999999999 165.07800000000003 71.33699999999999 165.27200000000002 C 56.28099999999999 175.09400000000002 65.26299999999999 198.09900000000002 75.53699999999999 204.75500000000002 C 71.66 205.46500000000003 67.71799999999999 206.30500000000004 66.61999999999999 207.145 L 66.49 207.275 C 69.27 208.955 72.17699999999999 210.377 75.214 211.60500000000002 C 79.35 212.961 83.744 214.18900000000002 85.68299999999999 214.70600000000002 L 85.68299999999999 214.77100000000002 C 91.03683028447512 215.8687830169732 96.5114989352406 216.25978274927735 101.967 215.93400000000003 C 130.593 213.93100000000004 154.04999999999998 192.15400000000002 158.315 163.46300000000002 C 158.445 164.044 158.57399999999998 164.56100000000004 158.703 165.14300000000003 C 158.897 166.30600000000004 159.155 167.53300000000002 159.284 168.76200000000003 L 159.284 168.82600000000002 C 159.414 169.40800000000002 159.47799999999998 169.99 159.54299999999998 170.50600000000003 L 159.54299999999998 170.76600000000002 C 159.60799999999998 171.34600000000003 159.67299999999997 171.92800000000003 159.67299999999997 172.44600000000003 C 159.73699999999997 173.15600000000003 159.80099999999996 173.866 159.80099999999996 174.57800000000003 L 159.80099999999996 175.61200000000002 C 159.80099999999996 175.93500000000003 159.86599999999996 176.32200000000003 159.86599999999996 176.645 C 159.86599999999996 177.03300000000002 159.80099999999996 177.42100000000002 159.80099999999996 177.809 L 159.80099999999996 178.713 C 159.80099999999996 179.166 159.73599999999996 179.553 159.73599999999996 180.006 C 159.73599999999996 180.264 159.73599999999996 180.523 159.67199999999997 180.846 C 159.67199999999997 181.298 159.60699999999997 181.75 159.60699999999997 182.267 C 159.54199999999997 182.46099999999998 159.54199999999997 182.655 159.54199999999997 182.849 C 159.47799999999998 183.36599999999999 159.41299999999998 183.819 159.34799999999998 184.33499999999998 C 159.34799999999998 184.52899999999997 159.34799999999998 184.72299999999998 159.284 184.91699999999997 C 159.219 185.56299999999996 159.09 186.14499999999998 159.025 186.79099999999997 L 159.025 186.91999999999996 C 158.89600000000002 187.50199999999995 158.767 188.14799999999997 158.637 188.72999999999996 L 158.637 188.92299999999997 L 158.25 190.66799999999998 C 158.25 190.73299999999998 158.185 190.86199999999997 158.185 190.92699999999996 C 158.055 191.50799999999995 157.92600000000002 192.08999999999997 157.733 192.67099999999996 L 157.733 192.86499999999995 C 157.53900000000002 193.51199999999994 157.345 194.09299999999996 157.216 194.67499999999995 C 157.151 194.73899999999995 157.151 194.80399999999995 157.151 194.80399999999995 L 156.56900000000002 196.74199999999993 C 156.311 197.38899999999992 156.11700000000002 197.96999999999994 155.859 198.61599999999993 C 155.60000000000002 199.26299999999992 155.406 199.90899999999993 155.148 200.48999999999992 C 154.889 201.13699999999992 154.631 201.71799999999993 154.37199999999999 202.36399999999992 L 154.308 202.36399999999992 C 154.048 202.9459999999999 153.791 203.59199999999993 153.468 204.17399999999992 C 153.403 204.3679999999999 153.338 204.49699999999993 153.274 204.62599999999992 C 153.209 204.69099999999992 153.209 204.75599999999991 153.144 204.8199999999999 C 148.94400000000002 213.2849999999999 142.741 220.7159999999999 134.986 226.5319999999999 C 134.469 226.8549999999999 133.952 227.2419999999999 133.43599999999998 227.6309999999999 C 133.30599999999998 227.75999999999988 133.11199999999997 227.8239999999999 132.98299999999998 227.9539999999999 C 132.53099999999998 228.2769999999999 132.07799999999997 228.59999999999988 131.56199999999998 228.9229999999999 L 131.755 229.3109999999999 L 131.82 229.3109999999999 L 134.534 228.9229999999999 L 134.599 228.9229999999999 C 136.279 228.6639999999999 137.959 228.3409999999999 139.63899999999998 228.0179999999999 C 140.09099999999998 227.9529999999999 140.60899999999998 227.8239999999999 141.06099999999998 227.69499999999988 C 141.384 227.62999999999988 141.64199999999997 227.5659999999999 141.96499999999997 227.5009999999999 C 142.41799999999998 227.4369999999999 142.86999999999998 227.3069999999999 143.32199999999997 227.24299999999988 C 143.70999999999998 227.1129999999999 144.09799999999998 227.0489999999999 144.48599999999996 226.91999999999987 C 150.94799999999995 225.3689999999999 157.21599999999995 223.23599999999988 163.22599999999997 220.71599999999987 C 152.95099999999996 234.73899999999986 139.18599999999998 246.04699999999985 123.09599999999998 253.47799999999987 C 130.52799999999996 252.96099999999987 137.95899999999997 251.73399999999987 145.13199999999998 249.66599999999985 C 171.17399999999998 241.97599999999986 193.07999999999998 224.46399999999986 206.19699999999997 200.87799999999987 C 203.53453337174489 215.83934355436494 197.59904654568703 230.02755421037133 188.81499999999997 242.42799999999988 C 195.07733321044054 238.29710827762915 200.86351704547837 233.48618802528935 206.06799999999998 228.08299999999986 C 220.54299999999998 212.96199999999988 230.04199999999997 193.76999999999987 233.27299999999997 173.1559999999999 C 235.4773529936631 183.38270643998658 236.10928347620268 193.8857687343629 235.14699999999993 204.30299999999986 C 281.80199999999996 139.23099999999988 239.02399999999997 71.76799999999989 221.12399999999997 53.99799999999988 C 221.05999999999997 53.867999999999874 220.99499999999998 53.803999999999874 220.99499999999998 53.674999999999876 C 220.93099999999998 53.738999999999876 220.93099999999998 53.738999999999876 220.93099999999998 53.803999999999874 C 220.93099999999998 53.738999999999876 220.93099999999998 53.738999999999876 220.86599999999999 53.67399999999987 C 220.86599999999999 54.449999999999875 220.801 55.22499999999987 220.736 56.00099999999987 C 220.54299999999998 57.48699999999987 220.349 58.90899999999987 220.09 60.33099999999987 C 219.767 61.75199999999987 219.38 63.173999999999864 218.992 64.59499999999987 C 218.53222456381488 65.99432291133995 218.0151213674693 67.37415440816909 217.44199999999998 68.73099999999987 C 216.84762637689283 70.07009525649549 216.2004525729186 71.38512573859157 215.50199999999998 72.67299999999986 C 214.79199999999997 73.89999999999986 214.016 75.19299999999986 213.176 76.35599999999985 C 212.34475830680034 77.55798311181424 211.46055414695843 78.72246330722868 210.52599999999998 79.84599999999983 C 209.557 81.00899999999984 208.52399999999997 82.04299999999985 207.48999999999998 83.07599999999985 C 206.88147810827064 83.63311018173198 206.2565356434928 84.17201467643902 205.61599999999999 84.69199999999985 C 205.099 85.14399999999985 204.646 85.53199999999985 204.129 85.98399999999985 C 202.96599999999998 86.88899999999985 201.803 87.72899999999986 200.511 88.50399999999985 C 199.283 89.27999999999984 197.99099999999999 90.05499999999985 196.698 90.70199999999984 C 195.341 91.34799999999984 193.984 91.92899999999985 192.62800000000001 92.51099999999984 C 191.27 93.02799999999984 189.848 93.48099999999984 188.42700000000002 93.86799999999984 C 186.99811139926678 94.25273716874054 185.5534656505761 94.57636450736177 184.097 94.83799999999984 C 182.61100000000002 95.09599999999983 181.125 95.22499999999984 179.703 95.35399999999984 C 178.669 95.41899999999984 177.635 95.48399999999984 176.601 95.48399999999984 C 175.115 95.48399999999984 173.629 95.35399999999984 172.207 95.22399999999983 C 170.721 95.09599999999983 169.23499999999999 94.90199999999983 167.813 94.57899999999984 C 166.327 94.31899999999983 164.905 93.93199999999983 163.48299999999998 93.47999999999983 L 163.41899999999998 93.47999999999983 C 164.84099999999998 93.34999999999984 166.26199999999997 93.22099999999983 167.68399999999997 92.96299999999984 C 169.14184670992069 92.70825265670759 170.58680100136152 92.38455619880976 172.01399999999998 91.99299999999984 C 173.43511275321862 91.60921319455436 174.83676160957666 91.15668084950163 176.21399999999997 90.63699999999986 C 177.63499999999996 90.11999999999985 178.99199999999996 89.47399999999985 180.28399999999996 88.82699999999984 C 181.64199999999997 88.18099999999984 182.86999999999998 87.46999999999984 184.16199999999998 86.69499999999984 C 185.39 85.85499999999983 186.617 85.01499999999983 187.78099999999998 84.10999999999984 C 188.93861044399728 83.20997714030479 190.03907184259413 82.23876568442627 191.07599999999996 81.20199999999984 C 192.17499999999995 80.23199999999984 193.14399999999998 79.13399999999984 194.11299999999997 78.03599999999985 C 195.057676780974 76.90434010966744 195.96288576894412 75.74030939190187 196.82699999999994 74.54599999999985 C 196.95699999999997 74.35299999999985 197.08599999999996 74.09399999999985 197.21499999999997 73.89999999999985 C 197.86099999999996 72.86599999999984 198.50699999999998 71.83199999999985 199.08899999999997 70.79799999999985 C 199.799755364129 69.51702244892098 200.4468754033339 68.20175680967061 201.02799999999996 66.85699999999986 C 201.61164102625747 65.50436868983253 202.12892295416356 64.12406026801354 202.57799999999997 62.720999999999826 C 203.03099999999998 61.36399999999984 203.35399999999998 59.94199999999984 203.67699999999996 58.52099999999984 C 203.93599999999995 57.03499999999984 204.19399999999996 55.612999999999836 204.32299999999995 54.19099999999984 C 204.45299999999995 52.70499999999984 204.58199999999994 51.21899999999984 204.58199999999994 49.79699999999984 C 204.58199999999994 48.76299999999984 204.51699999999994 47.72899999999984 204.45199999999994 46.694999999999844 C 204.32399999999996 45.20899999999985 204.12999999999994 43.78799999999984 203.93599999999995 42.364999999999846 C 203.68121584678246 40.907490624352675 203.3575196108095 39.462871031026 202.96599999999995 38.03599999999983 C 202.51399999999995 36.678999999999846 202.06199999999995 35.257999999999846 201.54499999999996 33.90099999999985 C 201.02799999999996 32.54399999999985 200.38199999999995 31.18699999999985 199.73499999999996 29.89399999999985 C 199.02499999999995 28.601999999999848 198.31399999999996 27.30999999999985 197.53799999999995 26.081999999999848 C 196.7133599391419 24.87108433169073 195.85161803015978 23.6858557153895 194.95399999999995 22.527999999999853 C 193.98090104678948 21.41331782627143 192.9897704613625 20.314506386793713 191.9809999999999 19.231999999999843 C 191.43663733757862 18.67763289541814 190.876404585941 18.139075815718897 190.30099999999993 17.61699999999985 C 187.40614734970447 15.368774577096964 184.4089507274359 13.255520712832126 181.31899999999985 11.28399999999981 C 180.86699999999993 11.024999999999851 180.47899999999993 10.831999999999852 180.02599999999993 10.63799999999985 C 177.89399999999992 9.280999999999851 175.89099999999993 8.569999999999851 173.88799999999992 7.92399999999985 z" stroke-linecap="round" />
<filter id="SVGID_0" y="-21.60489171%" height="143.20978342%" x="-23.59683808%" width="147.19367616%" >
	<feGaussianBlur in="SourceAlpha" stdDeviation="0"></feGaussianBlur>
	<feOffset dx="9" dy="4" result="oBlur" ></feOffset>
	<feFlood flood-color="rgb(0,0,0)" flood-opacity="1"/>
	<feComposite in2="oBlur" operator="in" />
	<feMerge>
		<feMergeNode></feMergeNode>
		<feMergeNode in="SourceGraphic"></feMergeNode>
	</feMerge>
</filter>
<path style="stroke: rgb(255,255,255); stroke-width: 4; stroke-dasharray: none; stroke-linecap: butt; stroke-dashoffset: 0; stroke-linejoin: miter; stroke-miterlimit: 4; fill: rgb(0,0,0); fill-rule: evenodd; opacity: 1;"  transform=" translate(-131.1158854461, -128.859)" d="M 153.338 4.24 C 151.529 4.24 149.849 4.628 148.298 5.1450000000000005 C 151.594 7.3420000000000005 153.403 10.25 154.308 13.545000000000002 C 154.373 13.998000000000001 154.50199999999998 14.321000000000002 154.566 14.773000000000001 C 154.631 15.161000000000001 154.696 15.548000000000002 154.696 15.936000000000002 C 154.954 21.623 153.209 22.333000000000002 151.981 25.694000000000003 C 150.107 30.024 150.624 34.676 152.886 38.42400000000001 C 153.07999999999998 38.876000000000005 153.338 39.39300000000001 153.662 39.845000000000006 C 151.20600000000002 23.497000000000007 164.841 21.041000000000007 167.36100000000002 15.936000000000007 C 167.555 11.477000000000007 163.871 8.505000000000006 160.96400000000003 6.4370000000000065 C 158.18400000000003 4.757000000000007 155.66400000000002 4.240000000000006 153.33800000000002 4.240000000000006 z M 173.888 7.923 C 173.62800000000001 9.41 173.823 9.022 173.758 9.797 C 173.69400000000002 10.314 173.69400000000002 10.96 173.62900000000002 11.477 C 173.50000000000003 11.994 173.371 12.511000000000001 173.17700000000002 13.028 C 173.04700000000003 13.545 172.854 14.062000000000001 172.66000000000003 14.579 C 172.40100000000004 15.096 172.20800000000003 15.549000000000001 171.95000000000002 16.065 C 171.75500000000002 16.324 171.626 16.582 171.43200000000002 16.841 L 171.044 17.422 C 170.721 17.875 170.39800000000002 18.327 170.07500000000002 18.715 C 169.687 19.103 169.365 19.555 168.912 19.878 L 168.912 19.943 C 168.524 20.266000000000002 168.137 20.653000000000002 167.684 20.977 C 166.327 22.01 164.776 22.786 163.35399999999998 23.755 C 162.902 24.078 162.45 24.337 162.06199999999998 24.724999999999998 C 161.60999999999999 25.048 161.22199999999998 25.371 160.83499999999998 25.758 C 160.38199999999998 26.146 160.05899999999997 26.534 159.671 26.986 C 159.34799999999998 27.374000000000002 158.96099999999998 27.826 158.702 28.279 C 158.379 28.731 158.056 29.183 157.797 29.636 C 157.539 30.153 157.345 30.605 157.087 31.122 C 156.893 31.639 156.69899999999998 32.092 156.57 32.608 C 156.39744604069742 33.14039075347503 156.24632447617654 33.679491080772436 156.117 34.224000000000004 C 156.053 34.482 156.053 34.805 155.988 35.064 C 155.923 35.322 155.923 35.581 155.859 35.839 C 155.859 36.356 155.794 36.937999999999995 155.794 37.455 C 155.794 37.842 155.794 38.23 155.859 38.617999999999995 C 155.859 39.135 155.924 39.651999999999994 156.053 40.233 C 156.118 40.75 156.24699999999999 41.266999999999996 156.376 41.784 C 156.57 42.301 156.699 42.818 156.893 43.333999999999996 C 157.023 43.657999999999994 157.216 43.980999999999995 157.345 44.239999999999995 L 142.483 38.48799999999999 C 139.963 37.77799999999999 137.507 37.13099999999999 134.987 36.54999999999999 L 130.916 35.57999999999999 C 127.02723037408703 34.80467691501545 123.10241267644338 34.22262912039889 119.15600000000002 33.83599999999998 C 119.026 33.83599999999999 118.961 33.770999999999994 118.832 33.770999999999994 C 114.955 33.382999999999996 111.142 33.18999999999999 107.26499999999999 33.18999999999999 C 104.42199999999998 33.18999999999999 101.57899999999998 33.31899999999999 98.79999999999998 33.51299999999999 C 94.85799999999998 33.770999999999994 90.91599999999998 34.28799999999999 86.97499999999998 34.93399999999999 C 86.00499999999998 35.06399999999999 85.03499999999998 35.25699999999999 84.06699999999998 35.45099999999999 C 82.06299999999997 35.83899999999999 80.12499999999997 36.291 78.25099999999998 36.74399999999999 L 75.34299999999998 37.51899999999999 C 74.37299999999998 37.90699999999999 73.46899999999998 38.358999999999995 72.56399999999998 38.74699999999999 L 70.43199999999997 39.71699999999999 C 70.30199999999998 39.78099999999999 70.17299999999997 39.78099999999999 70.10899999999998 39.84499999999999 C 69.46299999999998 40.16799999999999 68.88099999999999 40.42699999999999 68.29899999999998 40.74999999999999 C 68.10599999999998 40.81499999999999 67.97599999999998 40.879999999999995 67.84699999999998 40.943999999999996 C 67.13699999999999 41.266999999999996 66.42599999999997 41.653999999999996 65.84399999999998 41.977999999999994 C 65.39199999999998 42.172 64.93899999999998 42.42999999999999 64.55199999999998 42.623999999999995 C 64.35799999999998 42.754 64.09899999999998 42.882999999999996 63.96999999999998 42.946999999999996 C 63.38799999999998 43.269999999999996 62.80699999999998 43.592999999999996 62.28999999999998 43.916999999999994 C 61.70799999999998 44.239 61.19099999999998 44.562999999999995 60.738999999999976 44.885999999999996 C 60.28699999999997 45.208999999999996 59.833999999999975 45.467 59.446999999999974 45.79 C 59.38199999999998 45.855 59.31699999999997 45.855 59.25299999999997 45.92 C 58.864999999999974 46.178000000000004 58.41299999999997 46.501000000000005 58.02499999999997 46.824000000000005 L 57.89499999999997 46.95400000000001 L 56.926999999999964 47.729000000000006 C 56.79699999999996 47.793000000000006 56.666999999999966 47.92300000000001 56.538999999999966 47.98700000000001 C 56.215999999999966 48.24600000000001 55.892999999999965 48.56900000000001 55.56899999999997 48.82700000000001 C 55.50499999999997 48.957000000000015 55.37599999999997 49.021000000000015 55.310999999999964 49.08600000000001 C 54.922999999999966 49.47400000000001 54.535999999999966 49.796000000000014 54.14799999999997 50.18400000000001 C 54.08299999999997 50.18400000000001 54.08299999999997 50.24900000000001 54.017999999999965 50.314000000000014 C 53.630999999999965 50.637000000000015 53.24299999999997 51.024000000000015 52.85499999999997 51.41200000000001 C 52.79099999999997 51.47700000000001 52.79099999999997 51.542000000000016 52.72599999999997 51.542000000000016 C 52.3870826279039 51.87104860641243 52.063729826649265 52.21575804263125 51.75699999999997 52.57500000000002 C 51.62699999999997 52.70500000000002 51.43399999999997 52.83400000000002 51.30499999999997 52.963000000000015 C 50.98199999999997 53.35100000000001 50.59399999999997 53.738000000000014 50.205999999999975 54.12600000000001 C 50.14099999999998 54.256000000000014 50.01199999999997 54.320000000000014 49.94799999999997 54.44900000000001 C 49.43099999999997 54.966000000000015 48.97799999999997 55.48300000000001 48.46099999999997 56.000000000000014 L 48.26799999999997 56.19400000000002 C 47.23399999999997 57.292000000000016 46.13499999999997 58.39100000000002 44.97199999999997 59.360000000000014 C 43.82627747095006 60.38238013055204 42.617572416181375 61.33190996495585 41.35299999999997 62.20300000000002 C 40.09985353322367 63.08194799011381 38.80609311516003 63.90151868569398 37.47599999999997 64.65900000000002 C 36.15714623298104 65.38255397969016 34.79791880702837 66.02994822653915 33.40499999999997 66.59800000000001 C 32.030669505587035 67.1817281858662 30.62904899032528 67.69899289983185 29.204999999999973 68.14800000000001 C 26.490999999999975 68.73 23.711999999999975 69.82800000000002 21.320999999999973 70.022 C 20.803999999999974 70.022 20.222999999999974 70.152 19.705999999999975 70.21600000000001 C 19.123999999999974 70.346 18.606999999999974 70.47500000000001 18.089999999999975 70.60400000000001 L 16.539999999999974 71.186 C 16.021999999999974 71.379 15.504999999999974 71.638 14.987999999999975 71.896 C 14.535999999999975 72.219 14.018999999999975 72.478 13.566999999999975 72.801 C 13.113999999999976 73.124 12.661999999999976 73.511 12.273999999999976 73.9 C 11.821999999999976 74.223 11.369999999999976 74.67500000000001 10.981999999999976 75.063 C 10.593999999999976 75.515 10.206999999999976 75.903 9.882999999999976 76.355 C 9.559999999999976 76.872 9.172999999999977 77.325 8.913999999999977 77.84100000000001 C 8.590999999999976 78.29400000000001 8.267999999999976 78.811 8.009999999999977 79.328 C 7.749999999999977 79.909 7.492999999999976 80.426 7.298999999999976 81.00800000000001 C 7.095018727094629 81.56449223402849 6.900987816208039 82.12458146133001 6.7169999999999686 82.68800000000006 C 6.587999999999976 83.20500000000001 6.4589999999999765 83.72200000000002 6.393999999999976 84.23800000000001 C 6.393999999999976 84.30400000000002 6.328999999999976 84.36800000000001 6.328999999999976 84.433 C 6.199999999999976 85.01400000000001 6.199999999999976 85.79 6.134999999999976 86.177 C 6.070999999999976 86.63000000000001 6.005999999999975 87.01700000000001 6.005999999999975 87.47000000000001 C 6.005999999999975 87.72800000000001 6.005999999999975 88.05100000000002 6.070999999999976 88.31000000000002 C 6.135999999999976 88.76200000000001 6.200999999999976 89.15000000000002 6.329999999999976 89.53800000000001 C 6.4589999999999765 89.92500000000001 6.587999999999976 90.31300000000002 6.781999999999976 90.70100000000001 L 6.781999999999976 90.765 C 6.975999999999976 91.153 7.233999999999976 91.541 7.491999999999976 91.929 C 7.751999999999976 92.316 8.009999999999977 92.70400000000001 8.331999999999976 93.092 C 8.655999999999976 93.41499999999999 9.043999999999976 93.80199999999999 9.431999999999976 94.126 C 9.818999999999976 94.513 10.206999999999976 94.836 10.658999999999976 95.16000000000001 C 12.209999999999976 96.51700000000001 12.597999999999976 96.96900000000001 14.600999999999976 98.00300000000001 C 14.923999999999976 98.19700000000002 15.246999999999977 98.32600000000001 15.634999999999977 98.52000000000001 C 15.699999999999976 98.52000000000001 15.763999999999976 98.584 15.828999999999978 98.584 C 15.828999999999978 98.714 15.828999999999978 98.778 15.892999999999978 98.908 C 15.957999999999977 99.425 16.08699999999998 99.94200000000001 16.216999999999977 100.458 C 16.340000483545634 100.99003201375703 16.51276104380847 101.50931811640754 16.732999999999976 102.009 C 16.926999999999975 102.397 17.056999999999977 102.785 17.249999999999975 103.173 C 17.314999999999976 103.302 17.379999999999974 103.431 17.443999999999974 103.496 C 17.702999999999975 104.01299999999999 17.960999999999974 104.46499999999999 18.219999999999974 104.917 L 19.188999999999975 106.274 C 19.511999999999976 106.662 19.898999999999976 107.114 20.287999999999975 107.502 C 20.674999999999976 107.89 21.062999999999974 108.21199999999999 21.514999999999976 108.601 C 21.514999999999976 108.601 21.579999999999977 108.66499999999999 21.644999999999975 108.66499999999999 C 22.031999999999975 108.98799999999999 22.419999999999973 109.312 22.807999999999975 109.57 C 23.259999999999977 109.89299999999999 23.711999999999975 110.15199999999999 24.228999999999974 110.41 C 24.681999999999974 110.669 25.198999999999973 110.92699999999999 25.715999999999973 111.11999999999999 C 26.102999999999973 111.31499999999998 26.555999999999973 111.44399999999999 27.007999999999974 111.573 C 27.072999999999976 111.63799999999999 27.136999999999976 111.63799999999999 27.265999999999973 111.70299999999999 C 27.525999999999975 111.76699999999998 27.847999999999974 111.832 28.105999999999973 111.89599999999999 C 27.912999999999972 115.38599999999998 27.847999999999974 118.68099999999998 28.365999999999975 119.844 C 28.945999999999973 121.137 31.789999999999974 117.195 34.632999999999974 112.672 C 34.244999999999976 117.13 33.98699999999997 122.365 34.632999999999974 123.91499999999999 C 35.34399999999997 125.53099999999999 39.220999999999975 120.49099999999999 42.580999999999975 114.93299999999999 C 88.39699999999998 104.336 130.20599999999996 136 134.59999999999997 180.716 C 133.75999999999996 173.737 125.16499999999996 169.86 121.22299999999997 170.829 C 119.28499999999997 175.61100000000002 115.98899999999998 181.75 110.68999999999997 185.56300000000002 C 111.1528568138143 181.24775406124385 110.93486563853548 176.88658076510887 110.04399999999997 172.639 C 108.62299999999996 178.584 105.84399999999997 184.14100000000002 102.03099999999996 188.923 C 95.89299999999996 189.375 89.75399999999996 186.403 86.52299999999997 181.943 C 86.26399999999997 181.75 86.19999999999997 181.363 86.00599999999997 181.103 C 85.81199999999997 180.651 85.61799999999997 180.199 85.48899999999998 179.747 C 85.30047331953097 179.31372650885416 85.17001135912113 178.8574458895858 85.10099999999997 178.39000000000001 C 85.03599999999997 177.937 85.03599999999997 177.485 85.03599999999997 176.96800000000002 L 85.03599999999997 175.99800000000002 C 85.10099999999997 175.54600000000002 85.22999999999998 175.09400000000002 85.35899999999997 174.64200000000002 C 85.48899999999996 174.18900000000002 85.61799999999997 173.73700000000002 85.81199999999997 173.28500000000003 C 86.06999999999996 172.83200000000002 86.26399999999997 172.38000000000002 86.58699999999997 171.92800000000003 C 87.68599999999998 168.82600000000002 87.68599999999998 166.30600000000004 85.68299999999998 164.82000000000002 C 85.29496225551992 164.56613073935742 84.88380099578394 164.3495009876887 84.45499999999998 164.17300000000003 C 84.19599999999998 164.10900000000004 83.87299999999999 163.98000000000002 83.61499999999998 163.91500000000002 C 83.42099999999998 163.85000000000002 83.29199999999999 163.78500000000003 83.09799999999998 163.72100000000003 C 82.64499999999998 163.59100000000004 82.19299999999998 163.46200000000005 81.74099999999999 163.39800000000002 C 81.29992728672718 163.27036605780026 80.84316709827281 163.20506651722533 80.38399999999999 163.20400000000004 C 79.93099999999998 163.13900000000004 79.41399999999999 163.07400000000004 78.96199999999999 163.07400000000004 C 78.639 163.07400000000004 78.31599999999999 163.14000000000004 77.99199999999999 163.14000000000004 C 77.47599999999998 163.14000000000004 77.02399999999999 163.20400000000004 76.57199999999999 163.33300000000006 C 76.11899999999999 163.39800000000005 75.66699999999999 163.46300000000005 75.21399999999998 163.59200000000004 C 74.76199999999999 163.72200000000004 74.30899999999998 163.85100000000003 73.85699999999999 164.04400000000004 C 73.40499999999999 164.23800000000003 73.01699999999998 164.43200000000004 72.56499999999998 164.62600000000003 C 72.17699999999998 164.82000000000002 71.78899999999999 165.07800000000003 71.33699999999999 165.27200000000002 C 56.28099999999999 175.09400000000002 65.26299999999999 198.09900000000002 75.53699999999999 204.75500000000002 C 71.66 205.46500000000003 67.71799999999999 206.30500000000004 66.61999999999999 207.145 L 66.49 207.275 C 69.27 208.955 72.17699999999999 210.377 75.214 211.60500000000002 C 79.35 212.961 83.744 214.18900000000002 85.68299999999999 214.70600000000002 L 85.68299999999999 214.77100000000002 C 91.03683028447512 215.8687830169732 96.5114989352406 216.25978274927735 101.967 215.93400000000003 C 130.593 213.93100000000004 154.04999999999998 192.15400000000002 158.315 163.46300000000002 C 158.445 164.044 158.57399999999998 164.56100000000004 158.703 165.14300000000003 C 158.897 166.30600000000004 159.155 167.53300000000002 159.284 168.76200000000003 L 159.284 168.82600000000002 C 159.414 169.40800000000002 159.47799999999998 169.99 159.54299999999998 170.50600000000003 L 159.54299999999998 170.76600000000002 C 159.60799999999998 171.34600000000003 159.67299999999997 171.92800000000003 159.67299999999997 172.44600000000003 C 159.73699999999997 173.15600000000003 159.80099999999996 173.866 159.80099999999996 174.57800000000003 L 159.80099999999996 175.61200000000002 C 159.80099999999996 175.93500000000003 159.86599999999996 176.32200000000003 159.86599999999996 176.645 C 159.86599999999996 177.03300000000002 159.80099999999996 177.42100000000002 159.80099999999996 177.809 L 159.80099999999996 178.713 C 159.80099999999996 179.166 159.73599999999996 179.553 159.73599999999996 180.006 C 159.73599999999996 180.264 159.73599999999996 180.523 159.67199999999997 180.846 C 159.67199999999997 181.298 159.60699999999997 181.75 159.60699999999997 182.267 C 159.54199999999997 182.46099999999998 159.54199999999997 182.655 159.54199999999997 182.849 C 159.47799999999998 183.36599999999999 159.41299999999998 183.819 159.34799999999998 184.33499999999998 C 159.34799999999998 184.52899999999997 159.34799999999998 184.72299999999998 159.284 184.91699999999997 C 159.219 185.56299999999996 159.09 186.14499999999998 159.025 186.79099999999997 L 159.025 186.91999999999996 C 158.89600000000002 187.50199999999995 158.767 188.14799999999997 158.637 188.72999999999996 L 158.637 188.92299999999997 L 158.25 190.66799999999998 C 158.25 190.73299999999998 158.185 190.86199999999997 158.185 190.92699999999996 C 158.055 191.50799999999995 157.92600000000002 192.08999999999997 157.733 192.67099999999996 L 157.733 192.86499999999995 C 157.53900000000002 193.51199999999994 157.345 194.09299999999996 157.216 194.67499999999995 C 157.151 194.73899999999995 157.151 194.80399999999995 157.151 194.80399999999995 L 156.56900000000002 196.74199999999993 C 156.311 197.38899999999992 156.11700000000002 197.96999999999994 155.859 198.61599999999993 C 155.60000000000002 199.26299999999992 155.406 199.90899999999993 155.148 200.48999999999992 C 154.889 201.13699999999992 154.631 201.71799999999993 154.37199999999999 202.36399999999992 L 154.308 202.36399999999992 C 154.048 202.9459999999999 153.791 203.59199999999993 153.468 204.17399999999992 C 153.403 204.3679999999999 153.338 204.49699999999993 153.274 204.62599999999992 C 153.209 204.69099999999992 153.209 204.75599999999991 153.144 204.8199999999999 C 148.94400000000002 213.2849999999999 142.741 220.7159999999999 134.986 226.5319999999999 C 134.469 226.8549999999999 133.952 227.2419999999999 133.43599999999998 227.6309999999999 C 133.30599999999998 227.75999999999988 133.11199999999997 227.8239999999999 132.98299999999998 227.9539999999999 C 132.53099999999998 228.2769999999999 132.07799999999997 228.59999999999988 131.56199999999998 228.9229999999999 L 131.755 229.3109999999999 L 131.82 229.3109999999999 L 134.534 228.9229999999999 L 134.599 228.9229999999999 C 136.279 228.6639999999999 137.959 228.3409999999999 139.63899999999998 228.0179999999999 C 140.09099999999998 227.9529999999999 140.60899999999998 227.8239999999999 141.06099999999998 227.69499999999988 C 141.384 227.62999999999988 141.64199999999997 227.5659999999999 141.96499999999997 227.5009999999999 C 142.41799999999998 227.4369999999999 142.86999999999998 227.3069999999999 143.32199999999997 227.24299999999988 C 143.70999999999998 227.1129999999999 144.09799999999998 227.0489999999999 144.48599999999996 226.91999999999987 C 150.94799999999995 225.3689999999999 157.21599999999995 223.23599999999988 163.22599999999997 220.71599999999987 C 152.95099999999996 234.73899999999986 139.18599999999998 246.04699999999985 123.09599999999998 253.47799999999987 C 130.52799999999996 252.96099999999987 137.95899999999997 251.73399999999987 145.13199999999998 249.66599999999985 C 171.17399999999998 241.97599999999986 193.07999999999998 224.46399999999986 206.19699999999997 200.87799999999987 C 203.53453337174489 215.83934355436494 197.59904654568703 230.02755421037133 188.81499999999997 242.42799999999988 C 195.07733321044054 238.29710827762915 200.86351704547837 233.48618802528935 206.06799999999998 228.08299999999986 C 220.54299999999998 212.96199999999988 230.04199999999997 193.76999999999987 233.27299999999997 173.1559999999999 C 235.4773529936631 183.38270643998658 236.10928347620268 193.8857687343629 235.14699999999993 204.30299999999986 C 281.80199999999996 139.23099999999988 239.02399999999997 71.76799999999989 221.12399999999997 53.99799999999988 C 221.05999999999997 53.867999999999874 220.99499999999998 53.803999999999874 220.99499999999998 53.674999999999876 C 220.93099999999998 53.738999999999876 220.93099999999998 53.738999999999876 220.93099999999998 53.803999999999874 C 220.93099999999998 53.738999999999876 220.93099999999998 53.738999999999876 220.86599999999999 53.67399999999987 C 220.86599999999999 54.449999999999875 220.801 55.22499999999987 220.736 56.00099999999987 C 220.54299999999998 57.48699999999987 220.349 58.90899999999987 220.09 60.33099999999987 C 219.767 61.75199999999987 219.38 63.173999999999864 218.992 64.59499999999987 C 218.53222456381488 65.99432291133995 218.0151213674693 67.37415440816909 217.44199999999998 68.73099999999987 C 216.84762637689283 70.07009525649549 216.2004525729186 71.38512573859157 215.50199999999998 72.67299999999986 C 214.79199999999997 73.89999999999986 214.016 75.19299999999986 213.176 76.35599999999985 C 212.34475830680034 77.55798311181424 211.46055414695843 78.72246330722868 210.52599999999998 79.84599999999983 C 209.557 81.00899999999984 208.52399999999997 82.04299999999985 207.48999999999998 83.07599999999985 C 206.88147810827064 83.63311018173198 206.2565356434928 84.17201467643902 205.61599999999999 84.69199999999985 C 205.099 85.14399999999985 204.646 85.53199999999985 204.129 85.98399999999985 C 202.96599999999998 86.88899999999985 201.803 87.72899999999986 200.511 88.50399999999985 C 199.283 89.27999999999984 197.99099999999999 90.05499999999985 196.698 90.70199999999984 C 195.341 91.34799999999984 193.984 91.92899999999985 192.62800000000001 92.51099999999984 C 191.27 93.02799999999984 189.848 93.48099999999984 188.42700000000002 93.86799999999984 C 186.99811139926678 94.25273716874054 185.5534656505761 94.57636450736177 184.097 94.83799999999984 C 182.61100000000002 95.09599999999983 181.125 95.22499999999984 179.703 95.35399999999984 C 178.669 95.41899999999984 177.635 95.48399999999984 176.601 95.48399999999984 C 175.115 95.48399999999984 173.629 95.35399999999984 172.207 95.22399999999983 C 170.721 95.09599999999983 169.23499999999999 94.90199999999983 167.813 94.57899999999984 C 166.327 94.31899999999983 164.905 93.93199999999983 163.48299999999998 93.47999999999983 L 163.41899999999998 93.47999999999983 C 164.84099999999998 93.34999999999984 166.26199999999997 93.22099999999983 167.68399999999997 92.96299999999984 C 169.14184670992069 92.70825265670759 170.58680100136152 92.38455619880976 172.01399999999998 91.99299999999984 C 173.43511275321862 91.60921319455436 174.83676160957666 91.15668084950163 176.21399999999997 90.63699999999986 C 177.63499999999996 90.11999999999985 178.99199999999996 89.47399999999985 180.28399999999996 88.82699999999984 C 181.64199999999997 88.18099999999984 182.86999999999998 87.46999999999984 184.16199999999998 86.69499999999984 C 185.39 85.85499999999983 186.617 85.01499999999983 187.78099999999998 84.10999999999984 C 188.93861044399728 83.20997714030479 190.03907184259413 82.23876568442627 191.07599999999996 81.20199999999984 C 192.17499999999995 80.23199999999984 193.14399999999998 79.13399999999984 194.11299999999997 78.03599999999985 C 195.057676780974 76.90434010966744 195.96288576894412 75.74030939190187 196.82699999999994 74.54599999999985 C 196.95699999999997 74.35299999999985 197.08599999999996 74.09399999999985 197.21499999999997 73.89999999999985 C 197.86099999999996 72.86599999999984 198.50699999999998 71.83199999999985 199.08899999999997 70.79799999999985 C 199.799755364129 69.51702244892098 200.4468754033339 68.20175680967061 201.02799999999996 66.85699999999986 C 201.61164102625747 65.50436868983253 202.12892295416356 64.12406026801354 202.57799999999997 62.720999999999826 C 203.03099999999998 61.36399999999984 203.35399999999998 59.94199999999984 203.67699999999996 58.52099999999984 C 203.93599999999995 57.03499999999984 204.19399999999996 55.612999999999836 204.32299999999995 54.19099999999984 C 204.45299999999995 52.70499999999984 204.58199999999994 51.21899999999984 204.58199999999994 49.79699999999984 C 204.58199999999994 48.76299999999984 204.51699999999994 47.72899999999984 204.45199999999994 46.694999999999844 C 204.32399999999996 45.20899999999985 204.12999999999994 43.78799999999984 203.93599999999995 42.364999999999846 C 203.68121584678246 40.907490624352675 203.3575196108095 39.462871031026 202.96599999999995 38.03599999999983 C 202.51399999999995 36.678999999999846 202.06199999999995 35.257999999999846 201.54499999999996 33.90099999999985 C 201.02799999999996 32.54399999999985 200.38199999999995 31.18699999999985 199.73499999999996 29.89399999999985 C 199.02499999999995 28.601999999999848 198.31399999999996 27.30999999999985 197.53799999999995 26.081999999999848 C 196.7133599391419 24.87108433169073 195.85161803015978 23.6858557153895 194.95399999999995 22.527999999999853 C 193.98090104678948 21.41331782627143 192.9897704613625 20.314506386793713 191.9809999999999 19.231999999999843 C 191.43663733757862 18.67763289541814 190.876404585941 18.139075815718897 190.30099999999993 17.61699999999985 C 187.40614734970447 15.368774577096964 184.4089507274359 13.255520712832126 181.31899999999985 11.28399999999981 C 180.86699999999993 11.024999999999851 180.47899999999993 10.831999999999852 180.02599999999993 10.63799999999985 C 177.89399999999992 9.280999999999851 175.89099999999993 8.569999999999851 173.88799999999992 7.92399999999985 z" stroke-linecap="round" />
</g>
<g transform="matrix(0.5877371228 0 0 0.5877371228 247.1631205674 250)" id="CwHX3krYOd_9ydL5n9AKh"  >
<path style="stroke: none; stroke-width: 1; stroke-dasharray: none; stroke-linecap: butt; stroke-dashoffset: 0; stroke-linejoin: miter; stroke-miterlimit: 4; fill: rgb(224,35,78); fill-rule: evenodd; opacity: 1;"  transform=" translate(-131.1158854461, -128.859)" d="M 153.338 4.24 C 151.529 4.24 149.849 4.628 148.298 5.1450000000000005 C 151.594 7.3420000000000005 153.403 10.25 154.308 13.545000000000002 C 154.373 13.998000000000001 154.50199999999998 14.321000000000002 154.566 14.773000000000001 C 154.631 15.161000000000001 154.696 15.548000000000002 154.696 15.936000000000002 C 154.954 21.623 153.209 22.333000000000002 151.981 25.694000000000003 C 150.107 30.024 150.624 34.676 152.886 38.42400000000001 C 153.07999999999998 38.876000000000005 153.338 39.39300000000001 153.662 39.845000000000006 C 151.20600000000002 23.497000000000007 164.841 21.041000000000007 167.36100000000002 15.936000000000007 C 167.555 11.477000000000007 163.871 8.505000000000006 160.96400000000003 6.4370000000000065 C 158.18400000000003 4.757000000000007 155.66400000000002 4.240000000000006 153.33800000000002 4.240000000000006 z M 173.888 7.923 C 173.62800000000001 9.41 173.823 9.022 173.758 9.797 C 173.69400000000002 10.314 173.69400000000002 10.96 173.62900000000002 11.477 C 173.50000000000003 11.994 173.371 12.511000000000001 173.17700000000002 13.028 C 173.04700000000003 13.545 172.854 14.062000000000001 172.66000000000003 14.579 C 172.40100000000004 15.096 172.20800000000003 15.549000000000001 171.95000000000002 16.065 C 171.75500000000002 16.324 171.626 16.582 171.43200000000002 16.841 L 171.044 17.422 C 170.721 17.875 170.39800000000002 18.327 170.07500000000002 18.715 C 169.687 19.103 169.365 19.555 168.912 19.878 L 168.912 19.943 C 168.524 20.266000000000002 168.137 20.653000000000002 167.684 20.977 C 166.327 22.01 164.776 22.786 163.35399999999998 23.755 C 162.902 24.078 162.45 24.337 162.06199999999998 24.724999999999998 C 161.60999999999999 25.048 161.22199999999998 25.371 160.83499999999998 25.758 C 160.38199999999998 26.146 160.05899999999997 26.534 159.671 26.986 C 159.34799999999998 27.374000000000002 158.96099999999998 27.826 158.702 28.279 C 158.379 28.731 158.056 29.183 157.797 29.636 C 157.539 30.153 157.345 30.605 157.087 31.122 C 156.893 31.639 156.69899999999998 32.092 156.57 32.608 C 156.39744604069742 33.14039075347503 156.24632447617654 33.679491080772436 156.117 34.224000000000004 C 156.053 34.482 156.053 34.805 155.988 35.064 C 155.923 35.322 155.923 35.581 155.859 35.839 C 155.859 36.356 155.794 36.937999999999995 155.794 37.455 C 155.794 37.842 155.794 38.23 155.859 38.617999999999995 C 155.859 39.135 155.924 39.651999999999994 156.053 40.233 C 156.118 40.75 156.24699999999999 41.266999999999996 156.376 41.784 C 156.57 42.301 156.699 42.818 156.893 43.333999999999996 C 157.023 43.657999999999994 157.216 43.980999999999995 157.345 44.239999999999995 L 142.483 38.48799999999999 C 139.963 37.77799999999999 137.507 37.13099999999999 134.987 36.54999999999999 L 130.916 35.57999999999999 C 127.02723037408703 34.80467691501545 123.10241267644338 34.22262912039889 119.15600000000002 33.83599999999998 C 119.026 33.83599999999999 118.961 33.770999999999994 118.832 33.770999999999994 C 114.955 33.382999999999996 111.142 33.18999999999999 107.26499999999999 33.18999999999999 C 104.42199999999998 33.18999999999999 101.57899999999998 33.31899999999999 98.79999999999998 33.51299999999999 C 94.85799999999998 33.770999999999994 90.91599999999998 34.28799999999999 86.97499999999998 34.93399999999999 C 86.00499999999998 35.06399999999999 85.03499999999998 35.25699999999999 84.06699999999998 35.45099999999999 C 82.06299999999997 35.83899999999999 80.12499999999997 36.291 78.25099999999998 36.74399999999999 L 75.34299999999998 37.51899999999999 C 74.37299999999998 37.90699999999999 73.46899999999998 38.358999999999995 72.56399999999998 38.74699999999999 L 70.43199999999997 39.71699999999999 C 70.30199999999998 39.78099999999999 70.17299999999997 39.78099999999999 70.10899999999998 39.84499999999999 C 69.46299999999998 40.16799999999999 68.88099999999999 40.42699999999999 68.29899999999998 40.74999999999999 C 68.10599999999998 40.81499999999999 67.97599999999998 40.879999999999995 67.84699999999998 40.943999999999996 C 67.13699999999999 41.266999999999996 66.42599999999997 41.653999999999996 65.84399999999998 41.977999999999994 C 65.39199999999998 42.172 64.93899999999998 42.42999999999999 64.55199999999998 42.623999999999995 C 64.35799999999998 42.754 64.09899999999998 42.882999999999996 63.96999999999998 42.946999999999996 C 63.38799999999998 43.269999999999996 62.80699999999998 43.592999999999996 62.28999999999998 43.916999999999994 C 61.70799999999998 44.239 61.19099999999998 44.562999999999995 60.738999999999976 44.885999999999996 C 60.28699999999997 45.208999999999996 59.833999999999975 45.467 59.446999999999974 45.79 C 59.38199999999998 45.855 59.31699999999997 45.855 59.25299999999997 45.92 C 58.864999999999974 46.178000000000004 58.41299999999997 46.501000000000005 58.02499999999997 46.824000000000005 L 57.89499999999997 46.95400000000001 L 56.926999999999964 47.729000000000006 C 56.79699999999996 47.793000000000006 56.666999999999966 47.92300000000001 56.538999999999966 47.98700000000001 C 56.215999999999966 48.24600000000001 55.892999999999965 48.56900000000001 55.56899999999997 48.82700000000001 C 55.50499999999997 48.957000000000015 55.37599999999997 49.021000000000015 55.310999999999964 49.08600000000001 C 54.922999999999966 49.47400000000001 54.535999999999966 49.796000000000014 54.14799999999997 50.18400000000001 C 54.08299999999997 50.18400000000001 54.08299999999997 50.24900000000001 54.017999999999965 50.314000000000014 C 53.630999999999965 50.637000000000015 53.24299999999997 51.024000000000015 52.85499999999997 51.41200000000001 C 52.79099999999997 51.47700000000001 52.79099999999997 51.542000000000016 52.72599999999997 51.542000000000016 C 52.3870826279039 51.87104860641243 52.063729826649265 52.21575804263125 51.75699999999997 52.57500000000002 C 51.62699999999997 52.70500000000002 51.43399999999997 52.83400000000002 51.30499999999997 52.963000000000015 C 50.98199999999997 53.35100000000001 50.59399999999997 53.738000000000014 50.205999999999975 54.12600000000001 C 50.14099999999998 54.256000000000014 50.01199999999997 54.320000000000014 49.94799999999997 54.44900000000001 C 49.43099999999997 54.966000000000015 48.97799999999997 55.48300000000001 48.46099999999997 56.000000000000014 L 48.26799999999997 56.19400000000002 C 47.23399999999997 57.292000000000016 46.13499999999997 58.39100000000002 44.97199999999997 59.360000000000014 C 43.82627747095006 60.38238013055204 42.617572416181375 61.33190996495585 41.35299999999997 62.20300000000002 C 40.09985353322367 63.08194799011381 38.80609311516003 63.90151868569398 37.47599999999997 64.65900000000002 C 36.15714623298104 65.38255397969016 34.79791880702837 66.02994822653915 33.40499999999997 66.59800000000001 C 32.030669505587035 67.1817281858662 30.62904899032528 67.69899289983185 29.204999999999973 68.14800000000001 C 26.490999999999975 68.73 23.711999999999975 69.82800000000002 21.320999999999973 70.022 C 20.803999999999974 70.022 20.222999999999974 70.152 19.705999999999975 70.21600000000001 C 19.123999999999974 70.346 18.606999999999974 70.47500000000001 18.089999999999975 70.60400000000001 L 16.539999999999974 71.186 C 16.021999999999974 71.379 15.504999999999974 71.638 14.987999999999975 71.896 C 14.535999999999975 72.219 14.018999999999975 72.478 13.566999999999975 72.801 C 13.113999999999976 73.124 12.661999999999976 73.511 12.273999999999976 73.9 C 11.821999999999976 74.223 11.369999999999976 74.67500000000001 10.981999999999976 75.063 C 10.593999999999976 75.515 10.206999999999976 75.903 9.882999999999976 76.355 C 9.559999999999976 76.872 9.172999999999977 77.325 8.913999999999977 77.84100000000001 C 8.590999999999976 78.29400000000001 8.267999999999976 78.811 8.009999999999977 79.328 C 7.749999999999977 79.909 7.492999999999976 80.426 7.298999999999976 81.00800000000001 C 7.095018727094629 81.56449223402849 6.900987816208039 82.12458146133001 6.7169999999999686 82.68800000000006 C 6.587999999999976 83.20500000000001 6.4589999999999765 83.72200000000002 6.393999999999976 84.23800000000001 C 6.393999999999976 84.30400000000002 6.328999999999976 84.36800000000001 6.328999999999976 84.433 C 6.199999999999976 85.01400000000001 6.199999999999976 85.79 6.134999999999976 86.177 C 6.070999999999976 86.63000000000001 6.005999999999975 87.01700000000001 6.005999999999975 87.47000000000001 C 6.005999999999975 87.72800000000001 6.005999999999975 88.05100000000002 6.070999999999976 88.31000000000002 C 6.135999999999976 88.76200000000001 6.200999999999976 89.15000000000002 6.329999999999976 89.53800000000001 C 6.4589999999999765 89.92500000000001 6.587999999999976 90.31300000000002 6.781999999999976 90.70100000000001 L 6.781999999999976 90.765 C 6.975999999999976 91.153 7.233999999999976 91.541 7.491999999999976 91.929 C 7.751999999999976 92.316 8.009999999999977 92.70400000000001 8.331999999999976 93.092 C 8.655999999999976 93.41499999999999 9.043999999999976 93.80199999999999 9.431999999999976 94.126 C 9.818999999999976 94.513 10.206999999999976 94.836 10.658999999999976 95.16000000000001 C 12.209999999999976 96.51700000000001 12.597999999999976 96.96900000000001 14.600999999999976 98.00300000000001 C 14.923999999999976 98.19700000000002 15.246999999999977 98.32600000000001 15.634999999999977 98.52000000000001 C 15.699999999999976 98.52000000000001 15.763999999999976 98.584 15.828999999999978 98.584 C 15.828999999999978 98.714 15.828999999999978 98.778 15.892999999999978 98.908 C 15.957999999999977 99.425 16.08699999999998 99.94200000000001 16.216999999999977 100.458 C 16.340000483545634 100.99003201375703 16.51276104380847 101.50931811640754 16.732999999999976 102.009 C 16.926999999999975 102.397 17.056999999999977 102.785 17.249999999999975 103.173 C 17.314999999999976 103.302 17.379999999999974 103.431 17.443999999999974 103.496 C 17.702999999999975 104.01299999999999 17.960999999999974 104.46499999999999 18.219999999999974 104.917 L 19.188999999999975 106.274 C 19.511999999999976 106.662 19.898999999999976 107.114 20.287999999999975 107.502 C 20.674999999999976 107.89 21.062999999999974 108.21199999999999 21.514999999999976 108.601 C 21.514999999999976 108.601 21.579999999999977 108.66499999999999 21.644999999999975 108.66499999999999 C 22.031999999999975 108.98799999999999 22.419999999999973 109.312 22.807999999999975 109.57 C 23.259999999999977 109.89299999999999 23.711999999999975 110.15199999999999 24.228999999999974 110.41 C 24.681999999999974 110.669 25.198999999999973 110.92699999999999 25.715999999999973 111.11999999999999 C 26.102999999999973 111.31499999999998 26.555999999999973 111.44399999999999 27.007999999999974 111.573 C 27.072999999999976 111.63799999999999 27.136999999999976 111.63799999999999 27.265999999999973 111.70299999999999 C 27.525999999999975 111.76699999999998 27.847999999999974 111.832 28.105999999999973 111.89599999999999 C 27.912999999999972 115.38599999999998 27.847999999999974 118.68099999999998 28.365999999999975 119.844 C 28.945999999999973 121.137 31.789999999999974 117.195 34.632999999999974 112.672 C 34.244999999999976 117.13 33.98699999999997 122.365 34.632999999999974 123.91499999999999 C 35.34399999999997 125.53099999999999 39.220999999999975 120.49099999999999 42.580999999999975 114.93299999999999 C 88.39699999999998 104.336 130.20599999999996 136 134.59999999999997 180.716 C 133.75999999999996 173.737 125.16499999999996 169.86 121.22299999999997 170.829 C 119.28499999999997 175.61100000000002 115.98899999999998 181.75 110.68999999999997 185.56300000000002 C 111.1528568138143 181.24775406124385 110.93486563853548 176.88658076510887 110.04399999999997 172.639 C 108.62299999999996 178.584 105.84399999999997 184.14100000000002 102.03099999999996 188.923 C 95.89299999999996 189.375 89.75399999999996 186.403 86.52299999999997 181.943 C 86.26399999999997 181.75 86.19999999999997 181.363 86.00599999999997 181.103 C 85.81199999999997 180.651 85.61799999999997 180.199 85.48899999999998 179.747 C 85.30047331953097 179.31372650885416 85.17001135912113 178.8574458895858 85.10099999999997 178.39000000000001 C 85.03599999999997 177.937 85.03599999999997 177.485 85.03599999999997 176.96800000000002 L 85.03599999999997 175.99800000000002 C 85.10099999999997 175.54600000000002 85.22999999999998 175.09400000000002 85.35899999999997 174.64200000000002 C 85.48899999999996 174.18900000000002 85.61799999999997 173.73700000000002 85.81199999999997 173.28500000000003 C 86.06999999999996 172.83200000000002 86.26399999999997 172.38000000000002 86.58699999999997 171.92800000000003 C 87.68599999999998 168.82600000000002 87.68599999999998 166.30600000000004 85.68299999999998 164.82000000000002 C 85.29496225551992 164.56613073935742 84.88380099578394 164.3495009876887 84.45499999999998 164.17300000000003 C 84.19599999999998 164.10900000000004 83.87299999999999 163.98000000000002 83.61499999999998 163.91500000000002 C 83.42099999999998 163.85000000000002 83.29199999999999 163.78500000000003 83.09799999999998 163.72100000000003 C 82.64499999999998 163.59100000000004 82.19299999999998 163.46200000000005 81.74099999999999 163.39800000000002 C 81.29992728672718 163.27036605780026 80.84316709827281 163.20506651722533 80.38399999999999 163.20400000000004 C 79.93099999999998 163.13900000000004 79.41399999999999 163.07400000000004 78.96199999999999 163.07400000000004 C 78.639 163.07400000000004 78.31599999999999 163.14000000000004 77.99199999999999 163.14000000000004 C 77.47599999999998 163.14000000000004 77.02399999999999 163.20400000000004 76.57199999999999 163.33300000000006 C 76.11899999999999 163.39800000000005 75.66699999999999 163.46300000000005 75.21399999999998 163.59200000000004 C 74.76199999999999 163.72200000000004 74.30899999999998 163.85100000000003 73.85699999999999 164.04400000000004 C 73.40499999999999 164.23800000000003 73.01699999999998 164.43200000000004 72.56499999999998 164.62600000000003 C 72.17699999999998 164.82000000000002 71.78899999999999 165.07800000000003 71.33699999999999 165.27200000000002 C 56.28099999999999 175.09400000000002 65.26299999999999 198.09900000000002 75.53699999999999 204.75500000000002 C 71.66 205.46500000000003 67.71799999999999 206.30500000000004 66.61999999999999 207.145 L 66.49 207.275 C 69.27 208.955 72.17699999999999 210.377 75.214 211.60500000000002 C 79.35 212.961 83.744 214.18900000000002 85.68299999999999 214.70600000000002 L 85.68299999999999 214.77100000000002 C 91.03683028447512 215.8687830169732 96.5114989352406 216.25978274927735 101.967 215.93400000000003 C 130.593 213.93100000000004 154.04999999999998 192.15400000000002 158.315 163.46300000000002 C 158.445 164.044 158.57399999999998 164.56100000000004 158.703 165.14300000000003 C 158.897 166.30600000000004 159.155 167.53300000000002 159.284 168.76200000000003 L 159.284 168.82600000000002 C 159.414 169.40800000000002 159.47799999999998 169.99 159.54299999999998 170.50600000000003 L 159.54299999999998 170.76600000000002 C 159.60799999999998 171.34600000000003 159.67299999999997 171.92800000000003 159.67299999999997 172.44600000000003 C 159.73699999999997 173.15600000000003 159.80099999999996 173.866 159.80099999999996 174.57800000000003 L 159.80099999999996 175.61200000000002 C 159.80099999999996 175.93500000000003 159.86599999999996 176.32200000000003 159.86599999999996 176.645 C 159.86599999999996 177.03300000000002 159.80099999999996 177.42100000000002 159.80099999999996 177.809 L 159.80099999999996 178.713 C 159.80099999999996 179.166 159.73599999999996 179.553 159.73599999999996 180.006 C 159.73599999999996 180.264 159.73599999999996 180.523 159.67199999999997 180.846 C 159.67199999999997 181.298 159.60699999999997 181.75 159.60699999999997 182.267 C 159.54199999999997 182.46099999999998 159.54199999999997 182.655 159.54199999999997 182.849 C 159.47799999999998 183.36599999999999 159.41299999999998 183.819 159.34799999999998 184.33499999999998 C 159.34799999999998 184.52899999999997 159.34799999999998 184.72299999999998 159.284 184.91699999999997 C 159.219 185.56299999999996 159.09 186.14499999999998 159.025 186.79099999999997 L 159.025 186.91999999999996 C 158.89600000000002 187.50199999999995 158.767 188.14799999999997 158.637 188.72999999999996 L 158.637 188.92299999999997 L 158.25 190.66799999999998 C 158.25 190.73299999999998 158.185 190.86199999999997 158.185 190.92699999999996 C 158.055 191.50799999999995 157.92600000000002 192.08999999999997 157.733 192.67099999999996 L 157.733 192.86499999999995 C 157.53900000000002 193.51199999999994 157.345 194.09299999999996 157.216 194.67499999999995 C 157.151 194.73899999999995 157.151 194.80399999999995 157.151 194.80399999999995 L 156.56900000000002 196.74199999999993 C 156.311 197.38899999999992 156.11700000000002 197.96999999999994 155.859 198.61599999999993 C 155.60000000000002 199.26299999999992 155.406 199.90899999999993 155.148 200.48999999999992 C 154.889 201.13699999999992 154.631 201.71799999999993 154.37199999999999 202.36399999999992 L 154.308 202.36399999999992 C 154.048 202.9459999999999 153.791 203.59199999999993 153.468 204.17399999999992 C 153.403 204.3679999999999 153.338 204.49699999999993 153.274 204.62599999999992 C 153.209 204.69099999999992 153.209 204.75599999999991 153.144 204.8199999999999 C 148.94400000000002 213.2849999999999 142.741 220.7159999999999 134.986 226.5319999999999 C 134.469 226.8549999999999 133.952 227.2419999999999 133.43599999999998 227.6309999999999 C 133.30599999999998 227.75999999999988 133.11199999999997 227.8239999999999 132.98299999999998 227.9539999999999 C 132.53099999999998 228.2769999999999 132.07799999999997 228.59999999999988 131.56199999999998 228.9229999999999 L 131.755 229.3109999999999 L 131.82 229.3109999999999 L 134.534 228.9229999999999 L 134.599 228.9229999999999 C 136.279 228.6639999999999 137.959 228.3409999999999 139.63899999999998 228.0179999999999 C 140.09099999999998 227.9529999999999 140.60899999999998 227.8239999999999 141.06099999999998 227.69499999999988 C 141.384 227.62999999999988 141.64199999999997 227.5659999999999 141.96499999999997 227.5009999999999 C 142.41799999999998 227.4369999999999 142.86999999999998 227.3069999999999 143.32199999999997 227.24299999999988 C 143.70999999999998 227.1129999999999 144.09799999999998 227.0489999999999 144.48599999999996 226.91999999999987 C 150.94799999999995 225.3689999999999 157.21599999999995 223.23599999999988 163.22599999999997 220.71599999999987 C 152.95099999999996 234.73899999999986 139.18599999999998 246.04699999999985 123.09599999999998 253.47799999999987 C 130.52799999999996 252.96099999999987 137.95899999999997 251.73399999999987 145.13199999999998 249.66599999999985 C 171.17399999999998 241.97599999999986 193.07999999999998 224.46399999999986 206.19699999999997 200.87799999999987 C 203.53453337174489 215.83934355436494 197.59904654568703 230.02755421037133 188.81499999999997 242.42799999999988 C 195.07733321044054 238.29710827762915 200.86351704547837 233.48618802528935 206.06799999999998 228.08299999999986 C 220.54299999999998 212.96199999999988 230.04199999999997 193.76999999999987 233.27299999999997 173.1559999999999 C 235.4773529936631 183.38270643998658 236.10928347620268 193.8857687343629 235.14699999999993 204.30299999999986 C 281.80199999999996 139.23099999999988 239.02399999999997 71.76799999999989 221.12399999999997 53.99799999999988 C 221.05999999999997 53.867999999999874 220.99499999999998 53.803999999999874 220.99499999999998 53.674999999999876 C 220.93099999999998 53.738999999999876 220.93099999999998 53.738999999999876 220.93099999999998 53.803999999999874 C 220.93099999999998 53.738999999999876 220.93099999999998 53.738999999999876 220.86599999999999 53.67399999999987 C 220.86599999999999 54.449999999999875 220.801 55.22499999999987 220.736 56.00099999999987 C 220.54299999999998 57.48699999999987 220.349 58.90899999999987 220.09 60.33099999999987 C 219.767 61.75199999999987 219.38 63.173999999999864 218.992 64.59499999999987 C 218.53222456381488 65.99432291133995 218.0151213674693 67.37415440816909 217.44199999999998 68.73099999999987 C 216.84762637689283 70.07009525649549 216.2004525729186 71.38512573859157 215.50199999999998 72.67299999999986 C 214.79199999999997 73.89999999999986 214.016 75.19299999999986 213.176 76.35599999999985 C 212.34475830680034 77.55798311181424 211.46055414695843 78.72246330722868 210.52599999999998 79.84599999999983 C 209.557 81.00899999999984 208.52399999999997 82.04299999999985 207.48999999999998 83.07599999999985 C 206.88147810827064 83.63311018173198 206.2565356434928 84.17201467643902 205.61599999999999 84.69199999999985 C 205.099 85.14399999999985 204.646 85.53199999999985 204.129 85.98399999999985 C 202.96599999999998 86.88899999999985 201.803 87.72899999999986 200.511 88.50399999999985 C 199.283 89.27999999999984 197.99099999999999 90.05499999999985 196.698 90.70199999999984 C 195.341 91.34799999999984 193.984 91.92899999999985 192.62800000000001 92.51099999999984 C 191.27 93.02799999999984 189.848 93.48099999999984 188.42700000000002 93.86799999999984 C 186.99811139926678 94.25273716874054 185.5534656505761 94.57636450736177 184.097 94.83799999999984 C 182.61100000000002 95.09599999999983 181.125 95.22499999999984 179.703 95.35399999999984 C 178.669 95.41899999999984 177.635 95.48399999999984 176.601 95.48399999999984 C 175.115 95.48399999999984 173.629 95.35399999999984 172.207 95.22399999999983 C 170.721 95.09599999999983 169.23499999999999 94.90199999999983 167.813 94.57899999999984 C 166.327 94.31899999999983 164.905 93.93199999999983 163.48299999999998 93.47999999999983 L 163.41899999999998 93.47999999999983 C 164.84099999999998 93.34999999999984 166.26199999999997 93.22099999999983 167.68399999999997 92.96299999999984 C 169.14184670992069 92.70825265670759 170.58680100136152 92.38455619880976 172.01399999999998 91.99299999999984 C 173.43511275321862 91.60921319455436 174.83676160957666 91.15668084950163 176.21399999999997 90.63699999999986 C 177.63499999999996 90.11999999999985 178.99199999999996 89.47399999999985 180.28399999999996 88.82699999999984 C 181.64199999999997 88.18099999999984 182.86999999999998 87.46999999999984 184.16199999999998 86.69499999999984 C 185.39 85.85499999999983 186.617 85.01499999999983 187.78099999999998 84.10999999999984 C 188.93861044399728 83.20997714030479 190.03907184259413 82.23876568442627 191.07599999999996 81.20199999999984 C 192.17499999999995 80.23199999999984 193.14399999999998 79.13399999999984 194.11299999999997 78.03599999999985 C 195.057676780974 76.90434010966744 195.96288576894412 75.74030939190187 196.82699999999994 74.54599999999985 C 196.95699999999997 74.35299999999985 197.08599999999996 74.09399999999985 197.21499999999997 73.89999999999985 C 197.86099999999996 72.86599999999984 198.50699999999998 71.83199999999985 199.08899999999997 70.79799999999985 C 199.799755364129 69.51702244892098 200.4468754033339 68.20175680967061 201.02799999999996 66.85699999999986 C 201.61164102625747 65.50436868983253 202.12892295416356 64.12406026801354 202.57799999999997 62.720999999999826 C 203.03099999999998 61.36399999999984 203.35399999999998 59.94199999999984 203.67699999999996 58.52099999999984 C 203.93599999999995 57.03499999999984 204.19399999999996 55.612999999999836 204.32299999999995 54.19099999999984 C 204.45299999999995 52.70499999999984 204.58199999999994 51.21899999999984 204.58199999999994 49.79699999999984 C 204.58199999999994 48.76299999999984 204.51699999999994 47.72899999999984 204.45199999999994 46.694999999999844 C 204.32399999999996 45.20899999999985 204.12999999999994 43.78799999999984 203.93599999999995 42.364999999999846 C 203.68121584678246 40.907490624352675 203.3575196108095 39.462871031026 202.96599999999995 38.03599999999983 C 202.51399999999995 36.678999999999846 202.06199999999995 35.257999999999846 201.54499999999996 33.90099999999985 C 201.02799999999996 32.54399999999985 200.38199999999995 31.18699999999985 199.73499999999996 29.89399999999985 C 199.02499999999995 28.601999999999848 198.31399999999996 27.30999999999985 197.53799999999995 26.081999999999848 C 196.7133599391419 24.87108433169073 195.85161803015978 23.6858557153895 194.95399999999995 22.527999999999853 C 193.98090104678948 21.41331782627143 192.9897704613625 20.314506386793713 191.9809999999999 19.231999999999843 C 191.43663733757862 18.67763289541814 190.876404585941 18.139075815718897 190.30099999999993 17.61699999999985 C 187.40614734970447 15.368774577096964 184.4089507274359 13.255520712832126 181.31899999999985 11.28399999999981 C 180.86699999999993 11.024999999999851 180.47899999999993 10.831999999999852 180.02599999999993 10.63799999999985 C 177.89399999999992 9.280999999999851 175.89099999999993 8.569999999999851 173.88799999999992 7.92399999999985 z" stroke-linecap="round" />
</g>
<g transform="matrix(1 0 0 1 197.6828295121 271.3384008255)" id="LNxwOUoddiNHFuFlqftqe"  >
<path style="stroke: rgb(0,0,0); stroke-width: 1; stroke-dasharray: none; stroke-linecap: butt; stroke-dashoffset: 0; stroke-linejoin: miter; stroke-miterlimit: 4; fill: rgb(255,255,255); fill-opacity: 0; fill-rule: nonzero; opacity: 1;"  transform=" translate(0, 0)" d="M -3.9272 -2.96935 L -5.45977 0.8620700000000001 L -3.9272 3.9272 L 0.09579000000000004 5.07663 L 4.69349 3.9272 L 5.45977 0.8620700000000001 L 4.69349 -2.96935 L 1.4367899999999998 -5.07663 L -2.0114900000000002 -5.07663 z" stroke-linecap="round" />
</g>
<g transform="matrix(4.1973816473 0.0732655692 -0.0732655692 4.1973816473 266.2144750635 235.2176410122)" id="p1srYRs4fblm01nZWhbnK"  >
<path style="stroke: none; stroke-width: 1; stroke-dasharray: none; stroke-linecap: butt; stroke-dashoffset: 0; stroke-linejoin: miter; stroke-miterlimit: 4; fill: rgb(255,255,255); fill-rule: nonzero; opacity: 1;"  transform=" translate(-14.1528163231, -14.1533005784)" d="M 12.486 8.162 C 13.084000000000001 6.0230000000000015 12.541 3.6320000000000006 10.863000000000001 1.9490000000000007 C 9.189 0.283 6.824 -0.263 4.699 0.314 L 8.301 3.9170000000000003 L 7.355 7.443 L 3.824 8.387 L 0.21999999999999975 4.787000000000001 C -0.3540000000000002 6.914000000000001 0.19299999999999976 9.277000000000001 1.8649999999999998 10.949000000000002 C 3.6129999999999995 12.700000000000001 6.135999999999999 13.215000000000002 8.342 12.496000000000002 L 8.363000000000001 12.516000000000002 L 23.181 27.334000000000003 C 23.767 27.919000000000004 24.536 28.215000000000003 25.304000000000002 28.215000000000003 C 26.074 28.215000000000003 26.839000000000002 27.919000000000004 27.427000000000003 27.334000000000003 C 28.599000000000004 26.164 28.599000000000004 24.265000000000004 27.427000000000003 23.088 L 12.486 8.162 z M 25.562 26.831 C 24.931 26.831 24.421 26.317999999999998 24.421 25.684 C 24.421 25.050000000000004 24.931 24.538 25.561999999999998 24.538 C 26.198999999999998 24.538 26.714 25.05 26.714 25.684 C 26.714 26.318 26.199 26.831 25.562 26.831 z" stroke-linecap="round" />
</g>
<g transform="matrix(0.2651398309 0 0 0.2651398309 247.1631205674 305.7902863868)" id="bd7XUAHa6tYjMEg37FHM1"  >
<path style="stroke: none; stroke-width: 1; stroke-dasharray: none; stroke-linecap: butt; stroke-dashoffset: 0; stroke-linejoin: miter; stroke-miterlimit: 4; fill: rgb(241,241,241); fill-rule: nonzero; opacity: 1;"  transform=" translate(-128.0044124185, -128.0005464232)" d="M 234.80957 150.40576 L 219.93164000000002 130.57075999999998 C 219.9541 128.81831999999997 219.93604000000002 126.94868999999998 219.91016000000002 125.45698999999998 L 234.80273000000003 105.60098999999997 C 236.27966581207562 103.63194094737743 236.76807154534265 101.09266782344972 236.12695000000002 98.71622999999997 C 233.6296761414848 89.4617503281311 229.94908054396018 80.56805429552284 225.17627 72.25528999999997 C 223.94962504457467 70.12003024805804 221.80792725682142 68.66869677152708 219.37012000000001 68.32071999999998 L 194.88281 64.82364999999999 Q 193.08471 62.92082999999999 191.17969 61.12003999999999 L 187.68358999999998 36.64346999999999 C 187.335419408892 34.20678020079357 185.8849470322348 32.06600924616802 183.75097999999997 30.839279999999995 C 175.44155645498427 26.061222465682807 166.5504762467848 22.375040336891875 157.29784999999993 19.871990000000004 C 154.92057328907887 19.22949292339838 152.37986838660072 19.71738920510893 150.40966999999998 21.194739999999996 L 130.62207 36.0376 C 128.87793000000002 35.989259999999994 127.12891 35.989259999999994 125.38477 36.0376 L 105.60547 21.202149999999996 C 103.63607910879534 19.72553745024158 101.09674012320981 19.237335233420556 98.72021 19.87842 C 89.46573499498498 22.375473671468868 80.57203504073802 26.055907590533522 72.25927999999993 30.82861000000003 C 70.12403251992635 32.05536411822426 68.67258077860681 34.196973405599735 68.32422 36.63477 L 64.82764 61.12158 Q 62.92553 62.91967 61.12402 64.82568 L 36.64746 68.32129 C 34.21082578620486 68.66926848361315 32.07003554198766 70.11957439019697 30.84326 72.25342 C 26.06513823284105 80.56315083489044 22.378964402401266 89.45456137205622 19.87599999999999 98.70751999999997 C 19.23327312823528 101.08470041897839 19.72138920291536 103.62542788067336 21.19924 105.59521000000001 L 36.077169999999995 125.43021000000002 C 36.05470999999999 127.18265000000002 36.07277 129.05228000000002 36.09864999999999 130.54398 L 21.20606999999999 150.39998 C 19.729142974899716 152.36903692071226 19.240741595768693 154.90831027086057 19.88185999999999 157.28475 C 22.37913565498225 166.53922906059577 26.05973115909874 175.4329248674951 30.832539999999952 183.74568999999994 C 32.05918495542533 185.88094975194193 34.200882743178575 187.3322832284729 36.63868999999999 187.68026 L 61.126 191.17725 Q 62.924099999999996 193.08007999999998 64.82912 194.88085999999998 L 68.32522 219.35742 C 68.67338769640145 221.79411347910923 70.12386043983395 223.93488866338402 72.25783 225.16162 C 80.56725354501572 229.93967753431718 89.45833375321513 233.62585966310812 98.71096 236.12890999999996 C 101.08822616444571 236.7717290844677 103.62907482070224 236.2838015087438 105.59914 234.80615 L 125.38674 219.96338 C 127.13088 220.0127 128.8799 220.0127 130.62404 219.96338 L 150.40334000000001 234.79883 C 152.37246804206978 236.2760277084898 154.91208666190147 236.76428439570228 157.28859000000003 236.12256000000002 C 166.54306918902995 233.62550471623504 175.43677266481754 229.9450673696945 183.74953000000005 225.17236000000003 C 185.88477809543352 223.94561135763152 187.33623063570235 221.80400457992496 187.68459000000001 219.36621000000002 L 191.18947000000003 194.82080000000002 C 192.44436000000002 193.59717 193.75295000000003 192.26270000000002 194.79006000000004 191.18945000000002 L 219.36135000000004 187.67969000000002 C 221.7979842137952 187.33171151638686 223.9387744580124 185.88140560980307 225.16555000000005 183.74756000000002 C 229.94367870468488 175.43783017213164 233.6298592736751 166.54641959538668 236.13283000000007 157.29345999999998 C 236.77555140714713 154.91627332089263 236.28742801373554 152.37554247676445 234.80957 150.40576 Z M 128.00391 172 C 103.70338100744507 172 84.00390999999999 152.30052899255492 84.00390999999999 128 C 84.00390999999999 103.69947100744508 103.70338100744507 84 128.00391 84 C 152.3044389925549 84 172.00391 103.69947100744507 172.00391 127.99999999999999 C 171.9764766607437 152.28915665621795 152.29306665621795 171.97256666074372 128.00391 172 Z" stroke-linecap="round" />
</g>
<g transform="matrix(0.1744089548 0 0 0.1744089548 197.6828295121 276.915029178)" id="ELeQIRmaBo9CttKPDCgnS"  >
<path style="stroke: none; stroke-width: 1; stroke-dasharray: none; stroke-linecap: butt; stroke-dashoffset: 0; stroke-linejoin: miter; stroke-miterlimit: 4; fill: rgb(255,255,255); fill-opacity: 0.97; fill-rule: nonzero; opacity: 1;"  transform=" translate(-128.0044124185, -128.0005464232)" d="M 234.80957 150.40576 L 219.93164000000002 130.57075999999998 C 219.9541 128.81831999999997 219.93604000000002 126.94868999999998 219.91016000000002 125.45698999999998 L 234.80273000000003 105.60098999999997 C 236.27966581207562 103.63194094737743 236.76807154534265 101.09266782344972 236.12695000000002 98.71622999999997 C 233.6296761414848 89.4617503281311 229.94908054396018 80.56805429552284 225.17627 72.25528999999997 C 223.94962504457467 70.12003024805804 221.80792725682142 68.66869677152708 219.37012000000001 68.32071999999998 L 194.88281 64.82364999999999 Q 193.08471 62.92082999999999 191.17969 61.12003999999999 L 187.68358999999998 36.64346999999999 C 187.335419408892 34.20678020079357 185.8849470322348 32.06600924616802 183.75097999999997 30.839279999999995 C 175.44155645498427 26.061222465682807 166.5504762467848 22.375040336891875 157.29784999999993 19.871990000000004 C 154.92057328907887 19.22949292339838 152.37986838660072 19.71738920510893 150.40966999999998 21.194739999999996 L 130.62207 36.0376 C 128.87793000000002 35.989259999999994 127.12891 35.989259999999994 125.38477 36.0376 L 105.60547 21.202149999999996 C 103.63607910879534 19.72553745024158 101.09674012320981 19.237335233420556 98.72021 19.87842 C 89.46573499498498 22.375473671468868 80.57203504073802 26.055907590533522 72.25927999999993 30.82861000000003 C 70.12403251992635 32.05536411822426 68.67258077860681 34.196973405599735 68.32422 36.63477 L 64.82764 61.12158 Q 62.92553 62.91967 61.12402 64.82568 L 36.64746 68.32129 C 34.21082578620486 68.66926848361315 32.07003554198766 70.11957439019697 30.84326 72.25342 C 26.06513823284105 80.56315083489044 22.378964402401266 89.45456137205622 19.87599999999999 98.70751999999997 C 19.23327312823528 101.08470041897839 19.72138920291536 103.62542788067336 21.19924 105.59521000000001 L 36.077169999999995 125.43021000000002 C 36.05470999999999 127.18265000000002 36.07277 129.05228000000002 36.09864999999999 130.54398 L 21.20606999999999 150.39998 C 19.729142974899716 152.36903692071226 19.240741595768693 154.90831027086057 19.88185999999999 157.28475 C 22.37913565498225 166.53922906059577 26.05973115909874 175.4329248674951 30.832539999999952 183.74568999999994 C 32.05918495542533 185.88094975194193 34.200882743178575 187.3322832284729 36.63868999999999 187.68026 L 61.126 191.17725 Q 62.924099999999996 193.08007999999998 64.82912 194.88085999999998 L 68.32522 219.35742 C 68.67338769640145 221.79411347910923 70.12386043983395 223.93488866338402 72.25783 225.16162 C 80.56725354501572 229.93967753431718 89.45833375321513 233.62585966310812 98.71096 236.12890999999996 C 101.08822616444571 236.7717290844677 103.62907482070224 236.2838015087438 105.59914 234.80615 L 125.38674 219.96338 C 127.13088 220.0127 128.8799 220.0127 130.62404 219.96338 L 150.40334000000001 234.79883 C 152.37246804206978 236.2760277084898 154.91208666190147 236.76428439570228 157.28859000000003 236.12256000000002 C 166.54306918902995 233.62550471623504 175.43677266481754 229.9450673696945 183.74953000000005 225.17236000000003 C 185.88477809543352 223.94561135763152 187.33623063570235 221.80400457992496 187.68459000000001 219.36621000000002 L 191.18947000000003 194.82080000000002 C 192.44436000000002 193.59717 193.75295000000003 192.26270000000002 194.79006000000004 191.18945000000002 L 219.36135000000004 187.67969000000002 C 221.7979842137952 187.33171151638686 223.9387744580124 185.88140560980307 225.16555000000005 183.74756000000002 C 229.94367870468488 175.43783017213164 233.6298592736751 166.54641959538668 236.13283000000007 157.29345999999998 C 236.77555140714713 154.91627332089263 236.28742801373554 152.37554247676445 234.80957 150.40576 Z M 128.00391 172 C 103.70338100744507 172 84.00390999999999 152.30052899255492 84.00390999999999 128 C 84.00390999999999 103.69947100744508 103.70338100744507 84 128.00391 84 C 152.3044389925549 84 172.00391 103.69947100744507 172.00391 127.99999999999999 C 171.9764766607437 152.28915665621795 152.29306665621795 171.97256666074372 128.00391 172 Z" stroke-linecap="round" />
</g>
</svg>
