<?xml version="1.0" standalone="no"?>
<!DOCTYPE svg PUBLIC "-//W3C//DTD SVG 20010904//EN"
 "http://www.w3.org/TR/2001/REC-SVG-20010904/DTD/svg10.dtd">
<svg version="1.0" xmlns="http://www.w3.org/2000/svg"
 width="768.000000pt" height="768.000000pt" viewBox="0 0 768.000000 768.000000"
 preserveAspectRatio="xMidYMid meet">

<g transform="translate(0.000000,768.000000) scale(0.100000,-0.100000)"
fill="#E0234E" stroke="none">
<path d="M0 3840 l0 -3840 3840 0 3840 0 0 1427 c0 1326 -1 1428 -17 1445 -13
14 -13 17 -2 13 11 -4 14 6 13 52 -2 79 -1 78 -24 58 -11 -10 -17 -22 -14 -26
3 -5 0 -9 -5 -9 -17 0 -13 8 19 49 l31 38 -3 124 -3 124 -42 -105 c-40 -102
-64 -183 -78 -265 l-6 -40 31 35 31 35 -25 -35 c-14 -19 -55 -64 -92 -100
l-67 -65 7 55 c11 84 61 287 91 365 33 88 112 235 131 242 8 3 12 9 9 13 -3 5
-1 11 5 15 7 4 10 699 10 2121 l0 2114 -1070 0 c-846 0 -1070 -3 -1070 -13 0
-9 -2 -9 -8 0 -5 9 -129 12 -491 12 -419 0 -487 -2 -513 -15 -28 -14 -34 -14
-72 0 -33 13 -83 16 -239 16 l-198 0 -74 -36 c-40 -20 -93 -38 -117 -41 l-43
-5 40 24 c22 13 58 31 80 40 39 17 34 17 -190 17 l-230 1 45 -26 c24 -14 57
-28 72 -31 33 -7 36 -19 6 -26 -25 -7 -43 2 -105 49 -41 31 -50 34 -115 34
-52 0 -69 -3 -65 -12 3 -7 8 -22 12 -33 7 -20 6 -20 -9 -1 -9 11 -16 26 -16
33 0 11 -67 13 -369 13 l-369 -1 4 -22 c5 -22 4 -22 -7 1 l-12 22 -1279 0
-1278 0 0 -3840z m5430 3790 c0 -11 -4 -20 -10 -20 -5 0 -10 9 -10 20 0 11 5
20 10 20 6 0 10 -9 10 -20z m-1121 -17 l73 -27 -68 -34 c-38 -19 -77 -41 -86
-49 -16 -14 -25 -12 -98 18 -44 18 -80 35 -80 38 1 8 152 79 170 80 8 1 48
-11 89 -26z m604 0 l78 -18 -91 -62 -91 -62 -89 52 c-49 29 -90 54 -90 57 0 3
30 18 68 32 73 29 90 29 215 1z m-1570 -30 c-7 -2 -21 -2 -30 0 -10 3 -4 5 12
5 17 0 24 -2 18 -5z m47 -28 c0 -7 -10 -15 -22 -19 -37 -9 -118 -7 -118 4 0 6
29 10 67 10 52 0 64 3 55 12 -17 17 -15 33 3 18 8 -7 15 -18 15 -25z m2054
-139 c-42 -81 -78 -145 -81 -143 -2 3 26 65 64 139 76 148 84 161 88 156 2 -2
-30 -70 -71 -152z m-1710 119 c3 -9 18 -15 37 -15 l31 0 -51 -40 c-28 -22 -53
-40 -56 -40 -3 0 -5 18 -5 40 0 22 5 40 10 40 6 0 10 7 10 15 0 8 4 15 9 15 5
0 11 -7 15 -15z m1689 8 c-7 -2 -19 -2 -25 0 -7 3 -2 5 12 5 14 0 19 -2 13 -5z
m-103 -10 c-25 -3 -49 -9 -55 -15 -7 -7 -3 -8 12 -4 12 4 24 2 27 -3 10 -16
14 -131 4 -137 -4 -3 -6 -8 -4 -12 6 -10 -16 -37 -38 -45 -11 -5 -16 -13 -12
-23 5 -14 1 -15 -31 -10 -99 18 -247 73 -291 109 -10 7 16 25 100 71 118 63
157 73 273 73 49 0 52 -1 15 -4z m-710 -55 c41 -24 76 -50 78 -59 4 -20 -136
-77 -209 -86 -41 -5 -53 -2 -72 15 -12 11 -44 32 -70 46 -26 13 -49 28 -50 31
-3 9 202 93 228 94 11 1 54 -18 95 -41z m-973 -11 c-2 -23 -6 -48 -11 -55 -8
-14 -47 -7 -88 16 -22 13 -32 13 -53 4 -14 -7 -45 -12 -68 -11 l-42 1 60 20
c33 11 68 20 77 20 9 -1 39 10 65 24 26 13 51 24 55 24 4 0 6 -19 5 -43z m337
8 c11 -8 25 -15 32 -15 7 0 25 -5 41 -11 l28 -12 -35 -8 c-36 -9 -67 0 -102
29 -34 28 1 43 36 17z m-684 -25 c-17 -11 -100 -14 -100 -2 0 4 26 8 58 10 41
2 53 0 42 -8z m2122 -22 c-5 -7 -17 -29 -26 -48 -10 -22 -14 -26 -10 -10 7 28
31 70 40 70 4 0 2 -6 -4 -12z m-1572 -43 c0 -18 -5 -25 -19 -25 -26 0 -36 17
-21 35 19 23 40 18 40 -10z m90 6 c0 -5 -13 -14 -30 -20 -32 -11 -41 2 -12 18
21 13 42 14 42 2z m74 -3 c-5 -8 -2 -9 9 -5 22 8 226 -29 263 -48 16 -8 36
-15 45 -15 8 0 24 -8 35 -19 11 -10 30 -22 42 -25 12 -4 32 -25 45 -47 12 -22
28 -37 35 -34 6 2 12 -1 12 -7 0 -7 10 -22 22 -35 24 -25 9 -32 -16 -7 -17 17
-19 14 -10 -10 3 -9 12 -16 20 -16 8 0 15 -11 15 -27 l2 -28 4 28 c6 36 23 35
23 -3 0 -16 -4 -30 -10 -30 -16 0 -12 -15 10 -40 11 -13 20 -29 20 -37 0 -26
-22 -103 -30 -103 -4 0 -13 -13 -20 -30 -7 -16 -33 -50 -57 -75 -42 -41 -55
-49 -75 -46 -4 0 -4 -7 -1 -16 4 -10 2 -14 -4 -10 -6 4 -14 1 -16 -5 -4 -10
-8 -9 -17 2 -10 13 -11 12 -6 -3 4 -13 -2 -21 -22 -30 -15 -6 -29 -14 -32 -18
-5 -7 -82 -25 -142 -34 -38 -6 -49 -19 -25 -28 6 -3 2 -6 -10 -6 -16 -1 -21 3
-17 14 4 8 1 15 -5 15 -6 0 -11 -6 -12 -12 0 -10 -2 -10 -6 0 -3 9 -40 12
-135 12 -116 0 -136 3 -176 23 l-45 22 72 3 c47 2 78 -1 88 -9 12 -10 17 -10
25 2 8 11 9 11 4 -3 -4 -13 0 -18 13 -18 10 0 40 -3 67 -6 33 -4 44 -2 35 4
-7 5 -22 7 -32 5 -10 -3 -19 0 -19 6 0 6 -6 11 -14 11 -7 0 -19 7 -27 16 -8
10 -21 13 -37 9 -15 -4 -21 -2 -17 4 3 6 -12 19 -35 28 -23 10 -40 24 -39 33
2 28 -1 33 -15 21 -36 -30 -138 128 -138 214 0 22 -6 43 -12 47 -8 5 -7 8 2 8
7 0 11 4 8 8 -3 5 1 9 8 9 8 0 12 -8 9 -21 -3 -14 1 -11 12 9 9 17 17 46 18
65 2 33 55 133 67 125 3 -2 16 12 30 31 14 18 38 38 53 45 15 6 33 19 40 29
13 19 69 50 89 50 9 0 9 -3 -2 -10 -11 -7 -12 -10 -2 -10 8 0 16 9 19 20 3 11
10 20 15 20 5 0 6 -5 2 -12z m-309 -76 c-8 -8 -25 10 -19 20 4 6 9 5 15 -3 4
-7 6 -15 4 -17z m1669 4 c-3 -9 -10 -16 -15 -16 -5 0 -9 -6 -9 -14 0 -21 -20
-30 -33 -17 -9 9 -8 11 6 6 10 -4 17 -2 17 4 0 14 31 63 37 58 2 -2 1 -12 -3
-21z m-1614 -26 c-18 -23 -34 -39 -36 -37 -2 1 -1 20 3 40 5 33 9 37 35 37
l30 0 -32 -40z m1269 -45 c77 -33 141 -63 141 -67 0 -9 -147 -65 -221 -84 -68
-17 -89 -14 -89 15 0 10 -14 48 -31 84 -29 63 -29 67 -15 101 15 35 16 36 44
24 17 -7 93 -40 171 -73z m-1449 64 c0 -4 -5 -11 -10 -14 -6 -4 -28 -41 -49
-84 l-39 -77 -134 -12 c-211 -19 -190 -25 -229 70 -19 45 -36 87 -38 92 -3 8
0 8 10 0 8 -5 20 -9 27 -8 6 1 19 2 27 3 12 1 13 5 6 19 -8 16 5 17 210 18
120 1 219 -2 219 -7z m1120 -40 c0 -6 -14 -37 -32 -68 -57 -101 -78 -118 -78
-64 0 12 -16 41 -36 63 -41 45 -43 44 61 64 90 18 85 18 85 5z m-1058 -39 c3
-42 3 -50 -2 -49 -3 0 -17 -4 -32 -10 -34 -13 -34 -10 -6 40 24 43 37 49 40
19z m1148 -60 c11 -23 18 -44 16 -49 -3 -4 4 -18 15 -30 12 -12 19 -24 16 -27
-13 -13 -82 -15 -122 -4 -45 12 -55 23 -35 35 6 4 25 31 41 61 17 30 35 54 40
54 5 0 18 -18 29 -40z m-1257 5 c-3 -9 -8 -14 -10 -11 -3 3 -2 9 2 15 9 16 15
13 8 -4z m97 -19 c0 -2 -7 -7 -16 -10 -8 -3 -12 -2 -9 4 6 10 25 14 25 6z m6
-89 c-1 -12 -6 -21 -9 -19 -4 1 -25 2 -47 2 -55 0 -53 24 3 37 51 11 58 9 53
-20z m1632 -37 c-5 -30 -9 -74 -8 -98 l1 -43 -46 2 c-25 2 -44 6 -43 10 6 13
103 187 104 186 1 -1 -2 -27 -8 -57z m-48 36 c0 -3 -17 -31 -38 -63 -21 -32
-43 -65 -48 -74 -8 -15 -15 -15 -74 8 -69 25 -107 49 -98 59 5 5 226 69 251
73 4 1 7 -1 7 -3z m-2070 -61 c25 -27 12 -35 -14 -9 -14 14 -22 34 -13 34 2 0
14 -11 27 -25z m193 -13 l-48 -39 -37 30 c-21 17 -38 34 -38 39 0 4 39 8 86 8
l86 0 -49 -38z m117 18 c-6 -11 -14 -20 -18 -20 -4 0 -8 -28 -10 -62 -1 -34
-4 -63 -6 -65 -2 -2 -19 10 -37 26 l-33 31 35 37 c20 21 42 46 50 55 19 24 32
22 19 -2z m184 -46 c10 -76 41 -135 105 -201 13 -13 21 -26 19 -28 -2 -2 -32
-5 -68 -6 -57 -3 -71 1 -110 26 -25 15 -47 31 -50 35 -3 3 -20 12 -37 19 -18
8 -33 18 -33 23 0 15 31 162 36 170 3 5 34 8 68 8 l63 0 7 -46z m1286 -6 c0
-6 -7 -5 -15 2 -8 7 -15 17 -15 22 0 6 7 5 15 -2 8 -7 15 -17 15 -22z m-66
-13 c9 -14 33 -33 51 -42 40 -19 41 -24 19 -58 -9 -14 -14 -31 -11 -38 10 -26
-21 -46 -123 -82 -124 -43 -256 -75 -309 -75 -35 0 -39 -3 -43 -29 -2 -16 -1
-39 4 -50 5 -16 3 -23 -8 -28 -23 -8 -25 -1 -26 77 -1 81 11 104 36 69 l16
-23 0 22 c0 12 -6 22 -12 22 -7 0 -2 7 10 16 12 8 19 20 16 26 -4 6 -3 8 3 5
13 -8 55 31 47 44 -3 5 2 22 12 37 10 14 23 45 30 67 7 22 13 32 13 23 1 -11
6 -15 15 -12 8 3 63 16 123 28 59 13 111 24 114 25 4 0 14 -10 23 -24z m-2267
-37 c-3 -8 -6 -5 -6 6 -1 11 2 17 5 13 3 -3 4 -12 1 -19z m340 -80 c-2 -13 -4
-5 -4 17 -1 22 1 32 4 23 2 -10 2 -28 0 -40z m329 11 c120 -73 154 -99 154
-119 0 -23 -15 -28 -118 -39 -85 -9 -83 -11 -101 89 -7 36 -15 75 -18 88 -7
31 5 28 83 -19z m1762 18 c22 -13 22 -13 -19 -45 -48 -36 -64 -34 -43 6 7 15
14 33 14 40 0 15 18 15 48 -1z m1022 -42 c13 8 16 -16 9 -80 l-6 -60 -1 63
c-2 48 -5 62 -17 62 -8 0 -15 -3 -15 -7 0 -5 -25 -35 -55 -67 -49 -54 -56 -58
-72 -45 -17 13 -17 13 -4 -4 10 -12 11 -21 4 -28 -7 -7 -12 -2 -15 15 -4 19 4
38 30 71 19 25 37 43 40 40 3 -3 -5 -17 -19 -31 -13 -14 -24 -29 -24 -32 0 -4
-4 -6 -8 -4 -5 1 -6 -2 -2 -8 8 -13 32 0 64 33 12 14 20 30 16 37 -3 6 -1 9 6
8 7 -2 22 11 33 28 13 20 22 26 24 18 2 -8 7 -12 12 -9z m-5610 11 c0 -3 -4
-8 -10 -11 -5 -3 -10 -1 -10 4 0 6 5 11 10 11 6 0 10 -2 10 -4z m25 -6 c3 -5
1 -10 -4 -10 -6 0 -11 5 -11 10 0 6 2 10 4 10 3 0 8 -4 11 -10z m4620 -40 c-8
-16 -15 -38 -15 -49 0 -11 -4 -23 -10 -26 -5 -3 -10 2 -10 11 0 16 -1 16 -14
-2 -8 -10 -17 -16 -21 -12 -6 6 71 108 82 108 2 0 -3 -13 -12 -30z m-4618 -34
c-2 -6 -9 -1 -16 12 -6 12 -9 28 -5 34 8 13 27 -28 21 -46z m5557 -24 c-53
-57 -98 -101 -101 -98 -2 2 19 26 47 54 27 28 50 55 50 62 0 6 5 8 10 5 6 -4
4 -13 -6 -23z m-5574 -66 c0 -4 -18 10 -40 30 -22 21 -40 40 -40 44 0 4 18
-10 40 -30 22 -20 40 -40 40 -44z m11 47 c13 -16 12 -17 -3 -4 -17 13 -22 21
-14 21 2 0 10 -8 17 -17z m2483 -222 c-4 -9 -7 -50 -6 -91 l0 -75 -8 80 c-5
47 -4 81 1 83 5 2 10 58 11 125 l2 122 3 -114 c2 -63 1 -122 -3 -130z m593
226 c3 -4 -13 -7 -36 -7 -25 0 -40 4 -36 10 6 10 60 8 72 -3z m261 -14 c-10
-2 -28 -2 -40 0 -13 2 -5 4 17 4 22 1 32 -1 23 -4z m-3174 -19 c3 -8 2 -12 -4
-9 -6 3 -10 10 -10 16 0 14 7 11 14 -7z m5416 13 c0 -2 -17 -19 -37 -38 l-37
-34 30 37 c25 31 44 46 44 35z m-2197 -14 c-7 -2 -19 -2 -25 0 -7 3 -2 5 12 5
14 0 19 -2 13 -5z m1132 -3 c-3 -5 -14 -10 -23 -9 -14 0 -13 2 3 9 27 11 27
11 20 0z m81 -17 c-10 -10 -19 5 -10 18 6 11 8 11 12 0 2 -7 1 -15 -2 -18z
m-2425 -27 c5 3 9 -11 9 -30 0 -20 -4 -36 -10 -36 -5 0 -10 11 -10 24 0 14 -4
28 -10 31 -5 3 -10 18 -9 33 l1 27 10 -28 c5 -15 14 -25 19 -21z m366 4 c16
-29 18 -51 15 -127 -3 -74 -7 -91 -18 -86 -11 4 -14 28 -13 112 0 58 -3 115
-7 126 -10 28 0 16 23 -25z m1386 20 c6 -25 0 -29 -56 -36 -28 -4 -47 -2 -51
5 -4 6 0 11 11 11 10 0 32 9 48 19 38 25 42 25 48 1z m-4056 -42 c-2 -13 -4
-5 -4 17 -1 22 1 32 4 23 2 -10 2 -28 0 -40z m5730 0 c-2 -13 -4 -5 -4 17 -1
22 1 32 4 23 2 -10 2 -28 0 -40z m-5662 22 c10 -11 16 -20 13 -20 -3 0 -13 9
-23 20 -10 11 -16 20 -13 20 3 0 13 -9 23 -20z m4400 11 c-21 -20 -195 -73
-220 -67 -36 9 -31 24 13 34 173 42 225 50 207 33z m1069 -7 c3 -9 6 -40 6
-69 0 -30 5 -57 10 -60 6 -3 10 -2 10 3 0 6 8 13 18 16 11 4 9 -1 -8 -17 -29
-27 -38 -52 -15 -44 9 4 15 1 15 -9 0 -8 -4 -13 -9 -9 -6 3 -10 -16 -9 -46 l0
-51 61 58 c76 73 68 66 95 88 22 19 22 19 22 -2 0 -13 -5 -19 -13 -17 -7 3
-46 -29 -87 -70 -61 -61 -72 -77 -60 -85 13 -8 12 -10 -2 -10 -11 0 -18 -8
-18 -20 0 -11 4 -20 9 -20 5 0 39 27 75 60 37 33 70 60 74 60 7 -1 -27 -34
-112 -107 -26 -23 -46 -48 -44 -55 3 -7 23 5 54 32 l49 44 -52 -55 c-49 -51
-67 -89 -42 -89 6 0 3 -7 -5 -16 -20 -19 -20 -34 -2 -34 8 0 27 16 42 35 14
19 31 32 37 28 5 -3 7 -1 4 4 -4 6 14 36 41 68 46 55 47 56 50 28 3 -23 -9
-40 -88 -114 -65 -60 -89 -89 -80 -94 8 -5 18 -1 27 10 7 11 13 14 13 9 0 -6
-11 -21 -24 -33 -20 -19 -24 -31 -21 -68 2 -25 6 -48 9 -50 3 -3 1 -14 -5 -25
-17 -32 -2 -33 38 -3 l38 27 -37 -36 -38 -36 0 -99 c0 -96 1 -99 21 -94 11 3
23 12 26 19 3 8 9 12 13 9 4 -3 11 2 14 11 3 8 11 12 17 9 6 -4 -11 -22 -41
-42 -29 -19 -56 -31 -60 -26 -4 4 -11 134 -14 288 -12 499 -16 649 -22 683 -5
33 9 45 20 16z m-2206 -28 c21 -13 62 -36 92 -51 52 -27 54 -29 30 -37 -16 -5
-6 -6 30 -3 l55 5 3 -119 c2 -66 -1 -121 -5 -124 -10 -6 -205 68 -282 107 -46
24 -66 46 -42 46 5 0 7 10 4 23 -4 19 -3 20 7 5 6 -10 21 -18 33 -17 21 1 21
1 2 7 -24 8 -26 34 -5 44 8 4 -9 7 -37 7 -30 1 -53 -3 -53 -9 0 -6 12 -8 28
-5 15 3 22 3 15 -1 -7 -3 -11 -11 -9 -17 1 -7 1 -9 -1 -4 -10 16 -24 6 -18
-13 4 -14 2 -20 -9 -20 -10 0 -15 9 -15 28 1 15 -2 59 -6 99 l-8 72 39 4 c62
7 112 -2 152 -27z m2347 -6 c-21 -22 -41 -37 -44 -35 -4 5 68 74 79 75 2 0
-13 -18 -35 -40z m-5319 3 c-7 -7 -26 7 -26 19 0 6 6 6 15 -2 9 -7 13 -15 11
-17z m5214 -4 c-7 -11 -14 -18 -17 -15 -8 8 5 36 17 36 7 0 7 -6 0 -21z
m-2490 -54 c0 -60 -2 -65 -17 -56 -28 15 -103 82 -103 91 0 5 19 13 43 18 79
18 77 19 77 -53z m2529 39 c-13 -14 -32 -30 -43 -36 -10 -6 -3 6 15 25 19 20
38 36 43 36 5 1 -1 -11 -15 -25z m-879 -3 c0 -20 -35 -31 -101 -31 -21 0 -50
-5 -66 -11 -19 -7 -29 -7 -31 0 -2 6 -10 11 -18 11 -9 0 -12 5 -8 11 13 22 63
34 143 36 72 2 81 0 81 -16z m-1253 -13 c-3 -8 -6 -5 -6 6 -1 11 2 17 5 13 3
-3 4 -12 1 -19z m221 15 c-10 -2 -26 -2 -35 0 -10 3 -2 5 17 5 19 0 27 -2 18
-5z m2012 4 c0 -2 -17 -19 -37 -38 l-38 -34 34 38 c33 34 41 42 41 34z m-1670
-23 c0 -8 4 -13 9 -9 5 3 12 1 16 -5 4 -6 -6 -10 -24 -10 -17 0 -31 2 -31 4 0
2 -3 11 -6 20 -4 12 0 16 15 16 12 0 21 -6 21 -16z m-206 -7 c59 -15 72 -36
24 -36 -18 0 -67 0 -110 0 -130 -2 -176 34 -53 42 33 2 67 4 75 5 8 1 37 -4
64 -11z m43 7 c-3 -3 -12 -4 -19 -1 -8 3 -5 6 6 6 11 1 17 -2 13 -5z m-343
-10 c9 -3 16 -10 16 -14 0 -12 -33 -5 -38 8 -4 14 0 15 22 6z m401 -14 c3 -4
-3 -11 -12 -14 -10 -4 -14 -4 -10 0 4 4 -1 13 -11 20 -15 12 -15 12 6 7 12 -3
24 -9 27 -13z m-3774 -7 c8 -9 9 -14 2 -10 -6 4 -13 1 -16 -5 -3 -7 -4 -3 -4
10 1 26 1 26 18 5z m230 -51 c-6 -2 -11 -13 -11 -25 0 -15 -3 -18 -11 -10 -8
8 -6 19 5 41 9 17 17 39 18 49 0 10 3 2 5 -17 3 -19 0 -36 -6 -38z m-16 48 c3
-5 1 -10 -4 -10 -6 0 -11 5 -11 10 0 6 2 10 4 10 3 0 8 -4 11 -10z m5355 -1
c0 -5 -4 -8 -9 -4 -6 3 -39 -22 -76 -56 -36 -34 -67 -60 -70 -58 -5 6 134 129
145 129 6 0 10 -5 10 -11z m-3443 -21 c-3 -8 -6 -5 -6 6 -1 11 2 17 5 13 3 -3
4 -12 1 -19z m30 0 c-3 -8 -6 -5 -6 6 -1 11 2 17 5 13 3 -3 4 -12 1 -19z
m2078 11 c4 -6 1 -18 -7 -27 -42 -50 -229 -232 -263 -257 -22 -17 -42 -32 -45
-35 -3 -3 -30 -12 -60 -19 -58 -14 -120 -46 -120 -62 0 -5 5 -9 10 -9 6 0 10
-4 10 -10 0 -5 -8 -7 -17 -4 -15 5 -15 4 -3 -4 8 -6 17 -9 21 -6 4 2 10 -4 12
-13 3 -12 5 -8 6 9 1 36 21 47 21 11 -1 -15 -7 -57 -15 -93 -8 -36 -14 -76
-14 -90 0 -24 0 -24 13 5 12 28 13 27 10 -32 -1 -35 1 -65 6 -68 5 -3 8 12 8
32 -1 59 1 75 11 69 13 -8 19 14 17 62 -1 23 1 37 5 31 3 -6 9 11 13 37 4 27
12 64 18 83 10 33 11 34 25 15 16 -21 22 -22 35 -2 6 8 7 -3 4 -32 -3 -25 -1
-52 4 -60 7 -11 10 -7 10 18 0 30 2 32 38 33 20 0 46 4 57 9 13 6 2 7 -33 3
-52 -6 -54 -5 -50 18 3 22 8 24 88 31 47 5 112 10 145 12 33 2 88 7 123 11
l64 8 -7 -45 c-5 -34 -3 -46 7 -50 10 -4 13 6 13 43 l0 49 40 1 c22 1 55 3 73
5 17 1 32 -2 32 -7 0 -5 -6 -9 -13 -9 -8 0 -14 -6 -14 -12 0 -7 -10 -30 -23
-50 -20 -34 -30 -42 -51 -40 -3 1 -4 -9 -2 -22 6 -30 -11 -40 -67 -41 -27 0
-44 -4 -43 -11 2 -12 -131 -29 -148 -19 -5 4 -9 2 -9 -3 0 -5 -12 -7 -26 -4
-19 3 -25 1 -20 -7 5 -8 -13 -12 -61 -13 l-68 -2 80 -5 80 -6 3 -112 3 -113
-63 0 c-35 0 -70 -5 -78 -10 -11 -7 1 -10 40 -10 41 0 51 -3 40 -11 -11 -7 -5
-9 23 -6 l37 5 0 -64 0 -64 -42 -1 c-24 -1 -46 -1 -50 0 -5 0 -8 -4 -8 -10 0
-5 -5 -7 -10 -4 -12 7 -33 -43 -26 -62 6 -15 -10 -18 -19 -3 -9 15 -32 12 -50
-7 -13 -12 -19 -13 -24 -4 -6 9 -20 10 -46 5 -25 -4 -36 -3 -32 3 4 6 38 13
77 17 38 4 70 11 70 16 0 5 3 15 6 24 5 14 -3 16 -52 15 -41 -1 -52 -3 -34 -8
l25 -7 -25 -7 c-13 -3 -25 -5 -27 -4 -7 8 -19 86 -12 81 5 -3 9 0 9 6 0 7 9
23 20 37 33 42 23 44 -19 3 -22 -20 -43 -49 -47 -64 -6 -25 -7 -25 -20 -9 -11
15 -11 20 3 30 9 7 17 30 18 55 1 24 6 60 10 81 5 26 4 37 -5 37 -7 0 -10 -7
-6 -16 4 -9 2 -22 -3 -28 -4 -6 -14 -35 -21 -64 -11 -47 -31 -74 -45 -60 -3 2
2 41 10 86 8 46 11 90 7 100 -5 13 -8 11 -14 -13 -5 -20 -6 -14 -3 20 4 39 3
47 -7 37 -9 -9 -14 -55 -16 -136 l-4 -124 26 5 c29 6 30 4 14 -32 -13 -29 -25
-32 -31 -7 -4 13 -5 11 -6 -5 0 -13 -5 -23 -10 -23 -14 0 -22 29 -15 54 4 18
1 25 -14 28 -11 3 -26 2 -33 -3 -11 -7 -9 -9 6 -10 13 -1 10 -4 -10 -9 l-30
-7 28 -7 c60 -17 14 -66 -48 -50 -15 4 -25 2 -25 -5 0 -6 11 -11 25 -11 14 0
25 -4 25 -9 0 -11 -59 -20 -66 -10 -2 5 -11 6 -19 2 -10 -3 -15 1 -15 11 0 10
7 16 16 14 10 -2 19 2 21 8 2 7 -7 12 -21 12 -14 0 -23 -4 -20 -9 3 -5 -2 -12
-11 -15 -9 -4 -14 -13 -11 -20 7 -18 -33 -28 -77 -20 -17 3 -48 2 -67 -2 -35
-8 -35 -8 -8 -15 14 -4 33 -4 42 -1 8 3 23 1 33 -5 16 -9 14 -11 -12 -11 -16
-1 -39 -5 -50 -10 -17 -6 -13 -9 20 -14 22 -4 56 -13 75 -21 19 -7 42 -16 50
-19 8 -3 -6 -4 -32 -1 -112 12 -138 18 -138 31 0 7 -6 11 -14 8 -10 -4 -16 6
-21 33 -4 29 -11 39 -26 39 -10 0 -19 -4 -19 -8 0 -4 4 -8 10 -8 6 0 5 -10 -2
-25 -6 -14 -17 -25 -25 -25 -7 0 -13 -11 -13 -27 -1 -25 -2 -26 -13 -11 -7 9
-40 24 -72 33 -33 10 -64 21 -70 26 -5 5 -20 9 -33 9 -14 0 -26 7 -29 18 -2
10 -21 23 -41 29 -20 6 -46 15 -57 19 -16 6 -15 3 5 -14 21 -18 22 -21 5 -15
-37 13 -70 33 -55 33 9 0 16 9 16 20 0 11 -4 20 -8 20 -4 0 -8 -4 -8 -9 0 -13
-103 19 -117 36 -9 12 -9 21 -2 36 6 11 9 36 5 56 -3 20 -1 43 4 51 7 10 10
-10 12 -65 l2 -80 3 74 4 74 82 -6 c64 -4 74 -3 47 5 -19 5 -50 12 -67 15 -18
3 -33 9 -33 14 0 6 -9 5 -20 -1 -11 -6 -20 -7 -20 -1 0 14 25 20 67 16 32 -3
31 -2 -10 7 l-48 12 3 128 c3 120 4 128 23 128 11 0 83 -7 160 -15 183 -19
216 -19 209 -1 -3 8 0 17 7 22 7 4 10 3 6 -3 -4 -6 7 -7 26 -5 l32 5 -30 9
c-16 4 -43 6 -60 3 -23 -4 -26 -3 -10 4 19 8 18 10 -10 20 -63 25 -133 73
-128 90 2 9 -3 46 -10 84 -17 79 -14 81 61 43 26 -13 92 -38 147 -55 55 -17
113 -36 129 -41 31 -10 49 -4 28 9 -9 5 -7 12 9 26 20 19 21 19 37 -2 9 -11
24 -23 32 -26 8 -3 -2 -6 -22 -6 -38 -1 -53 -15 -20 -19 9 -1 51 -7 92 -15 60
-11 75 -16 74 -30 -2 -14 1 -15 12 -6 16 13 19 -1 4 -19 -5 -7 -2 -5 7 3 16
13 16 16 0 33 -24 26 -21 32 14 32 18 0 28 -4 24 -10 -4 -6 -11 -8 -16 -5 -5
4 -9 2 -9 -3 0 -5 14 -12 31 -16 41 -8 94 -8 86 0 -3 4 0 19 9 35 l15 29 -43
-1 c-33 0 -38 -2 -23 -9 17 -7 12 -12 -12 -9 -4 0 -10 -8 -14 -18 -8 -19 -11
28 -10 131 1 51 -1 57 -14 46 -8 -7 -15 -20 -15 -29 0 -14 2 -14 11 -1 7 11 8
4 3 -25 -8 -48 -12 -57 -25 -50 -5 4 -9 -1 -9 -10 0 -11 -6 -15 -17 -12 -36
10 -178 40 -190 40 -10 0 -13 27 -13 99 0 54 4 98 9 98 5 0 12 -8 14 -17 4
-14 5 -12 6 5 1 28 13 28 79 -3 30 -14 61 -25 70 -25 10 0 24 -5 32 -11 12 -8
9 -9 -10 -4 -25 6 -25 6 3 -12 15 -10 27 -24 28 -33 0 -11 2 -11 6 -2 3 7 -1
20 -9 29 -11 15 -11 16 5 10 9 -3 17 -2 17 3 0 6 8 10 18 10 14 0 15 2 2 10
-9 6 -17 5 -21 -2 -8 -12 -10 -12 -71 27 -27 16 -48 36 -48 42 0 17 116 18
126 1 5 -8 -10 -10 -57 -5 -62 6 -63 6 -36 -9 16 -9 36 -13 44 -10 8 4 80 9
158 12 164 6 155 12 155 -98 0 -38 4 -58 12 -58 9 0 9 -3 1 -11 -9 -9 -19 -8
-39 5 -21 14 -29 15 -38 5 -8 -9 -7 -11 6 -6 9 3 22 -1 28 -9 10 -11 9 -14 -5
-14 -9 0 -15 -6 -12 -12 5 -17 37 -11 62 12 11 10 31 24 45 31 14 8 25 22 26
32 0 9 1 44 2 76 l2 59 73 11 c39 6 83 15 97 20 36 13 58 13 65 0z m-551 -11
c-5 -8 9 -9 54 -5 39 4 62 3 62 -3 0 -6 -29 -10 -65 -10 -60 0 -75 6 -58 23
10 11 15 8 7 -5z m1786 3 c0 -5 -12 -17 -27 -26 l-28 -18 24 27 c26 28 31 31
31 17z m-2068 -33 c-8 -8 -9 -4 -5 13 4 13 8 18 11 10 2 -7 -1 -18 -6 -23z
m585 0 c-3 -7 -5 -2 -5 12 0 14 2 19 5 13 2 -7 2 -19 0 -25z m329 7 c4 -8 15
-15 26 -15 17 0 18 -3 8 -15 -13 -15 -10 -17 75 -30 39 -7 39 -7 16 -19 -15
-9 -20 -16 -12 -20 6 -4 11 -2 11 3 0 6 15 11 33 11 24 0 28 3 17 10 -11 7 -3
10 28 10 42 0 72 -16 72 -39 0 -6 -4 -11 -10 -11 -5 0 -10 -11 -10 -24 0 -16
-8 -26 -22 -31 l-23 -8 23 -4 c41 -8 23 -18 -40 -21 -33 -2 -111 -12 -172 -23
-61 -12 -119 -21 -128 -21 -10 1 -21 -4 -24 -10 -5 -8 7 -9 37 -5 26 3 38 2
29 -3 -9 -5 -63 -10 -120 -13 -113 -5 -118 -2 -25 13 l60 9 -72 -5 c-73 -5
-88 1 -58 26 8 7 12 17 8 24 -3 6 -3 8 2 4 10 -9 37 11 30 22 -3 4 3 14 12 21
12 10 14 10 9 2 -20 -34 18 -4 104 82 52 52 99 95 103 95 4 0 10 -7 13 -15z
m44 5 c13 -8 13 -10 -2 -10 -9 0 -20 5 -23 10 -8 13 5 13 25 0z m369 -12 c-7
-13 -16 -50 -19 -83 l-7 -60 -2 53 c-1 47 19 112 35 112 2 0 -1 -10 -7 -22z
m-1907 -53 l126 -65 4 -63 c3 -34 3 -64 1 -67 -2 -2 -19 4 -36 14 -18 10 -70
40 -117 67 -47 27 -90 52 -97 56 -14 10 -29 123 -16 123 5 0 65 -29 135 -65z
m1138 33 c0 -36 -19 -113 -26 -106 -2 3 -6 35 -8 71 -4 61 -2 67 15 67 15 0
19 -7 19 -32z m-3940 12 c0 -5 -5 -10 -11 -10 -5 0 -7 5 -4 10 3 6 8 10 11 10
2 0 4 -4 4 -10z m3500 -10 c14 -11 21 -20 15 -20 -5 0 -21 9 -35 20 -14 11
-20 20 -15 20 6 0 21 -9 35 -20z m-903 -27 c6 -16 31 -77 56 -138 24 -60 48
-120 51 -132 12 -39 -9 -25 -23 15 -7 20 -35 89 -62 154 -27 64 -49 119 -49
122 0 16 17 3 27 -21z m-2382 -13 c3 -5 1 -10 -4 -10 -6 0 -11 5 -11 10 0 6 2
10 4 10 3 0 8 -4 11 -10z m1809 -60 c4 -30 3 -36 -3 -20 -13 41 -22 97 -12 80
5 -8 11 -35 15 -60z m2613 23 c-3 -10 -5 -4 -5 12 0 17 2 24 5 18 2 -7 2 -21
0 -30z m910 -25 c-2 -13 -4 -5 -4 17 -1 22 1 32 4 23 2 -10 2 -28 0 -40z
m-5740 -20 c-2 -13 -4 -3 -4 22 0 25 2 35 4 23 2 -13 2 -33 0 -45z m2720 40
c-3 -8 -6 -5 -6 6 -1 11 2 17 5 13 3 -3 4 -12 1 -19z m-2357 -35 c0 -8 -38 17
-51 33 -9 11 -2 9 19 -6 17 -13 32 -25 32 -27z m5310 43 c0 -2 -8 -10 -17 -17
-16 -13 -17 -12 -4 4 13 16 21 21 21 13z m-3400 -75 c11 -35 19 -66 16 -69 -6
-5 -6 -4 -31 67 -14 41 -20 80 -11 70 2 -2 14 -33 26 -68z m1861 36 c-10 -9
-11 -8 -5 6 3 10 9 15 12 12 3 -3 0 -11 -7 -18z m-1446 -104 c-3 -24 -10 -43
-16 -43 -13 0 -11 63 4 118 l12 47 3 -40 c2 -22 1 -59 -3 -82z m2105 92 c0 -8
-4 -15 -10 -15 -5 0 -10 7 -10 15 0 8 5 15 10 15 6 0 10 -7 10 -15z m920 -16
c-7 -11 -14 -18 -17 -15 -3 3 0 12 7 21 18 21 23 19 10 -6z m-833 -191 c-2
-35 -3 -9 -3 57 0 66 1 94 3 63 2 -32 2 -86 0 -120z m-1730 130 c-3 -7 -5 -2
-5 12 0 14 2 19 5 13 2 -7 2 -19 0 -25z m343 10 c10 -6 7 -7 -10 -2 -14 3 -32
11 -40 16 -10 6 -7 7 10 2 14 -3 32 -11 40 -16z m-1280 -10 c0 -18 -2 -20 -9
-8 -6 8 -7 18 -5 22 9 14 14 9 14 -14z m397 -10 c-3 -8 -6 -5 -6 6 -1 11 2 17
5 13 3 -3 4 -12 1 -19z m893 -19 c27 -15 -11 -10 -45 6 l-30 14 30 -6 c17 -3
37 -9 45 -14z m1223 6 c-3 -9 -8 -14 -10 -11 -3 3 -2 9 2 15 9 16 15 13 8 -4z
m896 -30 c-18 -19 -35 -32 -38 -29 -6 6 54 64 65 64 3 0 -9 -16 -27 -35z
m-5262 -7 c-3 -7 -5 -2 -5 12 0 14 2 19 5 13 2 -7 2 -19 0 -25z m3368 17 l50
-14 -40 -1 c-35 -2 -37 -3 -15 -10 19 -6 14 -8 -25 -8 -27 1 -40 3 -27 5 24 5
30 28 10 36 -24 10 -3 6 47 -8z m1722 -47 c-2 -13 -4 -5 -4 17 -1 22 1 32 4
23 2 -10 2 -28 0 -40z m-5109 6 c2 -1 0 -4 -5 -7 -4 -3 -17 7 -27 22 l-20 26
25 -20 c13 -11 25 -21 27 -21z m3822 16 c0 -5 -2 -10 -4 -10 -3 0 -8 5 -11 10
-3 6 -1 10 4 10 6 0 11 -4 11 -10z m-1042 -54 c82 -41 178 -72 142 -47 -20 14
-7 14 25 -1 27 -12 34 -28 11 -28 -8 0 -47 6 -87 14 -41 8 -107 20 -146 26
l-73 12 0 40 c0 47 -2 47 128 -16z m-870 -97 c4 -148 -6 -308 -17 -290 -4 6
-9 106 -10 222 -2 172 0 210 11 207 10 -4 14 -39 16 -139z m4146 115 c5 -14 4
-15 -9 -4 -11 9 -15 9 -15 1 0 -7 -5 -9 -11 -5 -8 4 -7 9 2 15 20 12 26 11 33
-7z m-6034 -9 c9 6 43 -36 35 -43 -6 -7 -55 41 -54 53 0 6 3 4 6 -3 2 -6 9
-10 13 -7z m2804 0 c15 -8 33 -12 39 -8 6 3 7 1 3 -5 -4 -7 -2 -12 5 -12 7 0
10 -3 6 -6 -6 -6 -97 31 -97 40 0 10 13 7 44 -9z m-484 -65 c15 -54 14 -290
-2 -306 -3 -3 -4 57 -1 134 4 99 3 141 -6 146 -6 4 -11 1 -11 -8 0 -9 -4 -16
-10 -16 -6 0 -10 27 -10 62 0 53 2 60 13 48 8 -8 19 -35 27 -60z m3684 10 c3
0 6 7 6 16 0 24 25 10 28 -16 3 -20 1 -22 -10 -12 -12 9 -19 7 -38 -13 -13
-14 -30 -23 -37 -21 -7 3 -12 2 -12 -2 3 -20 -3 -31 -21 -37 -11 -3 -20 -11
-20 -16 0 -6 9 -7 21 -4 20 7 20 6 2 -15 -15 -17 -19 -18 -21 -5 -4 17 -22 21
-22 5 0 -5 -9 -10 -20 -10 -11 0 -20 -7 -20 -15 0 -8 -11 -31 -25 -51 -16 -24
-25 -52 -26 -78 0 -23 -2 -52 -4 -66 -3 -31 11 -60 30 -60 8 0 23 10 35 22 11
12 23 19 26 15 4 -3 -1 -13 -10 -22 -20 -20 -20 -25 0 -25 8 0 13 4 9 9 -3 5
0 13 6 16 5 4 8 13 5 20 -5 15 21 42 31 32 3 -4 0 -14 -8 -23 -12 -15 -12 -17
1 -12 8 2 16 14 18 26 2 11 19 37 38 57 21 23 34 46 34 63 0 15 5 44 11 66 8
28 8 41 -1 46 -11 7 -3 17 30 35 12 7 13 6 3 -6 -7 -8 -12 -24 -12 -34 0 -27
-26 -138 -36 -156 -5 -8 -17 -20 -28 -28 -14 -10 -17 -21 -13 -51 4 -33 1 -41
-35 -76 -33 -33 -42 -36 -50 -24 -9 13 -10 13 -6 -2 4 -10 -6 -27 -26 -45 -43
-38 -129 -108 -144 -117 -9 -5 -12 44 -13 209 0 125 4 215 9 215 5 0 31 16 56
36 26 19 50 32 53 28 4 -4 1 -9 -5 -11 -7 -3 -13 -9 -13 -14 0 -6 5 -7 12 -3
8 5 9 2 5 -9 -4 -11 -1 -17 9 -17 9 0 12 5 8 12 -5 7 -2 9 7 4 10 -6 10 -4 -1
6 -30 26 -16 53 65 125 77 69 80 70 96 52 9 -10 19 -19 23 -19z m-684 16 c0
-2 -8 -10 -17 -17 -16 -13 -17 -12 -4 4 13 16 21 21 21 13z m-3376 -40 c9 -22
13 -61 11 -114 -4 -117 -16 -232 -24 -228 -8 5 -15 376 -7 376 3 0 12 -15 20
-34z m2373 9 c0 -8 -4 -15 -9 -15 -10 0 -11 14 -1 23 9 10 10 9 10 -8z m780
-192 c-2 -37 -3 -9 -3 62 0 72 1 102 3 68 2 -34 2 -93 0 -130z m-2230 161 c-3
-3 -12 -4 -19 -1 -8 3 -5 6 6 6 11 1 17 -2 13 -5z m2468 -40 c-47 -42 -85 -69
-85 -61 0 6 121 107 128 107 4 -1 -15 -21 -43 -46z m-2360 26 c7 -12 -29 -12
-65 0 -21 7 -19 8 17 9 23 1 45 -3 48 -9z m-680 -20 c3 -5 1 -10 -4 -10 -6 0
-11 5 -11 10 0 6 2 10 4 10 3 0 8 -4 11 -10z m65 -100 c0 -62 -4 -100 -10
-100 -10 0 -12 175 -3 193 10 18 13 0 13 -93z m40 80 c0 -5 -2 -10 -4 -10 -3
0 -8 5 -11 10 -3 6 -1 10 4 10 6 0 11 -4 11 -10z m2406 -184 c-1 -107 -4 -192
-8 -189 -5 2 -8 41 -9 86 0 45 -3 76 -6 70 -13 -33 -23 -7 -22 55 3 86 12 102
20 32 l6 -55 1 69 c2 63 1 67 -15 55 -11 -10 -9 -1 8 28 13 24 24 43 25 43 0
0 0 -87 0 -194z m-2319 147 c-3 -10 -5 -4 -5 12 0 17 2 24 5 18 2 -7 2 -21 0
-30z m2749 12 c-9 -9 -16 -13 -16 -8 0 12 22 34 28 28 2 -2 -3 -11 -12 -20z
m-2942 -95 c-1 -44 -4 -84 -8 -87 -3 -4 -6 38 -6 93 0 54 4 94 8 87 4 -6 6
-48 6 -93z m1824 93 c-10 -2 -28 -2 -40 0 -13 2 -5 4 17 4 22 1 32 -1 23 -4z
m1840 -76 l-1 -62 -6 55 c-3 30 -10 55 -16 55 -5 0 -8 -25 -8 -55 1 -30 -1
-46 -4 -36 -4 15 -7 16 -13 5 -5 -7 -6 6 -3 31 5 35 3 42 -8 35 -8 -4 -1 4 16
18 16 14 33 23 37 20 5 -2 7 -32 6 -66z m-1788 54 c0 -5 -7 -25 -15 -45 -8
-20 -13 -36 -10 -36 2 0 11 16 19 35 8 19 21 35 28 35 9 0 10 -2 1 -8 -6 -4
-28 -52 -49 -106 -29 -75 -40 -94 -45 -80 -7 18 -8 18 -8 0 -1 -12 -6 -16 -17
-12 -9 3 -24 6 -34 6 -17 0 -19 11 -22 105 -2 64 1 107 7 109 20 8 145 6 145
-3z m-1913 -93 c-2 -18 -4 -4 -4 32 0 36 2 50 4 33 2 -18 2 -48 0 -65z m1741
10 l-2 -83 -5 75 c-3 41 -5 78 -3 83 9 21 12 -1 10 -75z m-1521 0 c-2 -13 -4
-3 -4 22 0 25 2 35 4 23 2 -13 2 -33 0 -45z m2277 -126 c-2 -164 -11 -232 -33
-232 -3 0 -6 74 -5 165 1 125 4 168 15 182 13 16 12 17 -3 4 -13 -9 -18 -10
-18 -2 0 13 31 60 40 61 3 0 4 -80 4 -178z m1109 91 c-5 -79 -9 -93 -22 -93
-9 0 -7 56 4 115 2 11 4 26 4 33 1 6 5 12 10 12 5 0 7 -30 4 -67z m-488 37
c-3 -5 -10 -10 -16 -10 -5 0 -9 5 -9 10 0 6 7 10 16 10 8 0 12 -4 9 -10z m512
-62 c-2 -13 -4 -5 -4 17 -1 22 1 32 4 23 2 -10 2 -28 0 -40z m-4070 20 c-3 -8
-6 -5 -6 6 -1 11 2 17 5 13 3 -3 4 -12 1 -19z m4113 -8 c0 -5 -5 -10 -11 -10
-5 0 -7 5 -4 10 3 6 8 10 11 10 2 0 4 -4 4 -10z m-3480 -22 c0 -13 -23 -5 -28
10 -2 7 2 10 12 6 9 -3 16 -11 16 -16z m2800 12 c0 -5 -7 -7 -15 -4 -8 4 -15
8 -15 10 0 2 7 4 15 4 8 0 15 -4 15 -10z m-2778 -128 l-9 -77 -1 95 c-1 70 1
90 9 77 7 -12 7 -43 1 -95z m3504 93 c-3 -20 -16 -31 -16 -13 0 13 8 28 16 28
1 0 1 -7 0 -15z m-576 -5 c0 -5 -4 -10 -10 -10 -5 0 -10 5 -10 10 0 6 5 10 10
10 6 0 10 -4 10 -10z m258 3 c-10 -2 -28 -2 -40 0 -13 2 -5 4 17 4 22 1 32 -1
23 -4z m337 -33 c-10 -11 -21 -18 -23 -15 -3 3 3 12 14 20 27 20 30 18 9 -5z
m-2408 -12 c-3 -8 -6 -5 -6 6 -1 11 2 17 5 13 3 -3 4 -12 1 -19z m666 -111 c2
-48 0 -82 -5 -75 -4 7 -7 -13 -7 -47 1 -48 3 -54 9 -30 l8 30 1 -28 c0 -16 -8
-40 -18 -53 l-19 -24 -7 28 c-4 15 -9 38 -10 50 -2 13 -7 27 -11 30 -4 4 -4
-23 0 -60 6 -62 5 -67 -13 -65 -15 1 -20 12 -25 59 -3 33 -10 67 -15 76 -6 12
-5 26 5 42 12 23 13 23 14 5 5 -74 19 -101 21 -39 1 35 2 36 10 14 5 -17 7 -6
3 35 -2 38 -1 53 4 40 8 -18 10 -17 20 10 12 29 12 28 7 -13 -4 -28 -2 -41 5
-37 5 3 11 43 11 88 2 99 6 84 12 -36z m-2443 41 c-4 -49 -5 -50 -8 -14 -3 34
2 66 10 66 2 0 1 -24 -2 -52z m4298 17 c-1 -30 -11 -43 -77 -98 -42 -36 -107
-88 -146 -117 -38 -29 -102 -79 -142 -111 l-71 -58 -5 42 c-3 33 0 45 14 57
11 8 68 52 127 98 59 45 123 95 143 111 37 30 150 111 155 111 2 0 3 -16 2
-35z m-4230 -26 c-3 -33 -4 -33 -8 8 -3 23 -2 39 3 34 5 -5 7 -24 5 -42z
m2192 46 c0 -2 -11 -30 -25 -61 -14 -31 -30 -74 -36 -96 -5 -22 -13 -38 -15
-35 -3 3 -1 22 5 43 5 22 15 65 21 97 9 46 15 57 31 57 10 0 19 -2 19 -5z
m-1743 -57 c-2 -13 -4 -5 -4 17 -1 22 1 32 4 23 2 -10 2 -28 0 -40z m-392
-135 c-4 -93 -9 -170 -11 -172 -2 -2 -4 73 -4 167 0 117 3 172 11 172 8 0 9
-49 4 -167z m-78 135 c-3 -8 -6 -5 -6 6 -1 11 2 17 5 13 3 -3 4 -12 1 -19z
m1793 13 c0 -6 -4 -13 -10 -16 -5 -3 -10 1 -10 9 0 9 5 16 10 16 6 0 10 -4 10
-9z m-1773 -78 c-3 -10 -5 -4 -5 12 0 17 2 24 5 18 2 -7 2 -21 0 -30z m350
-200 c-1 -43 -3 -10 -3 72 0 83 2 118 3 78 2 -40 2 -107 0 -150z m69 115 c1
-42 5 -95 8 -119 4 -33 3 -39 -4 -24 -9 17 -10 14 -6 -12 3 -18 1 -35 -4 -38
-6 -4 -10 14 -10 43 0 27 -3 91 -7 142 -5 77 -4 92 8 88 10 -3 14 -25 15 -80z
m-489 50 c-3 -8 -6 -5 -6 6 -1 11 2 17 5 13 3 -3 4 -12 1 -19z m510 -90 c-2
-24 -4 -7 -4 37 0 44 2 63 4 43 2 -21 2 -57 0 -80z m1323 108 c0 -3 -4 -8 -10
-11 -5 -3 -10 -1 -10 4 0 6 5 11 10 11 6 0 10 -2 10 -4z m-1760 -62 c0 -19 -4
-34 -10 -34 -5 0 -10 18 -10 41 0 24 4 38 10 34 6 -3 10 -22 10 -41z m-50 -16
c-1 -8 -6 -6 -15 6 -20 26 -19 42 0 22 8 -8 15 -21 15 -28z m627 -91 c-2 -23
-3 -1 -3 48 0 50 1 68 3 42 2 -26 2 -67 0 -90z m194 111 c66 -26 65 -26 53
-38 -7 -7 -28 -2 -65 14 -30 14 -49 26 -44 26 6 1 -1 6 -15 10 -22 7 -23 8 -4
9 12 1 46 -9 75 -21z m904 12 c-27 -12 -35 -12 -35 0 0 6 12 10 28 9 24 0 25
-1 7 -9z m358 -7 c-13 -2 -35 -2 -50 0 -16 2 -5 4 22 4 28 0 40 -2 28 -4z
m-1416 -50 c-3 -10 -5 -4 -5 12 0 17 2 24 5 18 2 -7 2 -21 0 -30z m1307 25
c-5 -8 9 -10 53 -6 l60 6 -8 -37 c-4 -20 -6 -46 -2 -58 l5 -23 -167 0 -166 0
6 23 c4 12 12 27 17 32 7 7 8 3 4 -11 -5 -17 -1 -23 16 -28 13 -3 25 -1 27 5
2 7 7 6 12 -2 7 -11 9 -10 9 4 0 10 -8 17 -19 17 -44 0 -35 43 11 59 39 14 78
14 78 1 0 -16 19 -11 37 10 19 21 39 28 27 8z m-249 -30 c-38 -91 -60 -109
-34 -27 6 19 12 40 15 47 2 6 10 12 18 12 13 0 13 -4 1 -32z m70 2 c-4 -12 -9
-19 -12 -17 -3 3 -2 15 2 27 4 12 9 19 12 17 3 -3 2 -15 -2 -27z m-1198 -57
c-2 -16 -4 -5 -4 22 0 28 2 40 4 28 2 -13 2 -35 0 -50z m228 25 c14 -12 23
-28 21 -35 -6 -15 -1 -16 23 -3 26 13 123 -19 119 -40 -4 -21 -168 -28 -168
-7 0 7 3 17 7 21 4 3 8 16 10 27 4 25 -18 14 -67 -35 -20 -20 -20 -19 -20 47
0 66 0 66 24 57 14 -5 36 -19 51 -32z m-782 24 c2 7 4 0 4 -15 0 -15 0 -27 -1
-25 -1 2 -10 14 -21 28 -14 17 -15 21 -3 12 13 -10 17 -10 21 0z m4224 -14
c-3 -8 -6 -5 -6 6 -1 11 2 17 5 13 3 -3 4 -12 1 -19z m-2834 -5 c-7 -2 -19 -2
-25 0 -7 3 -2 5 12 5 14 0 19 -2 13 -5z m-294 -44 c109 -29 110 -30 86 -39
-30 -13 -90 -12 -135 2 -41 13 -57 34 -17 23 21 -6 21 -5 2 6 -10 7 -33 16
-50 20 l-30 7 34 1 c19 1 69 -8 110 -20z m108 -1 c-3 -8 -6 -5 -6 6 -1 11 2
17 5 13 3 -3 4 -12 1 -19z m-1208 -41 c-1 -31 -1 -31 -9 -7 -11 36 -11 52 0
45 6 -3 10 -21 9 -38z m628 1 c-3 -8 -6 -5 -6 6 -1 11 2 17 5 13 3 -3 4 -12 1
-19z m891 5 c-10 -2 -28 -2 -40 0 -13 2 -5 4 17 4 22 1 32 -1 23 -4z m-215
-15 c-17 -8 -29 -8 -45 0 -20 9 -18 11 22 11 40 0 42 -2 23 -11z m85 5 c-10
-2 -26 -2 -35 0 -10 3 -2 5 17 5 19 0 27 -2 18 -5z m162 -3 c-8 -5 -33 -9 -55
-8 l-40 1 45 7 c25 4 50 8 55 8 6 1 3 -3 -5 -8z m458 1 c11 -7 10 -10 -3 -15
-9 -3 -26 -6 -38 -7 -20 -1 -20 -2 3 -9 24 -8 23 -8 -7 -9 -33 -1 -76 26 -67
41 7 11 95 10 112 -1z m-2958 -26 c13 -14 21 -25 18 -25 -2 0 -15 11 -28 25
-13 14 -21 25 -18 25 2 0 15 -11 28 -25z m2690 15 c-20 -13 -47 -13 -55 0 -4
6 9 10 32 10 28 0 34 -3 23 -10z m-1113 -52 c-2 -13 -4 -5 -4 17 -1 22 1 32 4
23 2 -10 2 -28 0 -40z m-600 20 c-3 -8 -6 -5 -6 6 -1 11 2 17 5 13 3 -3 4 -12
1 -19z m1768 -3 c28 -24 29 -25 8 -25 -13 0 -25 -1 -28 -2 -35 -11 -105 -13
-138 -3 l-41 12 34 16 c19 9 55 18 80 20 25 2 47 4 50 5 3 1 19 -10 35 -23z
m-1805 -285 c-7 -154 -7 -153 -7 75 0 152 2 205 7 155 4 -41 4 -145 0 -230z
m553 278 c11 -6 17 -21 17 -43 0 -35 0 -35 -44 -35 l-44 0 -4 50 -3 51 30 -7
c17 -3 38 -10 48 -16z m514 16 c-3 -3 -12 -4 -19 -1 -8 3 -5 6 6 6 11 1 17 -2
13 -5z m113 -3 c0 -6 -4 -12 -9 -16 -14 -8 -91 6 -85 16 7 12 94 11 94 0z m48
-3 c7 -7 12 -8 12 -2 0 9 204 13 214 4 3 -3 -10 -4 -29 -2 -57 7 -40 -6 24
-19 44 -8 58 -15 54 -25 -6 -16 22 -19 32 -4 4 7 14 6 28 -2 14 -7 70 -12 147
-12 l125 -1 0 -25 0 -25 -105 4 c-58 2 -103 1 -100 -2 6 -6 102 -16 154 -17
28 0 37 -3 30 -10 -7 -7 -40 -7 -104 0 -119 13 -129 6 -13 -9 147 -20 163 -23
164 -29 5 -41 5 -54 -2 -58 -5 -2 -4 -16 2 -31 5 -14 8 -27 6 -29 -6 -6 -176
-41 -234 -48 -49 -6 -53 -5 -85 26 -41 42 -75 67 -64 51 4 -7 2 -13 -3 -13 -6
0 -11 5 -11 12 0 6 -2 9 -5 6 -3 -3 -3 -13 1 -22 4 -12 10 -14 19 -6 13 11 47
-20 58 -52 5 -15 1 -18 -26 -18 -24 0 -28 3 -17 10 8 5 11 13 6 17 -4 4 -13 0
-20 -10 -9 -12 -27 -17 -60 -17 -41 0 -46 3 -47 23 0 12 -3 16 -6 9 -2 -6 -9
-10 -14 -6 -5 3 -9 -2 -9 -12 0 -15 -9 -16 -82 -9 -46 5 -96 9 -113 10 -29 2
-30 4 -31 49 -1 44 -14 81 -14 40 0 -16 -2 -17 -10 -4 -5 8 -10 11 -10 6 0 -6
-7 -1 -16 10 -8 10 -13 13 -9 7 3 -7 1 -13 -4 -13 -6 0 -11 16 -11 35 0 19 -5
35 -11 35 -8 0 -8 5 1 15 7 8 10 31 8 50 l-4 36 110 -5 c61 -3 132 -8 159 -11
26 -4 47 -2 47 2 0 5 -12 8 -27 7 -16 -1 -32 2 -38 6 -5 4 -31 7 -58 6 -26 -1
-47 3 -47 7 0 5 -4 6 -9 3 -5 -3 -14 1 -22 10 -11 13 -7 14 37 8 27 -3 52 -8
55 -10 4 -2 37 -6 75 -10 38 -3 96 -10 129 -15 70 -10 101 -11 92 -3 -6 7 -92
20 -208 33 -97 11 -119 18 -120 39 0 14 -2 13 -9 -3 -8 -19 -9 -19 -9 3 -1 24
9 28 27 10z m1142 -8 c0 -11 -4 -20 -10 -20 -5 0 -10 9 -10 20 0 11 5 20 10
20 6 0 10 -9 10 -20z m-857 3 c-7 -2 -21 -2 -30 0 -10 3 -4 5 12 5 17 0 24 -2
18 -5z m87 -15 c0 -5 -10 -6 -22 -3 -36 11 -41 22 -8 17 16 -2 30 -9 30 -14z
m472 -4 c-2 -10 -5 -21 -7 -23 -7 -7 -125 11 -125 19 0 5 21 12 48 15 26 4 52
8 57 10 19 6 30 -2 27 -21z m126 -49 c31 2 -8 -5 -88 -15 -113 -15 -146 -17
-152 -7 -17 26 -6 30 72 24 l80 -5 1 31 2 32 7 -35 7 -35 3 45 3 45 4 -42 4
-41 57 3z m1682 -79 c-15 -15 -16 -8 -11 79 l4 80 9 -75 c5 -46 4 -78 -2 -84z
m-3513 122 c-3 -8 -6 -5 -6 6 -1 11 2 17 5 13 3 -3 4 -12 1 -19z m395 -47 c-5
-3 -8 -15 -6 -26 6 -31 6 -144 0 -153 -2 -4 -1 -14 5 -22 7 -13 9 -13 9 1 0
13 8 12 51 -9 28 -14 63 -27 79 -29 49 -5 80 -21 74 -38 -7 -17 -64 -20 -110
-6 -16 6 -45 12 -64 14 -57 8 -67 15 -63 45 2 19 1 22 -4 10 -5 -9 -8 44 -8
119 0 127 1 136 20 143 16 6 21 2 23 -18 2 -14 -1 -28 -6 -31z m221 52 c-7 -2
-21 -2 -30 0 -10 3 -4 5 12 5 17 0 24 -2 18 -5z m146 -9 c10 -9 -56 -3 -69 7
-11 7 -4 8 25 3 22 -4 42 -8 44 -10z m2709 -51 c1 26 7 47 13 47 6 0 8 -8 5
-17 -2 -10 -8 -48 -12 -85 -3 -38 -10 -68 -15 -68 -5 0 -8 39 -7 88 1 77 2 81
8 37 l7 -50 1 48z m-4610 -52 c53 -49 117 -108 142 -131 l45 -42 -60 45 c-34
25 -67 52 -74 61 -7 9 -17 16 -21 16 -7 0 -80 70 -124 119 -45 49 3 14 92 -68z
m820 64 c-3 -3 -9 2 -12 12 -6 14 -5 15 5 6 7 -7 10 -15 7 -18z m599 -72 c-2
-21 -4 -6 -4 32 0 39 2 55 4 38 2 -18 2 -50 0 -70z m346 70 c4 -2 5 -21 1 -40
-5 -26 -4 -34 5 -29 6 4 11 21 11 38 0 39 6 34 13 -13 9 -63 -5 -63 -72 2
l-63 62 49 -8 c26 -4 52 -9 56 -12z m-905 -18 c-3 -3 -9 2 -12 12 -6 14 -5 15
5 6 7 -7 10 -15 7 -18z m589 3 c-3 -8 -6 -5 -6 6 -1 11 2 17 5 13 3 -3 4 -12
1 -19z m234 -39 c76 -43 52 -51 -76 -26 -60 12 -75 27 -61 62 4 12 12 12 50 1
24 -7 63 -24 87 -37z m-1761 -20 c0 -18 -4 -28 -10 -24 -5 3 -10 20 -10 36 0
18 4 28 10 24 6 -3 10 -20 10 -36z m2710 11 c12 -8 11 -10 -7 -10 -13 0 -23 5
-23 10 0 13 11 13 30 0z m-1766 -99 c4 -18 0 -14 -14 14 -10 22 -19 51 -19 65
0 20 3 17 14 -14 7 -21 16 -50 19 -65z m23 32 c-2 -16 -4 -5 -4 22 0 28 2 40
4 28 2 -13 2 -35 0 -50z m-1062 47 c3 -5 -1 -20 -10 -33 -8 -13 -23 -72 -32
-131 -10 -58 -21 -106 -26 -106 -9 0 -5 31 20 155 9 44 17 90 17 103 1 22 20
30 31 12z m1532 -67 c-2 -16 -4 -3 -4 27 0 30 2 43 4 28 2 -16 2 -40 0 -55z
m1803 -52 c0 -52 -2 -92 -4 -90 -2 2 -6 51 -10 109 -4 72 -3 100 4 90 5 -8 10
-57 10 -109z m-240 84 c0 -8 -4 -17 -10 -20 -6 -4 -10 5 -10 20 0 15 4 24 10
20 6 -3 10 -12 10 -20z m-1207 1 c8 -8 30 -19 48 -25 33 -11 33 -11 -11 -7
-24 3 -46 10 -48 15 -2 6 -16 11 -30 12 -15 1 -38 5 -52 9 -20 6 -14 8 27 9
33 1 57 -4 66 -13z m1058 -3 c1 -10 1 -26 0 -35 -3 -25 8 -22 18 5 5 13 5 27
-1 35 -8 9 -3 12 21 12 32 0 42 -16 16 -26 -20 -8 -19 -22 3 -27 10 -2 0 -8
-26 -16 -24 -7 -50 -15 -58 -18 -11 -4 -14 5 -14 41 0 39 3 46 20 46 12 0 20
-7 21 -17z m-1342 -85 c1 -21 -3 -38 -8 -38 -12 0 -23 82 -14 106 6 17 8 17
14 -6 4 -14 7 -42 8 -62z m1461 68 c0 -2 -7 -6 -15 -10 -8 -3 -15 -1 -15 4 0
6 7 10 15 10 8 0 15 -2 15 -4z m-1233 -39 c7 -5 17 -6 22 -3 5 4 12 2 15 -3 3
-5 28 -14 56 -21 27 -7 50 -15 50 -20 0 -10 -179 37 -197 51 -36 30 13 26 54
-4z m-474 -173 c4 -4 7 37 7 92 1 78 3 95 12 80 8 -14 9 -65 3 -170 -4 -83 -7
-161 -7 -174 l0 -24 -16 24 c-21 29 -33 181 -24 288 l7 75 5 -92 c3 -50 9 -95
13 -99z m1737 116 c0 -33 -3 -40 -19 -40 -24 0 -54 28 -45 42 4 7 -5 8 -27 4
-22 -3 -14 2 21 14 30 10 58 19 63 19 4 1 7 -17 7 -39z m-3615 -31 c-4 -5 -1
-9 4 -9 13 0 15 -89 2 -108 -6 -11 -11 -10 -25 3 -11 12 -16 34 -16 81 0 62 1
64 20 54 11 -6 18 -15 15 -21z m3816 -44 c-5 -83 -20 -98 -18 -17 1 41 6 71
12 69 5 -2 8 -25 6 -52z m-496 35 c4 -6 -8 -10 -30 -10 -20 0 -34 -4 -31 -8 3
-5 -9 -7 -27 -4 -26 3 -29 1 -17 -8 12 -9 11 -10 -6 -5 -12 3 -74 -1 -138 -10
-103 -13 -467 -22 -455 -11 2 2 85 6 184 9 149 4 438 35 480 52 19 7 34 5 40
-5z m185 -45 c0 -62 -23 -78 -34 -24 -11 58 -8 79 14 79 18 0 20 -7 20 -55z
m178 38 c-10 -2 -26 -2 -35 0 -10 3 -2 5 17 5 19 0 27 -2 18 -5z m-97 -20 c1
-16 2 -17 6 -1 2 9 10 15 17 12 10 -4 13 -30 13 -97 l0 -92 -7 75 c-4 48 -7
60 -8 34 -2 -44 -22 -70 -47 -60 -16 6 -21 78 -9 124 7 26 33 30 35 5z m-1862
-78 c-1 -73 -6 -62 -11 23 -3 34 -1 57 4 50 4 -7 7 -40 7 -73z m-1611 59 c6
-1 17 -2 22 -2 11 -2 13 -67 4 -124 -4 -21 -10 -35 -14 -33 -5 3 -6 14 -3 25
4 14 0 20 -11 20 -12 0 -16 8 -15 28 1 15 -1 45 -5 67 -4 22 -4 36 1 30 4 -5
14 -10 21 -11z m3216 -11 c-1 -16 -3 -37 -4 -48 -1 -11 -4 -14 -7 -7 -2 6 -12
12 -21 12 -14 0 -14 -2 -3 -9 11 -7 8 -14 -15 -35 -16 -14 -23 -26 -16 -26 6
0 12 3 12 8 0 4 11 7 25 7 14 0 25 -5 25 -12 0 -6 -8 -9 -18 -6 -14 3 -18 -2
-19 -31 0 -20 4 -36 9 -36 5 0 6 -5 3 -11 -5 -7 -13 -5 -24 5 -10 9 -20 14
-22 12 -7 -6 -164 -17 -157 -11 3 3 43 12 89 18 50 7 84 17 87 25 4 13 -54 10
-140 -8 -21 -4 -38 -4 -38 0 0 16 31 32 50 27 13 -3 20 0 20 8 0 9 -10 13 -27
12 -21 -2 -27 2 -25 15 1 9 -2 19 -8 23 -5 3 -10 -3 -10 -13 0 -21 -18 -32
-52 -32 -17 0 -19 4 -14 28 4 18 4 22 -3 13 -5 -7 -14 -10 -20 -7 -8 5 -7 11
2 20 6 8 15 12 20 9 4 -2 7 2 7 10 0 8 12 17 26 20 20 3 28 0 31 -14 7 -26 18
-24 31 5 9 20 21 25 72 31 34 4 74 11 88 15 44 13 49 11 46 -17z m-2554 -22
c0 -22 2 -45 3 -53 2 -7 2 -10 0 -5 -9 14 -22 7 -26 -15 -3 -15 -5 -10 -6 13
-1 47 9 99 20 99 5 0 9 -18 9 -39z m1665 17 c12 -12 -115 -3 -161 12 -21 7 -3
8 61 4 50 -3 95 -10 100 -16z m-1925 3 c0 -6 -4 -13 -10 -16 -5 -3 -10 1 -10
9 0 9 5 16 10 16 6 0 10 -4 10 -9z m2048 2 c-10 -2 -26 -2 -35 0 -10 3 -2 5
17 5 19 0 27 -2 18 -5z m-353 -47 c-1 -24 -1 -28 2 -11 8 53 21 53 135 2 37
-16 65 -34 62 -39 -4 -6 0 -15 7 -20 11 -8 10 -9 -3 -4 -11 3 -21 -2 -27 -13
-9 -15 -18 -17 -64 -10 -30 4 -64 10 -75 13 -24 8 -33 -11 -26 -51 3 -18 2
-25 -5 -18 -5 6 -11 26 -13 45 -2 20 -7 -4 -12 -57 -4 -51 -12 -93 -17 -93
-12 0 -11 30 5 128 7 46 11 102 9 126 -4 33 -2 43 9 43 11 0 15 -11 13 -41z
m-1764 -70 c-6 -39 -16 -75 -21 -80 -13 -13 -12 -5 5 74 18 83 18 80 -4 80
-26 0 -36 17 -14 22 10 2 24 -3 32 -10 12 -12 13 -25 2 -86z m1983 87 c25 -4
26 -7 14 -20 -13 -12 -22 -11 -71 7 -32 12 -57 24 -57 27 0 4 50 -1 114 -14z
m1446 -2 c-11 -21 -30 -37 -30 -25 0 8 30 44 37 44 2 0 -1 -9 -7 -19z m-3312
-57 c2 -42 -1 -55 -8 -44 -5 8 -10 33 -11 55 -2 37 -2 38 -6 8 -2 -18 -8 -33
-14 -33 -12 0 -12 22 1 55 17 44 35 24 38 -41z m1049 29 c-3 -10 -5 -4 -5 12
0 17 2 24 5 18 2 -7 2 -21 0 -30z m-1440 -70 c-2 -21 -4 -6 -4 32 0 39 2 55 4
38 2 -18 2 -50 0 -70z m4384 56 c-18 -17 -34 -29 -38 -26 -3 3 10 20 28 36 18
17 35 29 37 26 3 -2 -10 -18 -27 -36z m-4521 5 c0 -14 -4 -23 -9 -20 -5 3 -7
15 -4 26 7 28 13 25 13 -6z m663 -36 c-9 -34 -11 -37 -12 -15 -2 40 -19 33
-26 -10 -11 -65 -13 -69 -14 -32 -1 34 18 95 35 112 18 17 27 -13 17 -55z
m1406 10 l-2 -53 -7 40 c-7 38 -7 38 -9 -18 0 -33 3 -56 8 -53 9 6 6 -142 -2
-151 -15 -15 -22 254 -6 273 18 21 19 18 18 -38z m417 25 c-7 -7 -26 7 -26 19
0 6 6 6 15 -2 9 -7 13 -15 11 -17z m304 7 c7 -13 6 -20 -3 -23 -7 -3 -4 -6 6
-6 10 -1 15 -6 12 -11 -11 -18 3 -44 18 -32 8 6 20 6 37 -1 25 -10 25 -10 3
-14 -27 -5 -31 -23 -5 -24 9 0 -19 -7 -63 -16 -91 -16 -167 -13 -193 9 -9 9
-24 13 -32 11 -13 -4 -13 -3 0 6 12 8 12 13 2 23 -21 21 -14 28 28 28 22 0 40
-4 40 -10 0 -5 7 -10 16 -10 14 0 14 2 0 15 -8 8 -26 15 -40 15 -16 0 -26 6
-26 15 0 8 -4 15 -10 15 -5 0 -10 6 -10 14 0 11 22 14 105 14 92 0 107 -2 115
-18z m98 -12 c-3 -29 -7 -33 -30 -33 -16 0 -28 4 -27 9 0 5 -5 12 -12 16 -19
12 11 39 44 40 26 0 28 -3 25 -32z m45 12 c-3 -11 -7 -20 -9 -20 -2 0 -4 9 -4
20 0 11 4 20 9 20 5 0 7 -9 4 -20z m-2151 -91 c-6 -39 -16 -77 -22 -83 -7 -7
-8 -1 -3 24 5 19 8 63 8 97 0 53 2 60 14 48 11 -11 12 -27 3 -86z m652 86 c3
-8 1 -15 -4 -15 -6 0 -10 7 -10 15 0 8 2 15 4 15 2 0 6 -7 10 -15z m323 -46
l31 -56 -9 -109 c-4 -60 -8 -129 -8 -153 -1 -41 -2 -43 -15 -25 -10 13 -11 21
-3 26 8 5 8 10 0 20 -7 8 -10 61 -8 145 2 73 1 142 -3 155 l-6 23 -7 -25 c-6
-20 -7 -16 -8 19 -1 24 1 42 3 40 1 -2 17 -29 33 -60z m2073 26 c-7 -9 -15
-13 -18 -10 -3 2 1 11 8 20 7 9 15 13 18 10 3 -2 -1 -11 -8 -20z m-3250 -35
c0 -27 -2 -50 -5 -50 -12 0 -25 53 -19 76 10 41 24 27 24 -26z m2860 46 c0 -3
-4 -8 -10 -11 -5 -3 -10 -1 -10 4 0 6 5 11 10 11 6 0 10 -2 10 -4z m332 -41
l5 30 2 -30 c1 -29 -13 -55 -30 -55 -4 0 -6 12 -5 28 2 15 5 38 6 52 2 18 5
14 10 -15 6 -39 6 -39 12 -10z m108 -37 c0 -49 -4 -77 -9 -68 -8 14 -3 150 5
150 2 0 4 -37 4 -82z m666 66 c1 -5 -36 -42 -82 -82 -46 -40 -84 -69 -84 -63
0 10 49 59 85 85 11 8 17 17 13 21 -3 4 -27 -12 -52 -36 -63 -57 -68 -45 -6
16 36 35 52 46 62 38 14 -11 52 20 40 33 -4 3 -1 5 7 2 8 -2 16 -8 17 -14z
m-4605 -57 c-2 -46 0 -57 13 -57 14 0 15 9 10 53 l-6 52 21 -19 c16 -15 21
-30 19 -65 l-1 -46 -7 50 -7 50 -1 -57 c-2 -62 -17 -83 -31 -46 -8 20 -10 20
-10 4 -2 -45 -12 -3 -17 69 -4 59 -3 76 7 73 9 -3 12 -22 10 -61z m1726 -19
c-2 -18 -4 -6 -4 27 0 33 2 48 4 33 2 -15 2 -42 0 -60z m-1602 50 c6 -4 2 -8
-7 -8 -10 0 -18 7 -18 17 0 9 3 12 8 7 4 -5 12 -12 17 -16z m1430 -46 c1 -12
10 -31 19 -41 22 -24 20 -34 -4 -19 -11 7 -20 22 -20 33 0 17 -2 17 -10 5 -7
-11 -10 1 -9 40 0 47 2 52 11 30 5 -14 11 -35 13 -48z m949 46 c11 21 13 20
55 -29 43 -50 48 -74 11 -51 -13 8 -20 9 -20 1 0 -5 -4 -8 -9 -5 -4 3 -41 7
-81 10 -39 3 -75 8 -78 12 -4 4 12 4 35 0 37 -5 41 -4 36 13 -3 10 3 32 14 47
l18 28 3 -24 4 -24 12 22z m1123 -20 c-3 -8 -6 -5 -6 6 -1 11 2 17 5 13 3 -3
4 -12 1 -19z m-2839 -1 c7 -9 8 -23 3 -43 l-9 -29 -2 30 c-2 18 -4 23 -7 13
-2 -10 -9 -18 -15 -18 -5 0 -7 7 -4 16 3 9 6 22 6 30 0 18 14 18 28 1z m2309
6 c-11 -3 -16 -11 -13 -19 7 -18 -13 -27 -51 -22 l-28 3 23 23 c14 14 33 22
55 21 18 -1 24 -3 14 -6z m1505 -15 c-7 -7 -12 -8 -12 -2 0 14 12 26 19 19 2
-3 -1 -11 -7 -17z m-715 -69 c-3 -39 -10 -76 -16 -82 -8 -8 -11 -3 -11 18 0
30 22 135 28 135 2 0 1 -32 -1 -71z m-2140 39 c-3 -8 -6 -5 -6 6 -1 11 2 17 5
13 3 -3 4 -12 1 -19z m-1619 -37 c16 -13 16 -13 0 -8 -21 7 -22 3 -7 -25 8
-15 8 -19 0 -14 -14 9 -14 -9 -1 -35 8 -14 7 -25 -3 -40 -13 -18 -15 -10 -15
78 0 54 2 89 5 78 2 -11 12 -26 21 -34z m3398 -31 c1 -38 -4 -61 -16 -79 -21
-30 -33 -91 -18 -91 6 0 7 -16 3 -42 l-7 -43 31 39 31 39 0 -36 c0 -20 -11
-57 -25 -83 -14 -26 -25 -43 -25 -39 0 5 -2 6 -5 4 -2 -3 0 -20 5 -38 9 -34
-1 -71 -20 -71 -15 0 -8 450 8 478 21 37 37 21 38 -38z m76 -37 c-5 -140 -9
-146 -11 -15 0 61 3 112 7 112 4 0 6 -44 4 -97z m-2824 62 c13 -29 5 -33 -14
-7 -15 20 -18 32 -6 32 5 0 14 -11 20 -25z m2222 13 c0 -5 -13 -8 -30 -8 -33
0 -110 -30 -110 -43 0 -4 5 -5 10 -2 6 3 10 4 10 1 0 -2 3 -12 6 -21 4 -9 3
-15 -2 -14 -22 4 -54 -2 -54 -9 0 -5 18 -14 41 -21 23 -7 48 -15 58 -18 14 -4
14 -3 -1 10 -24 19 -23 24 7 31 14 4 25 11 25 16 0 6 15 20 33 31 25 16 27 20
9 16 -13 -3 -20 -1 -16 5 4 5 19 7 35 4 16 -3 45 0 66 8 40 13 181 12 196 -3
5 -5 -12 -11 -38 -13 -54 -7 -60 -11 -50 -35 8 -17 8 -17 12 0 3 9 10 17 16
18 7 0 22 2 35 3 12 2 22 -2 22 -8 0 -7 15 -10 40 -8 44 4 44 4 29 -50 -10
-37 -19 -43 -61 -40 -20 2 -24 -14 -5 -21 9 -3 8 -8 -3 -22 -14 -17 -15 -16
-21 16 -6 39 8 80 21 59 5 -8 10 -9 14 -1 10 16 -23 61 -45 61 -11 0 -19 -7
-19 -15 0 -8 -9 -15 -20 -15 -14 0 -20 -6 -18 -17 2 -10 6 -20 9 -23 7 -5 12
-51 10 -80 -1 -11 -3 -12 -9 -3 -7 11 -41 22 -144 45 -49 11 -61 23 -30 31 10
3 9 3 -3 1 -11 -1 -31 -6 -44 -10 -17 -5 -22 -4 -17 4 4 7 3 12 -3 12 -5 0
-12 -4 -15 -9 -8 -13 -65 -19 -60 -7 2 7 -16 12 -48 14 -34 1 -63 9 -80 22
-33 24 -39 25 -32 5 5 -13 2 -14 -20 -5 -23 8 -31 6 -54 -16 -34 -32 -80 -57
-95 -50 -7 2 -4 5 6 5 25 1 21 21 -5 22 -13 1 -26 1 -30 0 -5 0 -8 4 -8 9 0
11 8 12 80 12 31 0 36 1 15 4 -16 3 -37 8 -45 11 -8 3 -22 5 -30 4 -12 -1 -12
0 -1 7 7 5 23 7 35 4 19 -5 19 -4 6 10 -10 9 -43 17 -90 21 -81 6 -173 33
-164 48 3 5 43 9 89 9 79 0 84 -1 87 -22 4 -31 38 -36 45 -8 4 17 12 20 37 18
23 -2 30 -7 28 -20 -2 -12 4 -18 18 -18 11 0 20 -4 20 -9 0 -15 51 -23 65 -11
8 7 23 9 35 5 11 -4 20 -2 20 4 0 6 -11 11 -25 11 -29 0 -65 28 -64 50 0 8 3
10 5 4 3 -6 28 -9 67 -6 34 3 78 4 97 4 19 -1 29 2 23 6 -6 4 20 7 58 7 38 0
69 -3 69 -7z m57 6 c-3 -3 -12 -4 -19 -1 -8 3 -5 6 6 6 11 1 17 -2 13 -5z
m221 -1 c-10 -2 -26 -2 -35 0 -10 3 -2 5 17 5 19 0 27 -2 18 -5z m298 -38 c0
-25 -4 -45 -8 -45 -4 0 -8 20 -8 45 0 25 4 45 8 45 4 0 8 -20 8 -45z m1044 20
c0 -13 -51 -47 -66 -44 -3 0 -9 -3 -12 -7 -4 -4 -1 -4 6 0 6 4 12 2 12 -3 0
-6 -4 -11 -9 -11 -5 0 -29 -18 -53 -39 -46 -42 -54 -44 -43 -12 8 26 113 113
127 105 5 -3 12 3 15 15 6 22 23 19 23 -4z m-3085 -16 c-5 -23 -1 -39 19 -70
15 -21 29 -39 32 -39 3 0 2 17 -1 38 -6 35 -5 36 10 17 9 -11 14 -29 11 -40
-3 -11 -6 -28 -6 -37 0 -31 -14 -20 -48 36 -32 54 -44 126 -21 126 7 0 8 -11
4 -31z m1132 19 c-2 -7 5 -23 16 -35 11 -13 15 -23 9 -23 -7 0 -12 4 -12 9 0
5 -9 11 -21 14 -18 5 -19 8 -7 26 14 23 22 28 15 9z m1248 -8 c3 -5 1 -10 -4
-10 -6 0 -11 5 -11 10 0 6 2 10 4 10 3 0 8 -4 11 -10z m-2255 -72 c0 -10 -4
-18 -10 -18 -5 0 -10 10 -10 23 0 12 -7 34 -16 47 -11 18 -8 16 10 -5 14 -16
26 -38 26 -47z m2831 59 c-6 -8 -8 -17 -4 -20 3 -4 1 -7 -5 -7 -15 0 -15 13 0
28 16 16 23 15 9 -1z m-4434 -49 c-2 -13 -4 -5 -4 17 -1 22 1 32 4 23 2 -10 2
-28 0 -40z m103 -7 c0 -40 -4 -61 -13 -64 -8 -3 -14 1 -14 9 0 8 4 14 8 14 4
0 4 12 0 28 -8 25 1 72 14 72 3 0 5 -27 5 -59z m1411 12 c-9 -16 -10 -16 -11
5 0 13 -4 20 -10 17 -6 -3 -7 1 -4 9 5 14 8 14 21 1 10 -11 11 -19 4 -32z
m1392 31 c-5 -18 -33 -44 -48 -44 -9 0 -14 4 -11 9 4 5 1 11 -6 13 -9 3 -8 8
2 20 15 16 67 18 63 2z m-2949 -19 c11 -8 16 -15 10 -15 -5 0 -18 7 -28 15
-11 8 -16 15 -10 15 5 0 18 -7 28 -15z m501 -215 c245 -169 414 -290 420 -300
14 -22 -7 -29 -28 -9 -36 33 -233 176 -362 262 -66 44 -156 105 -200 135 -44
31 -93 65 -110 76 -35 25 -45 37 -39 48 3 4 42 -19 87 -50 45 -32 150 -105
232 -162z m1856 190 c68 -12 128 -25 133 -30 17 -17 -2 -22 -46 -11 -24 6 -85
20 -135 33 -51 12 -93 26 -93 31 0 4 4 6 8 3 5 -3 64 -14 133 -26z m146 -6
c-3 -3 -12 -4 -19 -1 -8 3 -5 6 6 6 11 1 17 -2 13 -5z m-168 -33 c98 -13 191
-40 191 -55 0 -6 -17 -19 -38 -28 -20 -10 -59 -31 -87 -47 -52 -31 -89 -38
-100 -21 -10 16 -25 1 -18 -17 4 -11 2 -14 -8 -11 -8 2 -15 19 -17 36 -2 18
-7 32 -11 32 -12 0 -20 -38 -10 -44 5 -2 4 -3 -2 -2 -8 1 -12 32 -13 93 -1 78
1 90 14 83 8 -4 53 -13 99 -19z m1588 -8 c-3 -10 -5 -4 -5 12 0 17 2 24 5 18
2 -7 2 -21 0 -30z m-3129 13 c-7 -8 -15 -12 -17 -11 -5 6 10 25 20 25 5 0 4
-6 -3 -14z m2759 -8 c-3 -8 -6 -5 -6 6 -1 11 2 17 5 13 3 -3 4 -12 1 -19z
m-803 -19 c-3 -5 -10 -7 -15 -3 -5 3 -7 10 -3 15 3 5 10 7 15 3 5 -3 7 -10 3
-15z m476 -16 c0 -7 -4 -13 -10 -13 -5 0 -10 12 -10 28 0 21 2 24 10 12 5 -8
10 -21 10 -27z m-3063 -10 c-3 -10 -5 -4 -5 12 0 17 2 24 5 18 2 -7 2 -21 0
-30z m703 -14 c0 -24 -19 -34 -26 -15 -3 8 -12 12 -19 10 -7 -3 -16 0 -20 6
-4 7 2 9 19 6 22 -4 26 -1 26 17 0 18 -2 19 -10 7 -5 -8 -10 -10 -10 -4 0 6 3
14 7 18 10 9 33 -23 33 -45z m1833 44 c-7 -2 -19 -2 -25 0 -7 3 -2 5 12 5 14
0 19 -2 13 -5z m317 -56 c72 -15 130 -32 130 -40 0 -7 -65 6 -77 15 -9 7 -18
7 -28 -2 -11 -10 -18 -9 -30 4 -18 17 -50 22 -40 6 3 -5 13 -10 21 -10 8 0 13
-4 10 -9 -4 -5 13 -12 36 -16 48 -8 78 -21 78 -34 0 -10 -120 -57 -134 -53 -5
2 -6 -4 -3 -13 4 -8 2 -15 -3 -15 -6 0 -11 25 -11 55 -1 30 -3 60 -4 65 -1 6
-3 19 -4 30 0 11 -6 20 -12 20 -6 0 -9 -7 -5 -15 3 -8 0 -15 -7 -15 -7 0 -8
-3 -2 -8 8 -6 13 -79 7 -119 -1 -6 -15 -14 -32 -18 -16 -4 -30 -11 -30 -16 0
-6 -4 -8 -9 -4 -5 3 -30 1 -54 -5 -33 -7 -59 -6 -98 4 -30 7 -70 13 -89 13
-19 0 -46 3 -60 7 -19 6 -21 5 -10 -3 23 -16 -4 -13 -36 4 -16 8 -22 15 -14
16 10 0 7 4 -7 11 -12 6 -24 17 -27 24 -6 15 29 38 44 29 5 -3 11 -1 15 5 3 6
-4 10 -16 10 -32 0 -12 14 40 29 53 15 64 5 56 -54 -3 -22 0 -47 5 -55 7 -11
10 5 8 55 -3 69 -3 70 -33 75 -29 6 -30 6 -6 12 14 4 31 2 39 -4 10 -9 12 -8
10 3 -2 10 17 17 71 26 41 7 75 14 77 16 6 6 159 -11 234 -26z m527 1 c-3 -8
-6 -5 -6 6 -1 11 2 17 5 13 3 -3 4 -12 1 -19z m-1366 -43 c12 -13 17 -31 14
-50 -2 -17 -4 -33 -4 -37 -1 -5 -5 -8 -11 -8 -11 0 -40 93 -40 129 1 25 1 25
12 6 6 -11 19 -29 29 -40z m3549 45 c0 -5 -4 -10 -10 -10 -5 0 -10 5 -10 10 0
6 5 10 10 10 6 0 10 -4 10 -10z m-4936 -25 c-4 -8 -8 -15 -10 -15 -2 0 -4 7
-4 15 0 8 4 15 10 15 5 0 7 -7 4 -15z m2793 -62 c-2 -16 -4 -3 -4 27 0 30 2
43 4 28 2 -16 2 -40 0 -55z m-2750 17 c0 -28 -3 -52 -7 -55 -7 -4 -7 34 -1 93
3 29 7 8 8 -38z m2428 40 c-3 -5 -13 -10 -21 -10 -8 0 -12 5 -9 10 3 6 13 10
21 10 8 0 12 -4 9 -10z m-308 -62 c-3 -8 -6 -5 -6 6 -1 11 2 17 5 13 3 -3 4
-12 1 -19z m-2137 -2 c0 -3 -4 -8 -10 -11 -5 -3 -10 -1 -10 4 0 6 5 11 10 11
6 0 10 -2 10 -4z m979 -58 c-1 -68 -6 -61 -11 15 -2 26 0 47 4 47 5 0 7 -28 7
-62z m148 -10 c-2 -13 -4 -3 -4 22 0 25 2 35 4 23 2 -13 2 -33 0 -45z m1253 8
c0 -7 -10 -17 -22 -20 -22 -7 -22 -7 -3 -16 17 -7 16 -9 -10 -9 -16 -1 -36 -5
-44 -10 -8 -5 2 -8 28 -6 33 2 41 -1 41 -16 0 -9 3 -24 6 -33 4 -11 1 -16 -10
-16 -9 0 -16 8 -16 18 0 14 -2 14 -9 3 -7 -11 -25 -13 -85 -8 -45 4 -77 3 -81
-3 -3 -6 -14 -10 -23 -9 -11 0 -12 3 -4 6 6 2 12 11 12 19 0 8 -6 14 -12 15
-7 0 16 11 52 23 36 13 88 35 115 49 59 30 65 32 65 13z m2830 5 c0 -5 -9 -11
-20 -14 -11 -3 -20 -11 -19 -19 0 -10 2 -10 6 0 4 11 33 18 33 8 0 -2 3 -13 6
-23 4 -13 3 -14 -4 -5 -7 11 -16 10 -45 -5 -32 -16 -35 -22 -32 -50 3 -27 -1
-36 -28 -54 l-32 -21 28 24 c27 24 39 51 12 28 -12 -10 -16 -9 -21 4 -8 21
-24 10 -25 -17 0 -21 -1 -21 -9 -2 -8 18 -9 17 -9 -7 -1 -14 3 -28 9 -30 6 -2
6 -9 0 -18 -12 -20 -21 -8 -22 29 -1 25 -4 29 -14 20 -8 -6 -11 -16 -8 -21 17
-27 10 -59 -16 -78 -16 -11 -31 -20 -34 -20 -9 0 -7 38 3 44 5 3 11 16 14 28
6 22 6 22 -13 -2 -11 -14 -20 -19 -20 -12 0 8 12 24 28 37 15 13 70 60 122
104 93 79 110 90 110 72z m-5203 -38 c-3 -10 -5 -4 -5 12 0 17 2 24 5 18 2 -7
2 -21 0 -30z m2240 11 c-3 -3 -12 -4 -19 -1 -8 3 -5 6 6 6 11 1 17 -2 13 -5z
m638 -45 c-5 -48 -15 -65 -15 -26 0 15 -5 27 -12 27 -9 0 18 36 29 39 1 1 0
-18 -2 -40z m-702 24 c-7 -2 -19 -2 -25 0 -7 3 -2 5 12 5 14 0 19 -2 13 -5z
m-1073 -95 c0 -45 -3 -58 -15 -58 -8 0 -15 6 -16 13 0 6 -2 40 -3 75 -4 61 -3
63 15 46 15 -13 19 -31 19 -76z m687 70 c-3 -8 -6 -5 -6 6 -1 11 2 17 5 13 3
-3 4 -12 1 -19z m70 16 c-3 -3 -12 -4 -19 -1 -8 3 -5 6 6 6 11 1 17 -2 13 -5z
m253 -4 c0 -5 -2 -10 -4 -10 -3 0 -8 5 -11 10 -3 6 -1 10 4 10 6 0 11 -4 11
-10z m-604 -16 c-3 -9 -6 -33 -6 -55 0 -32 -3 -39 -20 -39 -17 0 -20 7 -20 40
0 42 15 69 39 70 8 0 11 -6 7 -16z m160 -14 c65 -12 123 -26 127 -30 13 -12
-75 -30 -175 -35 l-93 -5 -1 50 c-1 35 3 50 11 47 6 -3 65 -15 131 -27z m71
24 c-3 -3 -12 -4 -19 -1 -8 3 -5 6 6 6 11 1 17 -2 13 -5z m3425 -29 c-6 -34
-22 -42 -22 -11 0 13 6 27 13 29 6 3 13 6 13 6 1 1 -1 -10 -4 -24z m33 4 c-10
-15 -25 -10 -19 6 4 8 10 12 15 9 5 -3 7 -10 4 -15z m-3080 1 c-3 -5 -10 -10
-16 -10 -5 0 -9 5 -9 10 0 6 7 10 16 10 8 0 12 -4 9 -10z m393 -167 c-3 -102
-9 -189 -16 -203 -9 -19 -10 18 -7 165 4 234 3 215 16 215 8 0 10 -53 7 -177z
m-111 135 c-3 -7 -5 -2 -5 12 0 14 2 19 5 13 2 -7 2 -19 0 -25z m-339 15 c-10
-2 -28 -2 -40 0 -13 2 -5 4 17 4 22 1 32 -1 23 -4z m803 -98 c5 4 9 2 9 -3 0
-6 -7 -12 -15 -16 -12 -4 -15 5 -13 57 l2 62 3 -53 c2 -30 8 -50 14 -47z
m-924 69 c-3 -3 -12 -4 -19 -1 -8 3 -5 6 6 6 11 1 17 -2 13 -5z m408 -4 c19
-8 19 -9 -4 -9 -16 -1 -21 -5 -17 -16 4 -10 -1 -15 -14 -15 -22 0 -27 16 -7
23 7 3 4 6 -6 6 -10 1 -15 6 -12 11 7 12 32 12 60 0z m2582 -132 c-2 -29 -3
-8 -3 47 0 55 1 79 3 53 2 -26 2 -71 0 -100z m-77 129 c0 -2 -12 -14 -27 -28
l-28 -24 24 28 c23 25 31 32 31 24z m-2807 -33 c31 -3 59 -9 61 -13 2 -3 1
-26 -3 -51 -5 -34 -11 -45 -24 -44 -9 1 -17 -2 -17 -7 0 -5 10 -9 23 -9 13 0
17 -3 10 -8 -15 -9 -103 -3 -103 8 0 5 15 11 33 13 28 3 27 4 -10 5 -23 1 -45
-2 -48 -8 -9 -14 -45 -12 -42 2 1 7 -8 14 -21 16 -14 2 -20 8 -15 15 4 7 0 7
-10 -1 -12 -10 -38 -12 -99 -8 -46 3 -89 5 -95 5 -7 1 -13 9 -13 19 0 14 2 14
9 3 7 -11 10 -9 13 10 3 22 11 25 100 39 53 9 101 19 105 24 4 4 26 5 48 2 22
-3 66 -8 98 -12z m674 -6 c-3 -8 -6 -5 -6 6 -1 11 2 17 5 13 3 -3 4 -12 1 -19z
m2510 -34 c-2 -2 -12 -2 -21 2 -15 6 -15 7 1 20 15 11 19 10 21 -2 2 -9 2 -18
-1 -20z m-3048 7 c8 -5 11 -17 6 -32 -5 -19 -4 -21 4 -9 9 13 11 12 11 -5 0
-11 -5 -27 -10 -35 -8 -13 -10 -12 -10 4 0 20 0 20 -15 0 -13 -17 -14 -15 -15
34 0 53 4 59 29 43z m2543 -51 l-69 -60 -2 -107 c-1 -59 -4 -109 -6 -112 -3
-2 -5 46 -5 108 l0 113 38 33 c20 18 51 44 67 58 17 15 34 27 38 27 5 0 -23
-27 -61 -60z m-5628 28 c18 -25 22 -63 6 -53 -5 3 -10 15 -10 26 0 11 -7 22
-15 26 -24 9 -30 -5 -12 -25 21 -23 22 -33 2 -26 -18 7 -20 -17 -3 -34 16 -16
31 -15 22 1 -5 9 -4 9 6 0 21 -19 3 -28 -25 -13 -22 12 -25 20 -25 67 0 46 3
53 19 53 11 0 27 -10 35 -22z m1983 -20 c-3 -7 -5 -2 -5 12 0 14 2 19 5 13 2
-7 2 -19 0 -25z m563 8 c0 -21 -5 -24 -52 -29 -29 -2 -55 -3 -57 -1 -9 9 25
33 59 42 50 14 50 14 50 -12z m487 4 c-1 -11 -5 -20 -9 -20 -4 0 -8 9 -8 20 0
11 4 20 9 20 6 0 9 -9 8 -20z m3038 10 c-3 -5 0 -10 9 -10 8 0 16 6 19 13 2 6
8 9 12 5 4 -4 -3 -16 -16 -27 -18 -16 -20 -20 -8 -21 12 0 15 -8 13 -26 -1
-15 -6 -29 -11 -33 -4 -3 -24 -20 -43 -36 l-35 -30 33 35 c31 35 41 60 23 60
-5 0 -11 8 -13 17 -3 15 -4 15 -20 -1 -17 -17 -18 -17 -18 0 0 10 12 28 28 41
30 25 36 28 27 13z m-2127 -79 c16 -13 16 -13 -1 -7 -10 3 -21 6 -23 6 -2 0
-3 19 -2 43 1 40 1 40 5 7 2 -19 12 -41 21 -49z m2192 59 c0 -5 -5 -10 -11
-10 -5 0 -7 5 -4 10 3 6 8 10 11 10 2 0 4 -4 4 -10z m-2890 -86 c0 -32 -2 -34
-34 -34 l-33 0 -2 61 -1 60 35 -27 c28 -21 35 -33 35 -60z m-843 70 c-3 -3
-12 -4 -19 -1 -8 3 -5 6 6 6 11 1 17 -2 13 -5z m1479 -51 c-2 -32 -5 -82 -5
-111 -1 -29 -5 -51 -10 -48 -5 4 -11 3 -14 -1 -2 -5 -2 -1 1 7 3 8 8 58 13
110 8 107 7 100 15 100 3 0 3 -26 0 -57z m-852 17 c-6 -6 -10 -3 -10 10 0 13
4 16 10 10 7 -7 7 -13 0 -20z m3098 -2 c-7 -7 -12 -8 -12 -2 0 14 12 26 19 19
2 -3 -1 -11 -7 -17z m-3387 7 c-23 -8 -133 -11 -129 -3 3 4 35 8 72 7 37 0 63
-2 57 -4z m-1045 -46 c0 -3 -7 -12 -15 -19 -13 -11 -15 -7 -15 26 1 36 2 38
15 20 8 -11 15 -23 15 -27z m-1806 -13 c45 -24 108 -58 141 -76 33 -18 99 -53
146 -77 l86 -44 1 -70 c1 -38 -3 -69 -9 -69 -5 0 -9 9 -9 20 0 11 -4 20 -10
20 -5 0 -10 5 -10 11 0 5 4 8 9 5 5 -3 12 1 15 9 8 23 -4 73 -20 79 -17 7 -18
-6 -1 -23 9 -11 9 -13 0 -7 -10 5 -13 -6 -13 -44 0 -29 -3 -50 -7 -48 -5 3
-23 11 -41 19 -33 14 -34 14 -30 76 1 34 -1 65 -5 69 -6 6 -12 -54 -10 -103 1
-16 -2 -16 -36 1 -26 14 -27 17 -23 75 3 47 1 61 -9 61 -11 0 -13 -14 -11 -55
2 -30 0 -55 -4 -55 -5 0 -46 18 -91 41 -62 31 -83 46 -83 61 0 10 -5 16 -10
13 -6 -4 -8 -11 -5 -16 9 -13 -2 -11 -37 7 -28 14 -30 19 -24 52 3 21 6 54 6
75 0 20 3 37 7 37 3 0 43 -20 87 -44z m2871 39 c-21 -8 -258 -35 -263 -30 -3
3 1 5 9 5 8 1 52 7 99 14 78 13 179 20 155 11z m1095 -29 c0 -18 -7 -39 -15
-46 -13 -11 -15 -6 -15 34 0 34 4 46 15 46 10 0 15 -10 15 -34z m2099 -18 c1
-28 4 -54 6 -57 1 -3 -19 -21 -46 -40 -39 -26 -52 -31 -63 -22 -11 9 -15 9
-18 -1 -3 -7 -5 2 -6 21 0 22 7 42 24 60 13 14 24 30 24 36 0 10 30 33 60 47
8 4 15 7 16 7 0 1 1 -22 3 -51z m77 37 c-1 -8 -6 -18 -11 -22 -4 -4 -5 -2 -1
5 4 6 3 12 -2 12 -11 0 -37 -29 -45 -50 -3 -8 -6 -3 -6 13 -1 16 3 26 8 23 4
-3 16 3 26 14 21 24 34 26 31 5z m-3149 -1 c-3 -3 -12 -4 -19 -1 -8 3 -5 6 6
6 11 1 17 -2 13 -5z m2601 -58 c-32 -29 -64 -56 -73 -60 -9 -3 -14 -10 -10
-15 3 -5 1 -12 -4 -15 -5 -3 -11 1 -14 9 -4 9 10 26 36 47 23 18 56 45 72 60
17 15 34 28 40 28 5 0 -16 -24 -47 -54z m-2716 -6 c2 -22 1 -40 -2 -40 -3 -1
-43 -2 -90 -3 l-85 -2 -3 32 c-3 34 -6 32 63 46 11 3 41 5 66 6 l47 1 4 -40z
m151 24 c57 -19 63 -28 39 -52 -15 -15 -33 -19 -93 -18 l-74 1 -6 43 -5 42 46
0 c26 0 67 -7 93 -16z m-2568 -12 c-3 -3 -11 0 -18 7 -9 10 -8 11 6 5 10 -3
15 -9 12 -12z m3002 -14 c-3 -8 -6 -5 -6 6 -1 11 2 17 5 13 3 -3 4 -12 1 -19z
m-807 -15 c0 -13 -3 -13 -15 -3 -8 7 -12 16 -9 21 8 13 24 1 24 -18z m-2068
-43 c8 0 25 -10 38 -22 14 -13 26 -22 28 -20 1 2 22 -8 45 -23 28 -17 34 -24
17 -19 -14 4 -28 11 -31 17 -4 5 -12 7 -18 3 -5 -4 -19 2 -31 14 -11 11 -20
18 -20 15 0 -8 -88 53 -96 67 -4 7 6 2 23 -10 17 -12 37 -22 45 -22z m1203 30
c3 -5 1 -10 -4 -10 -6 0 -11 5 -11 10 0 6 2 10 4 10 3 0 8 -4 11 -10z m4392
-20 c1 -11 -3 -23 -9 -26 -8 -5 -9 -1 -4 12 6 16 3 15 -18 -5 -19 -18 -22 -26
-13 -36 10 -11 16 -10 32 3 12 10 3 0 -18 -20 -39 -39 -63 -52 -34 -20 12 14
13 19 2 29 -9 8 -15 9 -24 0 -6 -6 -11 -7 -11 -2 0 4 -8 -1 -17 -11 -10 -11
-30 -25 -45 -33 -15 -8 -37 -23 -48 -34 -12 -10 -23 -17 -26 -14 -6 6 102 93
176 141 30 20 55 36 55 36 0 0 1 -9 2 -20z m-5673 1 c3 -5 -2 -8 -12 -7 -28 2
-29 -59 -2 -74 30 -16 18 -23 -14 -9 -21 10 -26 19 -26 50 0 20 6 40 13 42 20
8 35 8 41 -2z m3676 -1 c0 -5 -4 -10 -10 -10 -5 0 -10 5 -10 10 0 6 5 10 10
10 6 0 10 -4 10 -10z m-2382 -37 c-4 -52 -28 -56 -28 -4 0 30 4 41 16 41 11 0
14 -9 12 -37z m3677 -10 c-7 -29 -23 -45 -37 -37 -5 3 -8 2 -7 -3 1 -4 -1 -15
-4 -23 -4 -8 -8 -35 -10 -60 -3 -33 -4 -28 -4 17 0 35 -3 66 -6 70 -7 7 51 62
67 63 4 0 5 -12 1 -27z m-4910 -33 c2 -16 -1 -27 -6 -24 -5 3 -9 0 -9 -5 0 -6
-7 -11 -16 -11 -13 0 -13 5 5 33 11 19 19 37 16 40 -3 4 -2 5 1 2 4 -2 8 -18
9 -35z m1938 -10 c5 0 7 -3 4 -6 -11 -11 -37 17 -36 40 0 18 2 17 11 -6 5 -16
15 -28 21 -28z m508 28 c14 -23 -9 -31 -83 -29 -76 2 -178 27 -178 44 0 15
252 0 261 -15z m169 -19 c0 -11 -4 -19 -10 -19 -5 0 -10 12 -10 26 0 16 -4 23
-12 18 -7 -4 -8 -3 -4 5 11 17 36 -5 36 -30z m320 -4 c0 -16 33 -77 120 -220
40 -66 74 -123 77 -127 2 -5 2 -8 -1 -8 -7 0 -84 120 -151 236 -31 54 -61 101
-66 102 -5 2 -9 18 -9 35 1 30 1 31 15 13 8 -11 15 -25 15 -31z m-1400 -60 c0
-52 -3 -95 -7 -95 -5 0 -8 39 -7 88 1 95 2 102 9 102 3 0 5 -43 5 -95z m3424
80 c-6 -16 -24 -21 -24 -7 0 11 11 22 21 22 5 0 6 -7 3 -15z m-2939 -5 c3 -5
2 -10 -4 -10 -5 0 -13 5 -16 10 -3 6 -2 10 4 10 5 0 13 -4 16 -10z m-1965 -4
c0 -2 3 -13 7 -23 6 -15 4 -16 -9 -6 -8 7 -18 10 -21 6 -4 -3 -7 1 -7 10 0 10
7 17 15 17 8 0 15 -2 15 -4z m1449 -83 c0 -49 -3 -80 -7 -71 -7 17 -4 158 4
158 2 0 4 -39 3 -87z m4041 83 c0 -2 -8 -10 -17 -17 -16 -13 -17 -12 -4 4 13
16 21 21 21 13z m-3476 -12 c9 -3 16 -17 16 -30 0 -18 -4 -22 -17 -17 -21 8
-33 23 -33 41 0 13 10 15 34 6z m3433 -34 c1 -11 -6 -24 -16 -29 -13 -8 -17
-5 -18 12 -2 19 11 36 27 37 3 0 6 -9 7 -20z m-5350 -72 c-2 -18 -4 -6 -4 27
0 33 2 48 4 33 2 -15 2 -42 0 -60z m2161 38 c3 -4 3 -8 0 -11 -5 -5 -94 37
-107 51 -3 3 18 -3 48 -15 29 -11 56 -22 59 -25z m-2248 3 l0 -31 -32 19 c-43
25 -44 38 -3 40 33 3 35 1 35 -28z m3526 -6 c-8 -15 -15 -25 -16 -21 0 12 23
58 27 54 3 -2 -2 -17 -11 -33z m-3740 -11 c-2 -15 -5 -44 -5 -64 -1 -21 -6
-38 -12 -38 -9 0 -9 27 0 133 1 5 6 5 11 2 6 -4 8 -19 6 -33z m2334 23 c17 -9
30 -19 30 -24 0 -14 -61 -5 -71 10 -20 32 -5 38 41 14z m3260 -1 c-8 -8 -23
-20 -34 -25 -13 -6 -10 0 9 15 34 29 43 33 25 10z m-5301 -196 c1 -38 -1 -68
-3 -68 -3 0 -16 4 -31 10 -25 9 -26 13 -23 66 2 34 -1 58 -7 61 -6 2 -11 -9
-12 -24 0 -16 -1 -40 -2 -55 l-1 -28 -55 27 -55 27 -2 66 -2 65 -3 -63 c-3
-52 -7 -63 -19 -58 -9 3 -17 6 -19 6 -2 0 -1 26 2 59 3 37 1 61 -6 65 -8 5
-11 -12 -11 -53 0 -50 -3 -59 -15 -55 -11 5 -15 24 -15 80 l0 73 139 -67 140
-67 0 -67z m2334 165 c-7 -2 -21 -2 -30 0 -10 3 -4 5 12 5 17 0 24 -2 18 -5z
m-1258 -93 c-2 -30 -7 -55 -12 -55 -9 0 -12 97 -4 129 4 19 4 19 11 0 4 -10 6
-44 5 -74z m1065 80 c-8 -5 -19 -10 -25 -10 -5 0 -3 5 5 10 8 5 20 10 25 10 6
0 3 -5 -5 -10z m2781 -42 c-3 -55 -22 -81 -53 -74 -9 2 -15 -1 -13 -8 5 -14
-132 -109 -145 -101 -6 3 -10 13 -10 21 0 8 -5 14 -12 14 -16 0 20 38 43 45
11 4 19 11 19 16 0 6 -12 2 -27 -9 -31 -22 -81 -48 -72 -38 8 9 263 184 269
185 3 1 3 -22 1 -51z m228 39 c-2 -1 -26 -20 -54 -41 l-50 -38 45 41 c25 23
49 41 54 41 5 0 7 -1 5 -3z m-3980 -91 c1 -50 -2 -87 -9 -91 -7 -4 -10 24 -10
84 0 115 17 120 19 7z m28 62 c-3 -8 -6 -5 -6 6 -1 11 2 17 5 13 3 -3 4 -12 1
-19z m3933 -11 c0 -2 -10 -12 -22 -23 l-23 -19 19 23 c18 21 26 27 26 19z
m-3933 -209 c-1 -40 -3 -10 -3 67 0 77 1 110 3 73 2 -37 2 -100 0 -140z m1560
170 c-3 -8 -6 -5 -6 6 -1 11 2 17 5 13 3 -3 4 -12 1 -19z m-1390 -10 c-3 -8
-6 -5 -6 6 -1 11 2 17 5 13 3 -3 4 -12 1 -19z m546 15 c-7 -2 -19 -2 -25 0 -7
3 -2 5 12 5 14 0 19 -2 13 -5z m2794 -15 c-3 -8 -6 -5 -6 6 -1 11 2 17 5 13 3
-3 4 -12 1 -19z m298 -23 c-22 -19 -44 -35 -49 -35 -11 0 -11 1 38 39 53 42
61 39 11 -4z m-2235 -47 c0 -6 -7 -5 -15 2 -8 7 -15 17 -15 22 0 6 7 5 15 -2
8 -7 15 -17 15 -22z m2140 -27 c-13 -9 -38 -28 -55 -42 -34 -29 -151 -109
-159 -109 -4 0 -6 6 -6 13 0 14 231 169 239 161 3 -4 -5 -14 -19 -23z m-3839
7 c1 -7 0 -17 -1 -23 -1 -5 -2 -27 -1 -48 0 -22 -3 -36 -9 -32 -12 7 -11 115
1 115 5 0 10 -6 10 -12z m1083 6 c39 -6 46 -10 41 -25 -4 -11 -2 -19 4 -19 6
0 11 10 11 21 0 19 4 21 31 15 17 -3 40 -6 50 -6 14 0 19 -7 19 -25 0 -14 -3
-25 -7 -26 -5 -1 -41 -3 -81 -5 -41 -2 -81 -8 -89 -13 -9 -4 -27 -5 -42 0 -14
5 -39 11 -55 14 -20 4 -26 9 -17 14 7 5 12 11 12 15 -2 17 1 22 22 32 28 14
43 16 101 8z m646 -29 c14 -19 14 -19 -2 -6 -10 7 -18 18 -18 24 0 6 1 8 3 6
1 -2 9 -13 17 -24z m-790 8 c-1 -35 -14 -53 -41 -53 -39 0 -40 34 -1 48 34 13
42 14 42 5z m2660 3 c0 -2 3 -13 6 -23 6 -16 5 -15 -9 2 -14 18 -16 10 -16
-103 l0 -123 27 18 c15 10 58 38 95 62 37 24 67 48 67 52 0 5 7 5 17 2 11 -4
14 -3 9 5 -10 16 -31 15 -46 -3 -7 -8 -17 -12 -23 -8 -6 3 -7 1 -3 -5 4 -7 1
-12 -8 -12 -9 0 -16 4 -16 8 0 9 95 82 106 82 4 0 16 7 26 17 10 9 21 13 25 9
10 -10 -36 -48 -49 -40 -6 4 -8 3 -4 -4 3 -5 1 -12 -6 -14 -6 -2 -8 -10 -4
-17 6 -9 11 -8 20 5 10 13 15 14 21 4 5 -9 4 -11 -3 -6 -7 4 -12 3 -12 -2 0
-6 -39 -36 -87 -67 -49 -32 -104 -68 -123 -81 l-35 -24 -5 127 c-5 120 -1 142
23 143 4 0 7 -2 7 -4z m-3513 -103 c-2 -16 -4 -3 -4 27 0 30 2 43 4 28 2 -16
2 -40 0 -55z m740 5 c-3 -7 -5 -2 -5 12 0 14 2 19 5 13 2 -7 2 -19 0 -25z
m1117 16 c5 -14 4 -15 -9 -4 -17 14 -19 20 -6 20 5 0 12 -7 15 -16z m-876 -11
c-26 -2 -71 -2 -100 0 -29 2 -8 3 47 3 55 0 79 -1 53 -3z m125 -16 c16 -6 18
-19 16 -117 -1 -61 1 -114 5 -117 3 -4 6 48 6 115 0 95 3 122 13 122 13 0 27
-48 42 -145 4 -29 3 -36 -4 -25 -15 21 -13 4 2 -21 13 -21 13 -21 -40 -56 -15
-11 -13 -11 10 -3 42 15 47 13 47 -19 0 -17 3 -32 8 -34 4 -3 5 15 3 39 -4 52
7 56 37 14 13 -16 27 -30 33 -30 26 0 48 -45 48 -95 -1 -40 -3 -45 -9 -25 -7
22 -8 21 -9 -12 -1 -47 -21 -51 -21 -5 0 33 -23 77 -41 77 -5 0 -1 -10 11 -22
11 -12 21 -36 21 -52 1 -17 5 -83 9 -146 5 -89 7 -100 8 -47 1 37 6 67 10 67
4 0 20 -6 34 -12 l27 -13 0 -129 c1 -73 5 -134 11 -140 19 -19 10 -27 -24 -21
-19 4 -36 2 -40 -3 -4 -6 2 -8 14 -5 23 6 25 0 9 -28 -6 -12 -17 -18 -25 -15
-9 4 -12 2 -8 -5 4 -7 0 -9 -14 -5 -15 5 -22 1 -27 -14 -5 -17 -12 -20 -31
-16 -13 4 -24 2 -24 -3 0 -6 -10 -16 -22 -22 -19 -9 -21 -9 -10 2 16 18 16 34
-1 20 -22 -17 -27 -2 -26 73 l1 71 20 -60 c24 -71 25 -72 39 -58 8 8 5 40 -11
115 -28 133 -42 166 -73 174 -26 6 -44 45 -31 65 3 6 -4 20 -16 31 -19 18 -20
22 -7 36 28 33 29 57 2 87 -22 22 -32 26 -57 21 -17 -3 -37 -11 -45 -17 -18
-15 -17 -69 2 -96 9 -13 11 -24 5 -28 -5 -3 -14 -24 -20 -46 -7 -26 -19 -44
-35 -51 -17 -7 -27 -26 -38 -67 -17 -60 -35 -157 -39 -206 -2 -24 -7 -29 -22
-27 -17 3 -18 2 -7 -12 9 -11 10 -16 2 -16 -6 0 -19 9 -28 20 -10 11 -23 20
-30 20 -6 0 -15 4 -18 10 -7 11 23 2 43 -13 22 -17 13 4 -10 23 -14 11 -32 17
-45 14 -22 -6 -44 19 -42 48 0 7 4 4 9 -7 5 -12 9 84 9 237 1 248 2 258 24
293 23 38 17 37 112 20 17 -3 1 4 -35 16 -43 14 -66 17 -68 10 -2 -6 -13 -11
-23 -11 -12 0 -17 5 -14 11 4 5 8 21 9 34 2 13 11 32 21 42 18 17 18 17 12
-15 -4 -18 -2 -32 3 -32 10 0 14 21 10 55 -1 11 -3 47 -5 80 -1 33 -1 42 2 20
7 -61 20 -63 16 -3 -2 29 0 59 6 67 7 11 41 15 147 17 96 2 140 6 142 14 3 7
7 8 11 3 3 -5 14 -12 24 -16z m-826 -199 c-1 -40 -3 -8 -3 72 0 80 2 112 3 73
2 -40 2 -106 0 -145z m-370 160 c-3 -7 -5 -2 -5 12 0 14 2 19 5 13 2 -7 2 -19
0 -25z m829 -125 c-3 -8 -11 -11 -16 -8 -8 5 -7 12 2 23 10 12 10 16 1 19 -16
6 -16 37 0 88 l12 40 3 -74 c2 -41 1 -80 -2 -88z m2872 122 c-3 -3 -13 -2 -22
1 -14 5 -15 9 -4 15 13 8 36 -6 26 -16z m-847 -32 c-11 -16 -11 -15 -5 6 4 17
3 21 -6 16 -9 -6 -11 -4 -5 4 5 9 11 9 17 3 7 -7 6 -16 -1 -29z m64 27 c3 -5
1 -10 -4 -10 -6 0 -11 5 -11 10 0 6 2 10 4 10 3 0 8 -4 11 -10z m-1370 -30
c-4 -12 -9 -19 -12 -17 -3 3 -2 15 2 27 4 12 9 19 12 17 3 -3 2 -15 -2 -27z
m1332 8 c-3 -8 -6 -5 -6 6 -1 11 2 17 5 13 3 -3 4 -12 1 -19z m793 12 c0 -5
-4 -10 -10 -10 -5 0 -10 5 -10 10 0 6 5 10 10 10 6 0 10 -4 10 -10z m-3673
-37 c-3 -10 -5 -4 -5 12 0 17 2 24 5 18 2 -7 2 -21 0 -30z m2783 -35 c0 -5 9
-4 21 2 29 16 35 6 7 -12 -33 -21 -77 -34 -61 -18 6 7 9 18 7 25 -3 6 2 12 11
12 8 0 15 -4 15 -9z m-770 -30 c0 -5 -7 -3 -15 6 -8 8 -15 18 -15 22 0 3 7 1
15 -6 8 -7 15 -17 15 -22z m-1463 -35 c-3 -10 -5 -2 -5 17 0 19 2 27 5 18 2
-10 2 -26 0 -35z m763 -4 c0 -5 -4 -9 -10 -9 -5 0 -10 7 -10 16 0 8 5 12 10 9
6 -3 10 -10 10 -16z m213 -24 c-7 -21 -13 -19 -13 6 0 11 4 18 10 14 5 -3 7
-12 3 -20z m32 -7 c-4 -18 -12 -37 -17 -43 -10 -10 -2 49 9 68 10 17 14 5 8
-25z m1182 10 c-3 -8 -6 -5 -6 6 -1 11 2 17 5 13 3 -3 4 -12 1 -19z m151 1
c-2 -6 -6 -9 -10 -7 -3 2 -15 -6 -27 -16 -12 -11 -24 -16 -27 -13 -4 3 9 15
27 26 39 24 42 25 37 10z m1059 -86 c-3 -10 -5 -2 -5 17 0 19 2 27 5 18 2 -10
2 -26 0 -35z m-1107 18 c0 -6 -4 -13 -10 -16 -5 -3 -10 1 -10 9 0 9 5 16 10
16 6 0 10 -4 10 -9z m-1 -52 c-9 -5 -15 -4 -18 2 -2 6 3 15 10 20 9 5 15 4 18
-2 2 -6 -3 -15 -10 -20z m-1101 -41 l-1 -63 -6 50 c-6 47 -4 75 5 75 2 0 3
-28 2 -62z m1144 20 c-7 -7 -12 -8 -12 -2 0 14 12 26 19 19 2 -3 -1 -11 -7
-17z m-38 -22 c-10 -8 -21 -12 -23 -10 -3 2 4 11 15 18 10 8 21 12 23 10 3 -2
-4 -11 -15 -18z m-1281 -24 c-6 -24 -23 -30 -23 -9 0 13 21 39 26 34 2 -2 1
-13 -3 -25z m2384 -19 c-3 -10 -5 -2 -5 17 0 19 2 27 5 18 2 -10 2 -26 0 -35z
m1043 -67 c0 -2 -9 -6 -20 -9 -11 -3 -18 -1 -14 4 5 9 34 13 34 5z m-2230 -59
c0 -5 -4 -5 -10 -2 -5 3 -10 14 -10 23 0 15 2 15 10 2 5 -8 10 -19 10 -23z
m2164 18 c-10 -8 -23 -15 -28 -15 -6 0 -1 7 10 15 10 8 23 15 28 15 6 0 1 -7
-10 -15z m83 0 c2 -6 -48 -61 -110 -123 -100 -100 -115 -111 -127 -97 -11 13
-11 18 0 28 10 10 12 9 7 -5 -8 -21 3 -31 20 -17 15 13 18 33 3 24 -5 -3 -10
2 -10 11 0 14 3 15 12 6 15 -15 31 -16 22 0 -4 7 -3 8 4 4 16 -10 15 6 0 24
-11 12 -10 12 6 0 16 -13 21 -10 52 24 29 32 32 41 22 55 -10 13 -10 14 2 4
18 -16 31 -17 28 -1 -2 7 3 13 10 14 6 1 15 2 18 3 4 0 1 7 -5 15 -8 10 -9 16
-1 21 6 3 8 10 5 14 -2 5 5 8 17 7 12 0 23 -6 25 -11z m-3449 -45 c-2 -3 5
-17 14 -32 15 -23 15 -28 2 -47 -13 -18 -13 -20 1 -15 18 7 21 -12 3 -19 -10
-4 -10 -7 -1 -14 21 -15 -5 -92 -33 -99 -14 -4 -27 -16 -30 -30 -3 -13 -9 -22
-13 -19 -8 5 -5 146 4 184 4 15 1 27 -7 32 -8 5 -9 9 -2 9 6 0 9 10 7 24 -4
17 0 26 14 29 22 6 45 4 41 -3z m-1318 -41 c0 -5 -4 -9 -10 -9 -5 0 -10 7 -10
16 0 8 5 12 10 9 6 -3 10 -10 10 -16z m4560 -22 c0 -2 -10 -12 -22 -23 l-23
-19 19 23 c18 21 26 27 26 19z m-3007 -32 c-3 -9 -8 -14 -10 -11 -3 3 -2 9 2
15 9 16 15 13 8 -4z m3000 -16 c-11 -4 -30 -20 -41 -36 -12 -15 -22 -22 -22
-15 0 17 62 72 74 64 5 -3 0 -9 -11 -13z m-6435 -5 c72 -43 180 -221 322 -529
11 -24 80 -198 80 -202 0 -1 -6 0 -14 3 -9 3 -16 -5 -21 -23 -6 -26 -8 -27
-20 -10 -7 10 -48 105 -90 211 -70 177 -157 354 -222 448 -17 25 -36 39 -57
44 -40 7 -80 40 -72 59 7 20 61 19 94 -1z m3389 -121 c-2 -21 -4 -4 -4 37 0
41 2 58 4 38 2 -21 2 -55 0 -75z m750 75 c-3 -7 -5 -2 -5 12 0 14 2 19 5 13 2
-7 2 -19 0 -25z m2220 0 c-3 -8 -6 -5 -6 6 -1 11 2 17 5 13 3 -3 4 -12 1 -19z
m-20 -41 c2 -32 1 -33 -22 -7 -17 18 -17 20 -2 14 18 -7 24 11 7 19 -6 3 -5 4
2 3 7 -1 14 -15 15 -29z m-2197 -201 c-16 -76 -115 -250 -171 -300 -53 -48
-323 -187 -305 -157 4 6 58 35 120 66 124 61 214 133 246 196 24 47 25 50 3
42 -10 -3 4 16 31 43 58 57 74 108 78 244 l2 85 3 -84 c2 -47 -1 -107 -7 -135z
m2240 203 c0 -8 6 -7 17 2 41 35 2 -13 -50 -59 -47 -43 -62 -51 -82 -46 -26 6
-35 -10 -12 -20 6 -3 2 -3 -10 0 -13 3 -31 0 -40 -6 -16 -10 -16 -11 3 -7 33
7 23 -22 -17 -52 -21 -16 -29 -19 -20 -8 13 16 13 20 0 28 -22 14 -33 11 -19
-6 9 -11 10 -15 1 -15 -7 0 -10 -8 -7 -17 4 -13 -11 -30 -54 -63 -33 -25 -68
-52 -79 -60 -10 -8 -29 -22 -41 -30 -12 -8 -28 -21 -36 -28 -7 -7 -15 -8 -18
-3 -4 5 0 11 6 14 10 4 10 7 1 17 -10 11 -14 10 -19 -4 -5 -13 -9 -14 -20 -5
-11 9 -14 9 -14 0 0 -7 -5 -9 -12 -5 -7 4 -8 3 -4 -5 4 -6 10 -9 14 -7 4 2 15
-1 24 -8 18 -13 13 -18 -79 -88 -7 -6 -14 -4 -19 3 -4 7 -3 9 3 6 6 -4 16 0
23 7 9 12 7 17 -9 25 -29 16 -39 13 -17 -4 17 -13 18 -15 3 -15 -9 0 -17 5
-17 10 0 6 -4 10 -10 10 -14 0 -12 -27 3 -33 7 -4 8 -6 1 -6 -11 -1 -40 27
-33 32 2 1 18 12 35 24 31 22 58 18 52 -8 -4 -18 24 -18 30 0 3 8 0 11 -7 7
-6 -4 -11 -2 -11 4 0 7 8 9 19 5 11 -3 23 0 27 6 4 8 3 9 -5 5 -6 -4 -18 -2
-26 4 -11 10 -15 10 -15 1 0 -7 -5 -9 -12 -5 -7 5 2 18 27 40 22 18 43 30 49
27 24 -15 64 -11 89 10 23 19 25 24 13 40 -13 16 -15 16 -29 2 -9 -9 -13 -23
-10 -32 5 -12 3 -14 -6 -8 -8 4 -17 2 -21 -5 -4 -7 -13 -9 -19 -6 -17 11 -13
26 6 19 10 -4 14 -2 10 4 -4 6 8 20 25 32 32 20 33 20 53 1 18 -17 24 -18 40
-7 14 11 15 16 5 22 -8 5 -11 4 -7 -2 4 -6 0 -13 -8 -16 -9 -4 -12 -1 -9 7 3
7 -2 16 -12 20 -13 5 -14 9 -4 21 7 8 16 13 20 10 4 -3 15 6 24 20 14 21 22
24 49 20 28 -4 30 -4 15 9 -10 7 -18 16 -18 19 0 4 8 4 18 0 9 -3 14 -3 10 1
-3 4 15 26 40 49 26 23 50 46 53 51 4 5 12 -1 18 -13 12 -21 31 -21 31 0 0 6
-5 7 -12 3 -7 -4 -8 -3 -4 4 4 6 14 9 24 6 9 -2 7 1 -5 7 -27 14 -28 22 -8 39
13 11 14 10 8 -5 -5 -14 -3 -17 10 -12 11 4 14 2 11 -7 -3 -7 2 -16 12 -20 19
-7 47 11 38 26 -8 12 3 38 16 38 5 0 10 -5 10 -11z m-4855 -19 c3 -5 2 -10 -4
-10 -5 0 -13 5 -16 10 -3 6 -2 10 4 10 5 0 13 -4 16 -10z m1121 -47 c-14 -104
-18 -123 -26 -123 -23 0 -18 54 15 158 10 30 17 8 11 -35z m-631 -43 c3 -5 1
-10 -4 -10 -6 0 -11 5 -11 10 0 6 2 10 4 10 3 0 8 -4 11 -10z m1265 -30 c0 -5
-2 -10 -4 -10 -3 0 -8 5 -11 10 -3 6 -1 10 4 10 6 0 11 -4 11 -10z m-680 -62
c0 -6 -6 -5 -15 2 -8 7 -15 14 -15 16 0 2 7 1 15 -2 8 -4 15 -11 15 -16z
m-2544 -74 c27 -18 44 -51 44 -84 0 -17 -3 -18 -25 -8 -14 6 -25 14 -25 17 0
4 -20 13 -45 20 -37 11 -43 16 -34 27 8 10 9 18 0 27 -27 33 36 33 85 1z
m-101 -14 c3 -5 1 -10 -4 -10 -6 0 -11 5 -11 10 0 6 2 10 4 10 3 0 8 -4 11
-10z m3252 -26 c-3 -3 -12 -4 -19 -1 -8 3 -5 6 6 6 11 1 17 -2 13 -5z m1128
-44 c6 -20 -22 -80 -37 -80 -13 0 -9 58 4 80 16 25 25 25 33 0z m-1710 -20 c4
-6 -9 -10 -32 -9 -34 1 -35 2 -13 9 35 11 38 11 45 0z m-565 -22 c0 -6 -6 -5
-15 2 -8 7 -15 14 -15 16 0 2 7 1 15 -2 8 -4 15 -11 15 -16z m730 -4 c0 -8 -4
-12 -10 -9 -5 3 -10 13 -10 21 0 8 5 12 10 9 6 -3 10 -13 10 -21z m185 -4 c4
-6 -6 -7 -27 -3 -44 8 -48 13 -10 13 17 0 34 -4 37 -10z m-78 -22 c-3 -8 -6
-5 -6 6 -1 11 2 17 5 13 3 -3 4 -12 1 -19z m-267 2 c0 -4 -3 -21 -6 -37 -5
-25 -10 -29 -40 -30 -19 -1 -34 3 -34 8 0 9 22 13 48 10 6 -1 12 3 12 9 0 5
-3 9 -7 9 -5 -1 -17 -1 -28 0 -17 1 -18 3 -5 11 13 8 12 10 -3 10 -10 0 -15 4
-12 10 7 11 75 11 75 0z m170 -19 c0 -17 -5 -18 -42 -14 -58 8 -60 13 -7 14
37 1 40 2 19 9 l-25 8 28 1 c20 1 27 -4 27 -18z m128 7 c-2 -7 11 -15 27 -18
l30 -6 -30 -6 c-30 -6 -45 4 -45 30 0 6 5 12 10 12 6 0 9 -5 8 -12z m522 2 c0
-5 -5 -10 -11 -10 -5 0 -7 5 -4 10 3 6 8 10 11 10 2 0 4 -4 4 -10z m-1053 -6
c-3 -3 -12 -4 -19 -1 -8 3 -5 6 6 6 11 1 17 -2 13 -5z m1883 -111 c0 -29 -4
-53 -9 -53 -9 0 -21 84 -20 135 l1 30 13 -30 c8 -16 14 -54 15 -82z m1440 94
c0 -2 -10 -12 -22 -23 l-23 -19 19 23 c18 21 26 27 26 19z m-3192 -14 c-10 -2
-28 -2 -40 0 -13 2 -5 4 17 4 22 1 32 -1 23 -4z m250 -13 c19 0 31 -4 27 -10
-6 -10 -55 -3 -90 12 -17 7 -16 8 5 3 14 -2 40 -5 58 -5z m2972 0 c0 -5 -2
-10 -4 -10 -3 0 -8 5 -11 10 -3 6 -1 10 4 10 6 0 11 -4 11 -10z m-37 -15 c-3
-9 -8 -14 -10 -11 -3 3 -2 9 2 15 9 16 15 13 8 -4z m72 5 c-3 -5 -12 -10 -18
-10 -7 0 -6 4 3 10 19 12 23 12 15 0z m-3212 -27 c-13 -2 -33 -2 -45 0 -13 2
-3 4 22 4 25 0 35 -2 23 -4z m172 -3 c-3 -5 -12 -10 -18 -10 -7 0 -6 4 3 10
19 12 23 12 15 0z m3014 7 c-37 -27 -56 -34 -56 -22 0 8 3 12 7 10 3 -2 12 0
20 6 13 8 40 14 29 6z m-4336 -89 c24 -34 50 -88 42 -88 -2 0 -12 14 -21 31
-9 17 -37 52 -62 77 -43 41 -44 44 -15 29 18 -10 43 -32 56 -49z m1331 51 c-6
-11 -64 -12 -64 -1 0 4 16 8 35 8 19 1 32 -3 29 -7z m166 -9 c0 -5 -2 -10 -4
-10 -3 0 -8 5 -11 10 -3 6 -1 10 4 10 6 0 11 -4 11 -10z m-340 -15 c0 -8 -4
-15 -10 -15 -5 0 -7 7 -4 15 4 8 8 15 10 15 2 0 4 -7 4 -15z m-1845 -5 c3 -6
-1 -7 -9 -4 -18 7 -21 14 -7 14 6 0 13 -4 16 -10z m1932 4 c-3 -3 -12 -4 -19
-1 -8 3 -5 6 6 6 11 1 17 -2 13 -5z m-1915 -33 c42 -16 80 -26 84 -22 4 3 4 0
0 -6 -6 -12 -59 4 -161 47 -49 21 8 7 77 -19z m2021 22 c-7 -2 -19 -2 -25 0
-7 3 -2 5 12 5 14 0 19 -2 13 -5z m2820 -27 c3 -8 0 -19 -7 -25 -10 -9 -12 -6
-8 14 5 29 8 31 15 11z m-4728 -6 c25 -11 -1 -11 -35 0 -20 6 -21 8 -5 8 11 0
29 -3 40 -8z m1918 -9 c8 -8 0 -11 -28 -12 -32 0 -36 -2 -20 -9 19 -8 19 -9
-2 -9 -12 -1 -25 4 -28 9 -4 6 -12 10 -18 9 -29 -3 -57 2 -57 10 0 19 135 20
153 2z m1337 1 c0 -11 -41 -44 -48 -38 -3 3 3 15 13 26 18 20 35 26 35 12z
m-3185 -50 c-5 -6 -74 18 -80 27 -2 5 15 1 40 -8 24 -8 42 -17 40 -19z m1558
31 c-7 -2 -21 -2 -30 0 -10 3 -4 5 12 5 17 0 24 -2 18 -5z m-1488 -13 c13 -5
14 -9 5 -9 -8 0 -24 4 -35 9 -13 5 -14 9 -5 9 8 0 24 -4 35 -9z m1855 -5 c0
-17 -2 -18 -25 -9 -13 5 -14 8 -3 15 19 13 28 11 28 -6z m1146 -5 c-28 -11
-52 -18 -54 -15 -3 2 6 8 19 13 13 5 31 12 39 15 8 3 22 6 30 6 8 0 -7 -9 -34
-19z m-1051 0 c18 -8 17 -9 -7 -9 -16 -1 -28 4 -28 9 0 12 8 12 35 0z m685 5
c0 -8 -62 -37 -67 -31 -4 3 9 12 28 20 39 18 39 17 39 11z m-2580 -15 c0 -5
-7 -10 -15 -10 -8 0 -15 5 -15 10 0 6 7 10 15 10 8 0 15 -4 15 -10z m-55 -18
c-3 -3 -11 0 -18 7 -9 10 -8 11 6 5 10 -3 15 -9 12 -12z m75 3 c-10 -13 -9
-15 11 -16 13 0 19 -3 13 -5 -6 -2 -28 0 -50 5 -32 7 -34 9 -11 10 15 1 27 6
27 11 0 6 5 10 11 10 8 0 8 -5 -1 -15z m115 -15 l20 -9 -20 -1 c-19 -1 -19 -1
-1 -12 12 -6 47 -9 90 -6 39 3 60 2 46 -2 -14 -4 -24 -11 -23 -17 2 -10 -16
-7 -157 26 l-35 9 35 2 35 3 -35 7 c-34 7 -34 7 -5 8 17 0 39 -3 50 -8z m1554
-6 c2 -2 -20 -4 -50 -4 -38 0 -50 3 -39 10 13 8 78 4 89 -6z m1171 11 c0 -7
-81 -47 -86 -42 -6 6 58 47 74 47 6 0 12 -2 12 -5z m-923 -11 c-3 -3 -12 -4
-19 -1 -8 3 -5 6 6 6 11 1 17 -2 13 -5z m1331 -25 c-7 -12 -47 -37 -88 -56
-42 -19 -94 -53 -117 -76 -53 -51 -56 -35 -5 26 50 61 86 88 146 109 70 24 79
23 64 -3z m-1518 7 c0 -2 -9 -6 -20 -9 -11 -3 -18 -1 -14 4 5 9 34 13 34 5z
m740 -6 c0 -5 -12 -10 -27 -9 -25 0 -26 1 -8 9 27 12 35 12 35 0z m-2143 -6
c-3 -3 -12 -4 -19 -1 -8 3 -5 6 6 6 11 1 17 -2 13 -5z m1718 -4 c18 -8 17 -9
-6 -9 -14 -1 -55 -4 -90 -7 -45 -5 -61 -3 -54 4 9 9 38 14 115 20 8 0 24 -3
35 -8z m-1745 -14 c8 0 26 4 40 8 17 5 21 4 11 -2 -11 -8 -9 -11 8 -17 13 -4
25 -4 28 -1 4 3 1 6 -5 6 -7 0 -12 4 -12 8 0 5 7 9 15 9 8 0 15 -6 15 -14 0
-16 17 -17 22 -2 6 18 223 -2 223 -20 0 -8 8 -15 17 -17 27 -3 93 -47 80 -52
-7 -2 -33 8 -58 22 -37 21 -60 26 -113 26 -58 0 -133 10 -288 35 -24 4 -43 12
-43 17 0 5 10 6 23 2 12 -4 29 -8 37 -8z m1375 4 l50 -8 -60 1 c-33 0 -69 4
-80 8 -16 6 -14 8 10 7 17 0 53 -3 80 -8z m-190 -30 c-7 -12 -42 -12 -70 0
-15 6 -8 9 28 9 30 1 46 -3 42 -9z m240 -12 c7 -7 -4 -8 -40 -3 -72 10 -94 27
-25 20 30 -3 59 -11 65 -17z m-2125 -3 c0 -8 -2 -15 -4 -15 -2 0 -6 7 -10 15
-3 8 -1 15 4 15 6 0 10 -7 10 -15z m2286 -23 c-10 -2 -22 0 -28 6 -6 6 0 7 19
4 21 -5 23 -7 9 -10z m-458 1 c-16 -2 -40 -2 -55 0 -16 2 -3 4 27 4 30 0 43
-2 28 -4z m265 -20 c-7 -2 -21 -2 -30 0 -10 3 -4 5 12 5 17 0 24 -2 18 -5z
m-220 -23 c-10 -10 -65 -1 -58 9 2 4 18 6 35 3 17 -2 28 -8 23 -12z m620 -17
c-13 -2 -35 -2 -50 0 -16 2 -5 4 22 4 28 0 40 -2 28 -4z m1132 -37 c-11 -8
-23 -12 -28 -9 -13 8 3 23 26 23 20 0 20 0 2 -14z m95 -8 c0 -12 -52 -48 -70
-48 -4 0 -10 7 -14 15 -3 9 5 20 22 29 33 19 62 20 62 4z m-142 -19 c-11 -6
-24 -6 -34 -1 -12 7 -8 9 18 10 26 1 30 -1 16 -9z m-1311 -5 c-3 -3 -12 -4
-19 -1 -8 3 -5 6 6 6 11 1 17 -2 13 -5z m-998 -50 c3 -16 1 -17 -13 -5 -19 16
-21 34 -3 29 6 -3 14 -13 16 -24z m601 10 c0 -2 -15 -4 -32 -4 -23 0 -29 3
-19 9 12 8 51 4 51 -5z m-70 -8 c0 -8 -4 -18 -10 -21 -5 -3 -10 3 -10 14 0 12
5 21 10 21 6 0 10 -6 10 -14z m500 -7 c0 -10 -40 -23 -47 -16 -3 3 -2 10 1 16
7 11 46 11 46 0z m-844 -56 c-10 -10 -19 5 -10 18 6 11 8 11 12 0 2 -7 1 -15
-2 -18z m904 7 c0 -5 -7 -10 -16 -10 -8 0 -12 5 -9 10 3 6 10 10 16 10 5 0 9
-4 9 -10z m-963 -6 c-3 -3 -12 -4 -19 -1 -8 3 -5 6 6 6 11 1 17 -2 13 -5z
m909 -10 c-3 -9 -6 -20 -6 -25 0 -13 -77 -11 -86 2 -5 8 3 10 25 7 17 -2 31
-1 31 4 0 4 -16 8 -36 8 -21 0 -33 4 -29 10 3 6 29 10 57 10 42 0 49 -3 44
-16z m1047 9 c-7 -2 -19 -2 -25 0 -7 3 -2 5 12 5 14 0 19 -2 13 -5z m-950 -30
c-7 -2 -19 -2 -25 0 -7 3 -2 5 12 5 14 0 19 -2 13 -5z m2467 -63 c0 -5 -5 -10
-11 -10 -5 0 -7 5 -4 10 3 6 8 10 11 10 2 0 4 -4 4 -10z m-3057 -42 c-15 -7
-36 -8 -65 -1 l-43 9 65 1 c53 1 61 -1 43 -9z m52 2 c3 -5 2 -10 -4 -10 -5 0
-13 5 -16 10 -3 6 -2 10 4 10 5 0 13 -4 16 -10z m453 -9 c17 -10 -37 -31 -77
-30 -23 0 -24 1 -6 9 16 7 17 9 3 9 -9 1 -20 -4 -23 -9 -5 -8 -12 -7 -22 2
-13 11 -13 13 4 19 25 11 105 10 121 0z m-378 -35 c0 -2 -7 -7 -16 -10 -8 -3
-12 -2 -9 4 6 10 25 14 25 6z m214 -28 c-6 -10 -4 -10 8 0 20 16 61 3 49 -17
-6 -8 -14 -10 -22 -5 -8 5 -25 7 -38 5 -14 -2 -21 1 -17 8 4 7 1 8 -8 5 -9 -3
-16 -1 -16 5 0 6 12 11 26 11 17 0 23 -4 18 -12z m151 -8 c4 -6 -6 -10 -22 -9
-25 0 -26 1 -8 9 11 5 21 9 22 9 1 1 5 -3 8 -9z m-547 -67 c-10 -2 -26 -2 -35
0 -10 3 -2 5 17 5 19 0 27 -2 18 -5z m-618 -58 c27 -15 20 -19 -17 -9 -13 4
-23 10 -23 15 0 12 11 11 40 -6z"/>
<path d="M3573 7469 c-18 -5 -33 -14 -33 -20 0 -6 9 -8 19 -4 11 3 25 -1 34
-9 13 -14 16 -14 21 0 8 22 8 44 -1 43 -5 0 -23 -5 -40 -10z"/>
<path d="M3670 6980 c10 -6 11 -10 3 -10 -7 0 -13 -9 -13 -20 0 -11 4 -20 9
-20 4 0 13 -15 18 -32 9 -31 10 -29 8 18 -3 56 -9 74 -28 74 -7 0 -6 -4 3 -10z"/>
<path d="M4510 6909 c0 -11 5 -17 10 -14 6 3 10 13 10 21 0 8 -4 14 -10 14 -5
0 -10 -9 -10 -21z"/>
<path d="M3746 6795 c4 -8 11 -15 16 -15 6 0 5 6 -2 15 -7 8 -14 15 -16 15 -2
0 -1 -7 2 -15z"/>
<path d="M4556 6857 c-11 -23 -22 -45 -24 -49 -2 -5 0 -8 5 -8 10 0 45 78 41
91 -2 4 -12 -11 -22 -34z"/>
<path d="M5994 6218 l-29 -33 30 25 c17 14 34 28 40 32 5 5 5 8 -1 8 -6 0 -23
-15 -40 -32z"/>
<path d="M3638 6503 c18 -2 45 -2 60 0 15 2 0 4 -33 4 -33 0 -45 -2 -27 -4z"/>
<path d="M3728 6483 c7 -3 16 -2 19 1 4 3 -2 6 -13 5 -11 0 -14 -3 -6 -6z"/>
<path d="M3613 6473 c9 -2 25 -2 35 0 9 3 1 5 -18 5 -19 0 -27 -2 -17 -5z"/>
<path d="M3688 6453 c7 -3 16 -2 19 1 4 3 -2 6 -13 5 -11 0 -14 -3 -6 -6z"/>
<path d="M4669 6494 c-21 -25 -232 -206 -248 -212 -25 -9 -61 -49 -61 -66 0
-23 24 -15 29 10 4 23 21 35 41 29 9 -3 67 46 149 125 74 72 127 130 119 130
-9 0 -22 -7 -29 -16z"/>
<path d="M4135 6389 c-4 -6 -5 -12 -2 -15 2 -3 7 2 10 11 7 17 1 20 -8 4z"/>
<path d="M4288 6343 c7 -3 16 -2 19 1 4 3 -2 6 -13 5 -11 0 -14 -3 -6 -6z"/>
<path d="M4101 6274 c0 -11 3 -14 6 -6 3 7 2 16 -1 19 -3 4 -6 -2 -5 -13z"/>
<path d="M4301 6251 c-10 -6 -9 -10 3 -14 8 -3 18 -2 21 3 8 13 -9 20 -24 11z"/>
<path d="M4405 6240 c-3 -5 -2 -10 4 -10 5 0 13 5 16 10 3 6 2 10 -4 10 -5 0
-13 -4 -16 -10z"/>
<path d="M3880 6219 c0 -5 5 -7 10 -4 6 3 10 8 10 11 0 2 -4 4 -10 4 -5 0 -10
-5 -10 -11z"/>
<path d="M4610 6145 c0 -8 6 -15 13 -15 8 0 8 -3 -2 -9 -8 -5 -11 -16 -7 -26
5 -14 9 -15 21 -5 12 10 15 9 15 -4 0 -9 5 -16 10 -16 6 0 10 -11 10 -24 0
-47 8 -53 58 -48 58 5 72 14 16 11 -49 -3 -70 7 -54 26 6 8 7 16 2 19 -14 8
-5 88 10 97 8 6 4 8 -14 7 -16 -1 -28 -7 -28 -12 0 -6 -5 -5 -12 2 -17 17 -38
15 -38 -3z m57 -57 c-3 -8 -6 -5 -6 6 -1 11 2 17 5 13 3 -3 4 -12 1 -19z"/>
<path d="M4177 6123 c-4 -3 -19 -8 -33 -9 -30 -3 -52 -20 -41 -31 4 -4 12 -2
18 4 6 6 17 9 24 7 7 -3 16 -1 20 5 3 6 15 11 26 11 10 0 19 5 19 10 0 11 -23
14 -33 3z"/>
<path d="M4538 6093 c7 -3 16 -2 19 1 4 3 -2 6 -13 5 -11 0 -14 -3 -6 -6z"/>
<path d="M4064 6081 c3 -5 -4 -11 -16 -14 -12 -4 -19 -9 -16 -12 3 -4 18 0 33
8 23 12 25 15 11 20 -9 4 -15 3 -12 -2z"/>
<path d="M4180 6079 c0 -5 5 -7 10 -4 6 3 10 8 10 11 0 2 -4 4 -10 4 -5 0 -10
-5 -10 -11z"/>
<path d="M4867 6073 c-4 -3 -7 -16 -6 -27 0 -19 1 -19 10 3 10 24 8 36 -4 24z"/>
<path d="M3968 6053 c16 -6 6 -23 -14 -23 -8 0 -12 5 -9 10 3 6 1 10 -5 10 -7
0 -10 -6 -7 -12 5 -16 67 -12 82 4 7 8 5 9 -7 5 -10 -3 -20 -2 -23 3 -4 6 -12
10 -18 9 -9 0 -8 -2 1 -6z"/>
<path d="M4610 6050 c0 -5 5 -10 10 -10 6 0 10 5 10 10 0 6 -4 10 -10 10 -5 0
-10 -4 -10 -10z"/>
<path d="M4232 6033 c-17 -30 -15 -37 4 -19 8 9 14 22 11 29 -2 7 -8 4 -15
-10z"/>
<path d="M3758 6033 c6 -2 18 -2 25 0 6 3 1 5 -13 5 -14 0 -19 -2 -12 -5z"/>
<path d="M4176 6013 c-6 -14 -5 -15 5 -6 7 7 10 15 7 18 -3 3 -9 -2 -12 -12z"/>
<path d="M4365 5970 c-4 -34 -5 -63 -2 -66 3 -3 8 22 12 56 4 34 5 63 2 66 -3
3 -8 -22 -12 -56z"/>
<path d="M4405 6002 c-7 -19 -6 -19 27 -13 l28 6 -25 11 c-19 9 -25 9 -30 -4z"/>
<path d="M4586 5998 c3 -4 14 -8 25 -8 11 0 18 4 14 9 -3 6 -14 9 -25 8 -10
-1 -16 -5 -14 -9z"/>
<path d="M4433 5970 c-30 -12 -29 -20 3 -20 14 0 23 4 19 9 -3 5 3 12 12 14
12 3 13 5 3 5 -8 0 -25 -3 -37 -8z"/>
<path d="M4347 5877 c-4 -10 -7 -28 -6 -40 0 -21 1 -21 10 2 5 14 8 32 7 40
-3 13 -5 13 -11 -2z"/>
<path d="M3408 5733 c7 -3 16 -2 19 1 4 3 -2 6 -13 5 -11 0 -14 -3 -6 -6z"/>
<path d="M3450 5710 c0 -5 11 -10 24 -10 14 0 28 5 31 10 4 6 -7 10 -24 10
-17 0 -31 -4 -31 -10z"/>
<path d="M3545 5700 c3 -5 8 -10 11 -10 2 0 4 5 4 10 0 6 -5 10 -11 10 -5 0
-7 -4 -4 -10z"/>
<path d="M4433 5703 c9 -2 25 -2 35 0 9 3 1 5 -18 5 -19 0 -27 -2 -17 -5z"/>
<path d="M3608 5693 c7 -3 16 -2 19 1 4 3 -2 6 -13 5 -11 0 -14 -3 -6 -6z"/>
<path d="M4337 5683 c-4 -3 -7 -11 -7 -17 0 -6 5 -5 12 2 6 6 9 14 7 17 -3 3
-9 2 -12 -2z"/>
<path d="M3440 5516 c0 -2 7 -6 15 -10 8 -3 15 -1 15 4 0 6 -7 10 -15 10 -8 0
-15 -2 -15 -4z"/>
<path d="M4943 6349 c-14 -37 -13 -41 6 -30 7 5 11 21 9 36 l-3 28 -12 -34z"/>
<path d="M5017 6353 c-12 -11 -8 -23 8 -23 8 0 15 7 15 15 0 16 -12 20 -23 8z"/>
<path d="M6607 6090 c-8 -11 -35 -37 -61 -57 -40 -31 -45 -38 -31 -46 11 -6
21 -5 28 3 9 8 7 9 -8 4 -18 -6 -17 -4 4 20 19 20 27 23 34 14 6 -9 7 -8 3 5
-3 9 -1 17 4 17 5 0 18 9 29 21 12 13 21 17 26 10 3 -6 1 -11 -6 -11 -7 0 -9
-3 -6 -6 4 -4 13 -1 21 6 13 10 13 14 1 26 -18 18 -21 18 -38 -6z"/>
<path d="M6364 5863 c0 -20 4 -29 10 -23 6 6 5 18 -1 32 -10 21 -10 21 -9 -9z"/>
<path d="M6363 5770 c0 -30 2 -43 4 -27 2 15 2 39 0 55 -2 15 -4 2 -4 -28z"/>
<path d="M6575 5683 l-29 -37 37 28 c20 16 37 32 37 37 0 18 -16 8 -45 -28z"/>
<path d="M6390 5661 c0 -6 5 -13 10 -16 6 -3 10 -16 11 -28 0 -12 3 -16 6 -9
2 6 9 10 14 6 5 -3 9 2 9 10 0 9 -4 16 -10 16 -5 0 -10 7 -10 15 0 8 -7 15
-15 15 -8 0 -15 -4 -15 -9z"/>
<path d="M6461 5654 c0 -11 3 -14 6 -6 3 7 2 16 -1 19 -3 4 -6 -2 -5 -13z"/>
<path d="M6500 5660 c0 -5 5 -10 10 -10 6 0 10 5 10 10 0 6 -4 10 -10 10 -5 0
-10 -4 -10 -10z"/>
<path d="M6460 5598 c0 -15 18 -17 30 -3 9 11 8 14 -9 12 -12 -1 -21 -5 -21
-9z"/>
<path d="M6435 5580 c3 -5 8 -10 11 -10 2 0 4 5 4 10 0 6 -5 10 -11 10 -5 0
-7 -4 -4 -10z"/>
<path d="M4781 5784 c0 -11 3 -14 6 -6 3 7 2 16 -1 19 -3 4 -6 -2 -5 -13z"/>
<path d="M5401 5604 c0 -11 3 -14 6 -6 3 7 2 16 -1 19 -3 4 -6 -2 -5 -13z"/>
<path d="M5400 5559 c0 -5 5 -7 10 -4 6 3 10 8 10 11 0 2 -4 4 -10 4 -5 0 -10
-5 -10 -11z"/>
<path d="M6709 5633 c-13 -16 -12 -17 4 -4 16 13 21 21 13 21 -2 0 -10 -8 -17
-17z"/>
<path d="M4371 5414 c0 -11 3 -14 6 -6 3 7 2 16 -1 19 -3 4 -6 -2 -5 -13z"/>
<path d="M4355 5380 c-3 -5 1 -10 10 -10 9 0 13 5 10 10 -3 6 -8 10 -10 10 -2
0 -7 -4 -10 -10z"/>
<path d="M3267 5398 c8 -46 13 -48 13 -5 0 21 -4 37 -10 37 -5 0 -7 -14 -3
-32z"/>
<path d="M3918 5193 c-35 -8 -18 -28 25 -29 61 -1 143 -10 156 -18 6 -4 16 -4
22 0 20 12 -51 34 -110 34 -31 0 -61 4 -66 8 -6 5 -18 7 -27 5z"/>
<path d="M4195 5190 c-3 -6 5 -10 19 -10 32 0 42 15 11 18 -13 1 -27 -3 -30
-8z"/>
<path d="M4118 5183 c6 -2 18 -2 25 0 6 3 1 5 -13 5 -14 0 -19 -2 -12 -5z"/>
<path d="M3660 5110 c0 -6 7 -10 15 -10 8 0 15 2 15 4 0 2 -7 6 -15 10 -8 3
-15 1 -15 -4z"/>
<path d="M3610 5056 c0 -9 5 -16 10 -16 6 0 10 4 10 9 0 6 -4 13 -10 16 -5 3
-10 -1 -10 -9z"/>
<path d="M3815 5050 c3 -5 19 -10 36 -10 16 0 29 5 29 10 0 6 -16 10 -36 10
-21 0 -33 -4 -29 -10z"/>
<path d="M3966 5037 c3 -10 9 -15 12 -12 3 3 0 11 -7 18 -10 9 -11 8 -5 -6z"/>
<path d="M3747 5019 c-10 -6 -31 -7 -48 -4 -29 7 -30 6 -27 -26 2 -18 9 -35
17 -37 10 -3 12 0 8 11 -4 12 4 21 29 33 19 9 37 20 40 25 7 11 3 11 -19 -2z"/>
<path d="M3770 4960 c0 -5 5 -10 11 -10 5 0 7 5 4 10 -3 6 -8 10 -11 10 -2 0
-4 -4 -4 -10z"/>
<path d="M3286 4963 c-6 -14 -5 -15 5 -6 7 7 10 15 7 18 -3 3 -9 -2 -12 -12z"/>
<path d="M3417 4940 c3 -11 14 -20 24 -20 24 0 24 9 2 26 -25 19 -32 17 -26
-6z"/>
<path d="M2932 4815 c0 -16 2 -22 5 -12 2 9 2 23 0 30 -3 6 -5 -1 -5 -18z"/>
<path d="M2930 4743 c0 -10 5 -25 10 -33 7 -11 10 -7 10 18 0 17 -4 32 -10 32
-5 0 -10 -8 -10 -17z"/>
<path d="M1040 4939 c0 -5 5 -7 10 -4 6 3 10 8 10 11 0 2 -4 4 -10 4 -5 0 -10
-5 -10 -11z"/>
<path d="M1040 4876 c0 -34 15 -55 28 -41 4 4 2 10 -5 12 -8 3 -10 15 -6 34 3
18 1 29 -6 29 -6 0 -11 -15 -11 -34z"/>
<path d="M4652 4830 c0 -19 2 -27 5 -17 2 9 2 25 0 35 -3 9 -5 1 -5 -18z"/>
<path d="M1173 4846 c0 -21 2 -23 13 -11 8 7 14 18 14 24 0 6 -6 11 -14 11 -8
0 -13 -10 -13 -24z"/>
<path d="M1170 4796 c0 -9 5 -16 10 -16 6 0 10 4 10 9 0 6 -4 13 -10 16 -5 3
-10 -1 -10 -9z"/>
<path d="M4273 4813 c9 -2 25 -2 35 0 9 3 1 5 -18 5 -19 0 -27 -2 -17 -5z"/>
<path d="M4258 4763 c12 -2 30 -2 40 0 9 3 -1 5 -23 4 -22 0 -30 -2 -17 -4z"/>
<path d="M3861 4794 c0 -11 3 -14 6 -6 3 7 2 16 -1 19 -3 4 -6 -2 -5 -13z"/>
<path d="M3790 4756 c0 -5 18 -6 40 -3 23 3 40 1 40 -5 0 -5 5 -6 10 -3 22 14
8 21 -40 20 -27 0 -50 -4 -50 -9z"/>
<path d="M2852 4540 c0 -14 2 -19 5 -12 2 6 2 18 0 25 -3 6 -5 1 -5 -13z"/>
<path d="M3550 4741 c0 -12 4 -19 10 -16 6 3 10 2 10 -4 0 -5 -5 -11 -12 -13
-7 -3 -6 -7 5 -11 22 -8 23 20 2 47 -15 19 -15 19 -15 -3z"/>
<path d="M4090 4730 c0 -5 5 -10 11 -10 5 0 7 5 4 10 -3 6 -8 10 -11 10 -2 0
-4 -4 -4 -10z"/>
<path d="M4531 4594 c0 -11 3 -14 6 -6 3 7 2 16 -1 19 -3 4 -6 -2 -5 -13z"/>
<path d="M3830 4620 c8 -5 20 -10 25 -10 6 0 3 5 -5 10 -8 5 -19 10 -25 10 -5
0 -3 -5 5 -10z"/>
<path d="M4108 4543 c7 -3 16 -2 19 1 4 3 -2 6 -13 5 -11 0 -14 -3 -6 -6z"/>
<path d="M4216 4503 c5 -5 12 -12 16 -18 4 -6 8 -2 8 8 0 9 -7 17 -17 17 -9 0
-12 -3 -7 -7z"/>
<path d="M3700 4449 c0 -5 9 -9 20 -9 11 0 20 2 20 4 0 2 -9 6 -20 9 -11 3
-20 1 -20 -4z"/>
<path d="M3878 4453 c7 -3 16 -2 19 1 4 3 -2 6 -13 5 -11 0 -14 -3 -6 -6z"/>
<path d="M6976 4224 c-9 -23 -2 -28 13 -10 7 8 8 17 3 20 -6 3 -13 -1 -16 -10z"/>
<path d="M6872 4120 c0 -19 2 -27 5 -17 2 9 2 25 0 35 -3 9 -5 1 -5 -18z"/>
<path d="M6840 4079 c0 -5 5 -7 10 -4 6 3 10 8 10 11 0 2 -4 4 -10 4 -5 0 -10
-5 -10 -11z"/>
<path d="M3546 4190 c-11 -3 -15 -9 -10 -13 10 -6 42 9 34 16 -3 3 -14 1 -24
-3z"/>
<path d="M810 3931 c0 -37 10 -62 21 -55 5 3 9 16 9 30 0 13 4 24 10 24 5 0 7
7 3 16 -5 13 -7 13 -14 2 -7 -10 -9 -10 -9 0 0 6 -4 12 -10 12 -5 0 -10 -13
-10 -29z"/>
<path d="M867 3923 c-4 -3 -7 -25 -7 -47 0 -31 5 -44 21 -54 24 -16 42 -4 53
34 11 36 -44 91 -67 67z m33 -22 c0 -6 -4 -13 -10 -16 -5 -3 -10 1 -10 9 0 9
5 16 10 16 6 0 10 -4 10 -9z m17 -33 c-3 -8 -6 -5 -6 6 -1 11 2 17 5 13 3 -3
4 -12 1 -19z m-40 -20 c-3 -8 -6 -5 -6 6 -1 11 2 17 5 13 3 -3 4 -12 1 -19z"/>
<path d="M950 3850 c0 -45 -2 -51 -17 -46 -16 5 -15 4 1 -9 10 -8 22 -12 27
-10 4 3 10 -1 13 -7 3 -7 4 16 3 51 -1 41 -7 66 -14 69 -9 2 -13 -11 -13 -48z
m17 -42 c-3 -8 -6 -5 -6 6 -1 11 2 17 5 13 3 -3 4 -12 1 -19z"/>
<path d="M1137 3783 c-10 -9 -9 -23 2 -23 5 0 11 7 15 15 5 15 -5 20 -17 8z"/>
<path d="M1135 3701 c-6 -11 9 -23 19 -14 9 9 7 23 -3 23 -6 0 -12 -4 -16 -9z"/>
<path d="M6842 3912 c-30 -31 -37 -62 -14 -62 19 0 72 58 72 78 0 31 -19 25
-58 -16z"/>
<path d="M6910 3749 c0 -5 5 -7 10 -4 6 3 10 8 10 11 0 2 -4 4 -10 4 -5 0 -10
-5 -10 -11z"/>
<path d="M1437 3617 c-2 -18 -1 -41 4 -52 7 -17 8 -17 8 -2 1 9 5 17 9 17 14
0 10 59 -4 64 -7 3 -14 -7 -17 -27z"/>
<path d="M6449 3643 c-12 -15 -12 -16 3 -10 9 3 19 1 21 -6 3 -7 4 -2 4 11 -1
26 -10 28 -28 5z"/>
<path d="M6410 3622 c0 -5 -16 -17 -35 -27 -19 -11 -32 -21 -30 -23 2 -2 20 6
40 18 31 19 39 20 46 9 10 -16 12 -8 3 15 -6 17 -24 22 -24 8z"/>
<path d="M3902 3260 c0 -14 2 -19 5 -12 2 6 2 18 0 25 -3 6 -5 1 -5 -13z"/>
<path d="M3755 3100 c-13 -6 -15 -9 -5 -9 8 0 22 4 30 9 18 12 2 12 -25 0z"/>
<path d="M3698 3083 c6 -2 18 -2 25 0 6 3 1 5 -13 5 -14 0 -19 -2 -12 -5z"/>
<path d="M7621 2847 c-6 -8 -8 -17 -4 -20 7 -8 33 11 33 24 0 13 -16 11 -29
-4z"/>
<path d="M1096 2547 c3 -10 9 -15 12 -12 3 3 0 11 -7 18 -10 9 -11 8 -5 -6z"/>
<path d="M7370 2594 c0 -8 5 -12 10 -9 6 4 8 11 5 16 -9 14 -15 11 -15 -7z"/>
<path d="M7295 2530 c-10 -11 -14 -20 -9 -20 12 1 44 25 44 34 0 12 -17 6 -35
-14z"/>
<path d="M7196 2497 l-38 -33 24 -11 c17 -7 29 -8 39 -1 12 8 12 9 -1 5 -8 -2
-20 1 -27 8 -9 10 -4 17 23 31 19 10 34 22 34 26 0 15 -15 8 -54 -25z"/>
<path d="M7093 2407 c1 -6 -14 -19 -33 -29 -31 -16 -28 -23 7 -19 6 1 14 -3
18 -8 3 -6 18 1 35 15 21 20 26 29 18 38 -15 16 -48 18 -45 3z m22 -27 c-20
-22 -39 -27 -32 -7 2 6 9 12 15 12 5 0 14 3 18 8 17 16 16 6 -1 -13z"/>
<path d="M7641 3374 c0 -11 3 -14 6 -6 3 7 2 16 -1 19 -3 4 -6 -2 -5 -13z"/>
<path d="M7565 3249 c-4 -6 -5 -12 -2 -15 2 -3 7 2 10 11 7 17 1 20 -8 4z"/>
<path d="M7601 3244 c0 -11 3 -14 6 -6 3 7 2 16 -1 19 -3 4 -6 -2 -5 -13z"/>
<path d="M7562 3208 c-7 -7 -12 -16 -12 -21 0 -5 7 -1 16 8 9 9 14 18 12 20
-2 3 -10 -1 -16 -7z"/>
<path d="M7535 3159 c-4 -6 -5 -12 -2 -15 2 -3 7 2 10 11 7 17 1 20 -8 4z"/>
<path d="M7520 3119 c0 -6 5 -7 12 -3 8 5 9 2 5 -9 -3 -9 -2 -19 2 -22 5 -2
11 6 13 18 3 17 0 23 -14 24 -10 1 -18 -3 -18 -8z"/>
<path d="M7505 3050 c-3 -5 -1 -10 4 -10 6 0 11 5 11 10 0 6 -2 10 -4 10 -3 0
-8 -4 -11 -10z"/>
<path d="M7491 3004 c0 -11 3 -14 6 -6 3 7 2 16 -1 19 -3 4 -6 -2 -5 -13z"/>
<path d="M7531 2963 c-1 -6 -4 -20 -7 -30 -5 -17 -5 -17 6 0 6 10 9 23 6 30
-3 9 -5 9 -5 0z"/>
</g>
</svg>
