<?xml version="1.0" standalone="no"?>
<!DOCTYPE svg PUBLIC "-//W3C//DTD SVG 20010904//EN"
 "http://www.w3.org/TR/2001/REC-SVG-20010904/DTD/svg10.dtd">
<svg version="1.0" xmlns="http://www.w3.org/2000/svg"
 width="768.000000pt" height="768.000000pt" viewBox="0 0 768.000000 768.000000"
 preserveAspectRatio="xMidYMid meet">

<g transform="translate(0.000000,768.000000) scale(0.100000,-0.100000)"
fill="#000000" stroke="none">
<path d="M6755 6830 c-16 -4 -25 -9 -20 -10 6 -2 -6 -6 -25 -10 -33 -7 -32 -7
15 -9 36 0 46 2 35 9 -10 7 3 9 45 8 40 -1 48 -3 24 -5 -31 -3 -36 -7 -32 -24
5 -17 0 -19 -37 -19 l-42 0 3 -37 c2 -21 8 -41 14 -45 6 -5 6 -8 -2 -8 -7 0
-13 -4 -13 -10 0 -14 37 -12 44 3 5 10 7 10 12 0 3 -7 14 -13 25 -13 22 0 25
-20 7 -39 -10 -11 -10 -14 0 -18 6 -3 12 -11 12 -20 0 -12 -2 -12 -16 2 -9 9
-19 13 -23 9 -3 -4 0 -9 7 -11 6 -3 12 -8 12 -13 0 -13 -29 -20 -36 -8 -5 7
-2 8 7 3 11 -6 12 -5 2 5 -11 12 -15 11 -26 -5 -8 -10 -18 -15 -24 -12 -5 3
-10 -11 -11 -34 -2 -26 1 -39 10 -39 7 0 19 -9 26 -20 7 -12 18 -17 29 -13 11
4 14 3 9 -5 -4 -7 -2 -12 5 -12 7 0 9 8 6 21 -5 19 -4 19 16 6 12 -8 23 -25
24 -38 2 -24 2 -24 -6 1 -10 27 -13 21 -15 -26 -2 -43 -27 -67 -59 -55 -30 12
-37 6 -37 -31 0 -32 11 -36 36 -11 13 13 16 14 12 3 -2 -8 2 -21 9 -29 22 -22
9 -36 -31 -33 -20 2 -44 -2 -54 -7 -12 -7 33 -9 143 -5 l160 5 3 304 2 305
-107 -1 c-60 -1 -121 -5 -138 -9z m162 -16 c-3 -3 -12 -4 -19 -1 -8 3 -5 6 6
6 11 1 17 -2 13 -5z m61 -1 c-10 -2 -26 -2 -35 0 -10 3 -2 5 17 5 19 0 27 -2
18 -5z m-178 -103 c-7 -4 -9 -13 -5 -20 4 -7 -5 -5 -24 4 -17 9 -31 18 -31 19
0 2 16 4 37 4 21 1 31 -2 23 -7z m75 0 c-3 -5 -14 -10 -23 -9 -14 0 -13 2 3 9
27 11 27 11 20 0z m-30 -48 c-3 -3 -11 0 -18 7 -9 10 -8 11 6 5 10 -3 15 -9
12 -12z m15 -37 c-14 -17 -30 -20 -30 -6 0 5 8 12 18 14 9 3 19 5 21 6 2 0 -2
-6 -9 -14z m0 -45 c0 -5 -4 -10 -10 -10 -5 0 -10 5 -10 10 0 6 5 10 10 10 6 0
10 -4 10 -10z m-100 -50 c0 -5 -4 -10 -10 -10 -5 0 -10 5 -10 10 0 6 5 10 10
10 6 0 10 -4 10 -10z m109 -104 c-2 -27 -2 -28 -6 -6 -3 14 -10 31 -15 38 -8
9 -7 11 6 6 10 -4 16 -17 15 -38z m-11 -89 c12 -3 10 -5 -5 -6 -19 -1 -23 4
-22 27 1 22 2 23 6 5 2 -12 12 -24 21 -26z m22 23 c0 -5 -2 -10 -4 -10 -3 0
-8 5 -11 10 -3 6 -1 10 4 10 6 0 11 -4 11 -10z m-68 -59 c-14 -14 -18 -15 -26
-3 -10 16 10 33 30 25 9 -3 8 -9 -4 -22z m175 -53 c-3 -8 -6 -5 -6 6 -1 11 2
17 5 13 3 -3 4 -12 1 -19z m-107 2 c0 -5 -7 -10 -16 -10 -8 0 -12 5 -9 10 3 6
10 10 16 10 5 0 9 -4 9 -10z"/>
<path d="M6018 6823 c12 -2 32 -2 45 0 12 2 2 4 -23 4 -25 0 -35 -2 -22 -4z"/>
<path d="M6288 6823 c6 -2 18 -2 25 0 6 3 1 5 -13 5 -14 0 -19 -2 -12 -5z"/>
<path d="M6598 6823 c23 -2 61 -2 85 0 23 2 4 4 -43 4 -47 0 -66 -2 -42 -4z"/>
<path d="M6640 6744 c0 -14 4 -23 9 -20 5 3 7 15 4 26 -7 28 -13 25 -13 -6z"/>
<path d="M6591 6724 c0 -11 3 -14 6 -6 3 7 2 16 -1 19 -3 4 -6 -2 -5 -13z"/>
<path d="M6592 6530 c0 -19 2 -27 5 -17 2 9 2 25 0 35 -3 9 -5 1 -5 -18z"/>
<path d="M6722 6395 c0 -25 5 -35 15 -35 11 0 14 6 9 23 -3 12 -6 28 -6 35 0
6 -4 12 -9 12 -5 0 -9 -16 -9 -35z"/>
<path d="M818 6340 l4 -60 396 2 c219 1 344 4 280 8 -82 3 -115 8 -110 16 4 6
14 14 22 17 8 3 -7 6 -35 7 -27 1 -41 4 -30 7 11 2 30 6 43 9 34 7 16 24 -25
24 -20 0 -33 3 -29 7 4 4 84 10 179 13 126 5 55 7 -263 8 l-435 2 3 -60z m530
-27 c-10 -2 -26 -2 -35 0 -10 3 -2 5 17 5 19 0 27 -2 18 -5z"/>
<path d="M1703 6283 c15 -2 37 -2 50 0 12 2 0 4 -28 4 -27 0 -38 -2 -22 -4z"/>
<path d="M2638 6283 c45 -2 119 -2 165 0 45 1 8 3 -83 3 -91 0 -128 -2 -82 -3z"/>
<path d="M2898 6283 c7 -3 16 -2 19 1 4 3 -2 6 -13 5 -11 0 -14 -3 -6 -6z"/>
<path d="M6528 6223 c6 -2 18 -2 25 0 6 3 1 5 -13 5 -14 0 -19 -2 -12 -5z"/>
<path d="M5781 6034 c0 -11 3 -14 6 -6 3 7 2 16 -1 19 -3 4 -6 -2 -5 -13z"/>
<path d="M5800 6040 c0 -5 4 -10 9 -10 6 0 13 5 16 10 3 6 -1 10 -9 10 -9 0
-16 -4 -16 -10z"/>
<path d="M6278 6043 l-38 -4 0 -80 c0 -69 2 -79 18 -79 9 0 13 4 7 8 -15 11
-13 137 3 136 6 -1 21 -2 32 -2 17 -2 20 -10 22 -54 l1 -53 7 60 7 60 1 -55
c1 -30 6 -60 10 -67 4 -6 6 17 5 53 -1 35 2 64 7 64 5 0 11 -39 13 -87 l3 -88
2 95 2 95 -33 1 c-17 0 -49 -1 -69 -3z"/>
<path d="M6430 5950 l0 -100 65 0 c83 0 85 18 3 23 l-63 3 63 2 62 2 0 85 0
85 -65 0 -65 0 0 -100z m55 58 c26 5 29 0 39 -56 5 -30 4 -33 -17 -30 -17 2
-21 9 -19 28 2 20 1 22 -7 10 -20 -28 -12 -49 22 -59 l32 -9 -37 -1 -38 -1 0
44 c0 24 -2 56 -4 72 -2 16 -1 22 1 13 3 -11 12 -15 28 -11z m0 22 c3 -5 1
-10 -4 -10 -6 0 -11 5 -11 10 0 6 2 10 4 10 3 0 8 -4 11 -10z"/>
<path d="M6610 5950 l0 -100 65 0 65 0 0 90 c0 50 1 93 3 98 1 4 -28 8 -65 10
l-68 3 0 -101z"/>
<path d="M6790 5950 l0 -100 90 0 90 0 0 100 0 100 -90 0 -90 0 0 -100z m123
73 c-7 -2 -19 -2 -25 0 -7 3 -2 5 12 5 14 0 19 -2 13 -5z"/>
<path d="M5472 6020 c0 -14 2 -19 5 -12 2 6 2 18 0 25 -3 6 -5 1 -5 -13z"/>
<path d="M6181 6015 c0 -16 -4 -41 -6 -55 l-6 -25 11 25 c6 13 9 38 7 55 l-4
30 -2 -30z"/>
<path d="M5783 5960 c0 -25 2 -35 4 -22 2 12 2 32 0 45 -2 12 -4 2 -4 -23z"/>
<path d="M6320 5890 c0 -5 5 -10 11 -10 5 0 7 5 4 10 -3 6 -8 10 -11 10 -2 0
-4 -4 -4 -10z"/>
<path d="M6351 5883 c-1 -9 -19 -13 -56 -13 -30 0 -55 -3 -55 -7 0 -9 107 -9
116 0 3 3 4 12 1 19 -4 10 -6 10 -6 1z"/>
<path d="M5783 5560 c0 -25 2 -35 4 -22 2 12 2 32 0 45 -2 12 -4 2 -4 -23z"/>
<path d="M6817 5526 c-5 -12 -10 -440 -7 -548 0 -11 8 -18 20 -18 19 0 20 7
20 233 0 190 -3 237 -15 253 -8 10 -14 26 -15 34 0 9 3 11 8 5 4 -5 15 -11 25
-11 28 -3 19 60 -9 64 -12 2 -24 -4 -27 -12z m40 -28 c-3 -8 -6 -5 -6 6 -1 11
2 17 5 13 3 -3 4 -12 1 -19z m-30 -230 c-3 -8 -6 -5 -6 6 -1 11 2 17 5 13 3
-3 4 -12 1 -19z"/>
<path d="M2398 5499 c-10 -5 -18 -17 -18 -24 0 -20 9 -19 29 4 9 10 25 21 36
24 16 4 15 5 -5 6 -14 0 -33 -4 -42 -10z"/>
<path d="M2473 5497 c0 -9 9 -12 24 -9 13 2 23 8 23 13 0 5 -10 9 -23 9 -13 0
-24 -6 -24 -13z"/>
<path d="M2377 5431 c6 -23 28 -45 40 -39 4 1 -4 16 -19 31 -22 23 -25 24 -21
8z"/>
<path d="M5782 5425 c0 -16 2 -22 5 -12 2 9 2 23 0 30 -3 6 -5 -1 -5 -18z"/>
<path d="M6864 5320 c0 -69 1 -97 3 -62 2 34 2 90 0 125 -2 34 -3 6 -3 -63z"/>
<path d="M2420 5426 c0 -2 7 -7 16 -10 8 -3 12 -2 9 4 -6 10 -25 14 -25 6z"/>
<path d="M3026 5407 c3 -10 9 -15 12 -12 3 3 0 11 -7 18 -10 9 -11 8 -5 -6z"/>
<path d="M3055 5410 c-3 -5 -1 -10 4 -10 6 0 11 5 11 10 0 6 -2 10 -4 10 -3 0
-8 -4 -11 -10z"/>
<path d="M2520 5400 c0 -5 5 -10 11 -10 5 0 7 5 4 10 -3 6 -8 10 -11 10 -2 0
-4 -4 -4 -10z"/>
<path d="M2550 5400 c0 -5 5 -10 11 -10 5 0 7 5 4 10 -3 6 -8 10 -11 10 -2 0
-4 -4 -4 -10z"/>
<path d="M2673 5393 c9 -2 25 -2 35 0 9 3 1 5 -18 5 -19 0 -27 -2 -17 -5z"/>
<path d="M820 4895 l-1 -435 51 1 50 2 0 433 0 434 -49 0 -49 0 -2 -435z m70
200 c0 -140 4 -215 10 -215 7 0 9 -70 8 -202 -2 -127 -7 -203 -13 -203 -14 0
-34 815 -20 816 6 1 -1 5 -15 9 l-25 8 28 1 27 1 0 -215z m17 58 c-2 -21 -4
-6 -4 32 0 39 2 55 4 38 2 -18 2 -50 0 -70z m-70 -255 c-2 -13 -4 -3 -4 22 0
25 2 35 4 23 2 -13 2 -33 0 -45z m32 -270 c1 -94 -3 -149 -10 -153 -6 -4 -12
-5 -15 -3 -2 3 -6 58 -8 124 -3 95 -3 102 3 32 3 -47 8 -89 11 -91 3 -3 4 92
4 211 -1 169 0 196 6 122 4 -52 8 -161 9 -242z"/>
<path d="M987 5324 c-4 -4 -7 -200 -7 -436 l0 -428 45 0 45 0 2 310 c2 171 3
365 3 433 l0 122 -40 3 c-23 2 -44 0 -48 -4z"/>
<path d="M1474 5319 c-8 -13 -14 -826 -7 -846 3 -8 22 -13 44 -13 l39 0 -2
432 -3 432 -32 3 c-17 2 -35 -1 -39 -8z"/>
<path d="M6580 5244 c0 -19 -5 -45 -11 -56 -9 -16 -8 -24 5 -36 8 -9 19 -13
23 -9 3 4 -2 14 -13 22 -10 8 -14 15 -8 15 10 0 20 100 9 100 -3 0 -5 -16 -5
-36z"/>
<path d="M6562 5250 c0 -14 2 -19 5 -12 2 6 2 18 0 25 -3 6 -5 1 -5 -13z"/>
<path d="M6556 5123 c-10 -25 -7 -243 4 -243 5 0 8 47 6 118 -4 115 -4 116 4
27 4 -49 8 -146 9 -214 2 -204 12 -130 14 102 2 195 0 216 -15 220 -9 3 -19
-2 -22 -10z"/>
<path d="M6863 5000 c0 -25 2 -35 4 -22 2 12 2 32 0 45 -2 12 -4 2 -4 -23z"/>
<path d="M6733 4920 c0 -25 2 -35 4 -22 2 12 2 32 0 45 -2 12 -4 2 -4 -23z"/>
<path d="M6810 4797 l0 -117 30 2 30 2 0 116 0 115 -30 0 -30 0 0 -118z"/>
<path d="M6733 4725 c0 -22 2 -30 4 -17 2 12 2 30 0 40 -3 9 -5 -1 -4 -23z"/>
<path d="M2452 4565 c0 -16 2 -22 5 -12 2 9 2 23 0 30 -3 6 -5 -1 -5 -18z"/>
<path d="M2402 4370 c0 -14 2 -19 5 -12 2 6 2 18 0 25 -3 6 -5 1 -5 -13z"/>
<path d="M1865 4270 c-3 -5 -1 -10 4 -10 6 0 11 5 11 10 0 6 -2 10 -4 10 -3 0
-8 -4 -11 -10z"/>
<path d="M6413 4235 c-12 -16 -14 -16 -10 -2 6 15 0 17 -43 17 -28 0 -50 -4
-50 -9 0 -4 11 -6 25 -3 15 2 25 0 25 -7 0 -6 -13 -11 -29 -11 -17 0 -32 -3
-34 -7 -3 -5 29 -7 71 -7 43 1 83 -3 90 -8 9 -8 12 -2 12 25 0 30 -3 36 -21
34 -12 -1 -28 -11 -36 -22z"/>
<path d="M1830 4235 c-19 -22 -8 -25 13 -3 9 10 13 18 8 18 -5 0 -14 -7 -21
-15z"/>
<path d="M6280 4239 c0 -5 5 -7 10 -4 6 3 10 8 10 11 0 2 -4 4 -10 4 -5 0 -10
-5 -10 -11z"/>
<path d="M2265 4230 c-3 -5 -1 -10 4 -10 6 0 11 5 11 10 0 6 -2 10 -4 10 -3 0
-8 -4 -11 -10z"/>
<path d="M2207 4214 c-16 -9 -27 -17 -25 -20 6 -6 58 20 58 29 0 9 0 9 -33 -9z"/>
<path d="M2908 4213 c7 -3 16 -2 19 1 4 3 -2 6 -13 5 -11 0 -14 -3 -6 -6z"/>
<path d="M874 4186 c-3 -8 -4 -23 -2 -33 3 -11 6 -6 9 15 6 34 2 42 -7 18z"/>
<path d="M2866 4188 c3 -5 10 -6 15 -3 13 9 11 12 -6 12 -8 0 -12 -4 -9 -9z"/>
<path d="M2298 4183 c7 -3 16 -2 19 1 4 3 -2 6 -13 5 -11 0 -14 -3 -6 -6z"/>
<path d="M1790 4170 c0 -5 5 -10 11 -10 5 0 7 5 4 10 -3 6 -8 10 -11 10 -2 0
-4 -4 -4 -10z"/>
<path d="M2061 4103 c-30 -33 -50 -66 -50 -77 2 -20 2 -20 6 1 6 31 31 50 39
29 3 -9 10 -16 15 -16 5 0 1 12 -8 27 -17 26 -17 27 0 20 11 -4 16 -3 12 4
-11 16 16 40 39 34 12 -3 15 -2 9 1 -22 10 -14 26 10 19 17 -5 19 -4 7 4 -23
16 -25 15 -79 -46z"/>
<path d="M2938 4153 c7 -3 16 -2 19 1 4 3 -2 6 -13 5 -11 0 -14 -3 -6 -6z"/>
<path d="M6440 4129 c0 -4 5 -9 11 -11 8 -3 9 -15 4 -38 -6 -29 -9 -31 -15
-16 -4 14 -9 16 -14 8 -4 -7 -4 -13 1 -14 4 -1 -21 -4 -57 -8 l-65 -7 83 -1
82 -2 0 48 c0 37 -4 49 -15 49 -8 0 -15 -4 -15 -8z"/>
<path d="M2130 4106 c0 -2 7 -7 16 -10 8 -3 12 -2 9 4 -6 10 -25 14 -25 6z"/>
<path d="M1990 4075 c-7 -9 -11 -17 -9 -20 3 -2 10 5 17 15 14 24 10 26 -8 5z"/>
<path d="M6280 4050 c0 -5 5 -10 11 -10 5 0 7 5 4 10 -3 6 -8 10 -11 10 -2 0
-4 -4 -4 -10z"/>
<path d="M1731 4043 c-1 -6 -4 -20 -7 -30 -5 -17 -5 -17 6 0 6 10 9 23 6 30
-3 9 -5 9 -5 0z"/>
<path d="M1986 3995 c-3 -9 -6 -22 -5 -28 0 -7 5 -1 10 12 5 13 8 26 5 28 -2
2 -6 -3 -10 -12z"/>
<path d="M2290 3971 c-19 -11 -44 -32 -56 -48 -23 -32 -39 -83 -25 -83 5 0 12
15 15 34 7 37 49 79 101 102 17 7 23 13 15 13 -8 0 -31 -8 -50 -18z"/>
<path d="M1711 3954 c0 -11 3 -14 6 -6 3 7 2 16 -1 19 -3 4 -6 -2 -5 -13z"/>
<path d="M6168 3963 c7 -3 16 -2 19 1 4 3 -2 6 -13 5 -11 0 -14 -3 -6 -6z"/>
<path d="M6218 3963 c7 -3 16 -2 19 1 4 3 -2 6 -13 5 -11 0 -14 -3 -6 -6z"/>
<path d="M6540 3960 c96 -3 159 -7 140 -8 -19 -1 -42 -7 -50 -12 -11 -7 -7 -9
15 -7 25 2 30 -2 30 -20 0 -13 -4 -23 -9 -22 -11 1 -26 -22 -26 -41 0 -13 1
-13 10 0 6 10 10 11 10 3 0 -25 19 -12 25 18 4 17 9 28 12 25 3 -2 2 -18 -2
-35 -6 -27 -10 -30 -53 -34 -26 -2 35 -4 136 -5 l182 -2 0 75 0 75 -297 -2
c-273 -2 -283 -3 -123 -8z"/>
<path d="M1963 3927 c0 -7 -4 -25 -8 -42 -10 -39 3 -27 15 14 4 17 5 33 1 35
-4 3 -8 0 -8 -7z"/>
<path d="M6547 3900 c3 -11 7 -20 9 -20 2 0 4 9 4 20 0 11 -4 20 -9 20 -5 0
-7 -9 -4 -20z"/>
<path d="M2180 3880 c0 -11 5 -20 10 -20 6 0 10 9 10 20 0 11 -4 20 -10 20 -5
0 -10 -9 -10 -20z"/>
<path d="M1702 3860 c0 -14 2 -19 5 -12 2 6 2 18 0 25 -3 6 -5 1 -5 -13z"/>
<path d="M2165 3800 c-3 -6 1 -7 9 -4 18 7 21 14 7 14 -6 0 -13 -4 -16 -10z"/>
<path d="M2200 3796 c0 -10 -9 -16 -25 -16 -14 0 -33 -4 -43 -10 -19 -11 -135
-40 -159 -40 -10 0 -13 6 -9 16 3 8 2 12 -4 9 -6 -3 -10 -15 -10 -26 0 -15 5
-19 18 -15 9 2 70 17 135 32 110 25 137 40 107 59 -5 3 -10 -1 -10 -9z"/>
<path d="M2033 3763 c9 -2 25 -2 35 0 9 3 1 5 -18 5 -19 0 -27 -2 -17 -5z"/>
<path d="M810 3750 c0 -5 5 -10 10 -10 6 0 10 -15 9 -32 -1 -31 -1 -32 -9 -8
l-8 25 -1 -27 c-1 -20 4 -26 17 -25 14 1 16 8 14 38 l-4 36 56 -2 c31 -2 59 1
62 6 3 5 -29 9 -70 9 -44 0 -76 -4 -76 -10z"/>
<path d="M978 3753 c6 -2 18 -2 25 0 6 3 1 5 -13 5 -14 0 -19 -2 -12 -5z"/>
<path d="M1040 3749 c0 -5 5 -7 10 -4 6 3 10 8 10 11 0 2 -4 4 -10 4 -5 0 -10
-5 -10 -11z"/>
<path d="M1075 3750 c-3 -5 -2 -10 4 -10 5 0 13 5 16 10 3 6 2 10 -4 10 -5 0
-13 -4 -16 -10z"/>
<path d="M1125 3750 c-3 -5 1 -10 9 -10 9 0 16 5 16 10 0 6 -4 10 -9 10 -6 0
-13 -4 -16 -10z"/>
<path d="M2530 3732 c0 -4 9 -13 20 -20 19 -12 20 -11 8 8 -13 20 -28 27 -28
12z"/>
<path d="M1858 3723 c12 -2 32 -2 45 0 12 2 2 4 -23 4 -25 0 -35 -2 -22 -4z"/>
<path d="M893 3713 c-7 -2 -12 -17 -12 -31 1 -21 2 -23 6 -7 3 11 10 26 15 33
11 13 10 13 -9 5z"/>
<path d="M2801 3704 c0 -11 3 -14 6 -6 3 7 2 16 -1 19 -3 4 -6 -2 -5 -13z"/>
<path d="M2596 3669 c10 -11 28 -25 39 -31 11 -6 5 4 -13 21 -38 35 -55 42
-26 10z"/>
<path d="M2777 3641 c-4 -17 -3 -21 5 -13 5 5 8 16 6 23 -3 8 -7 3 -11 -10z"/>
<path d="M2699 3584 c17 -14 37 -23 43 -21 10 4 10 6 0 6 -7 1 -22 10 -34 21
-12 11 -26 20 -31 20 -5 0 5 -12 22 -26z"/>
<path d="M2745 3509 c-9 -14 -2 -20 14 -10 8 6 9 11 3 15 -6 3 -14 1 -17 -5z"/>
<path d="M800 3183 l0 -63 580 0 580 0 0 60 0 60 -502 2 c-277 1 -538 2 -580
3 l-78 0 0 -62z m410 -8 c0 -31 -19 -33 -21 -2 l-2 22 -4 -22 c-6 -33 -43 -31
-43 2 0 22 4 25 35 25 31 0 35 -3 35 -25z m120 0 c0 -18 -6 -24 -27 -27 -55
-6 -83 3 -83 26 0 20 5 23 55 24 51 1 55 -1 55 -23z"/>
<path d="M1151 3174 c0 -11 3 -14 6 -6 3 7 2 16 -1 19 -3 4 -6 -2 -5 -13z"/>
<path d="M1985 3241 c-3 -5 -2 -12 3 -15 5 -3 9 1 9 9 0 17 -3 19 -12 6z"/>
<path d="M2508 3113 c7 -3 16 -2 19 1 4 3 -2 6 -13 5 -11 0 -14 -3 -6 -6z"/>
<path d="M1321 2614 c0 -11 3 -14 6 -6 3 7 2 16 -1 19 -3 4 -6 -2 -5 -13z"/>
<path d="M2640 2520 c-8 -5 -12 -12 -9 -15 4 -3 12 1 19 10 14 17 11 19 -10 5z"/>
<path d="M2720 2500 c6 -11 13 -20 16 -20 2 0 0 9 -6 20 -6 11 -13 20 -16 20
-2 0 0 -9 6 -20z"/>
<path d="M2615 2480 c-3 -5 -1 -10 4 -10 6 0 11 5 11 10 0 6 -2 10 -4 10 -3 0
-8 -4 -11 -10z"/>
<path d="M2635 2420 c3 -5 8 -10 11 -10 2 0 4 5 4 10 0 6 -5 10 -11 10 -5 0
-7 -4 -4 -10z"/>
<path d="M2681 2173 c1 -5 1 -38 0 -75 -1 -66 -2 -68 -26 -68 -14 0 -25 -4
-25 -9 0 -4 12 -6 28 -3 27 4 52 27 52 46 0 6 -5 4 -10 -4 -8 -13 -10 -12 -10
3 0 17 11 20 60 18 l25 -1 -25 11 c-13 5 -28 15 -32 22 -5 8 -8 6 -8 -5 0 -10
-5 -18 -11 -18 -6 0 -9 16 -7 38 2 20 7 35 13 32 6 -3 9 -9 7 -14 -2 -5 3 -4
11 2 18 16 120 -35 112 -56 -3 -8 0 -12 7 -10 30 10 14 29 -53 62 -68 34 -110
45 -108 29z"/>
<path d="M6125 2140 c-27 -7 -25 -8 20 -10 l50 -3 -40 -7 -40 -7 45 -4 c25 -2
-20 -6 -100 -9 -82 -3 86 -7 383 -8 l528 -2 -3 28 -3 27 -405 1 c-223 1 -418
-2 -435 -6z"/>
<path d="M4684 2125 c-3 -8 -4 -20 -2 -27 3 -7 7 -1 10 15 6 29 1 36 -8 12z"/>
<path d="M6018 2133 c12 -2 32 -2 45 0 12 2 2 4 -23 4 -25 0 -35 -2 -22 -4z"/>
<path d="M2755 2110 c3 -5 10 -10 16 -10 5 0 9 5 9 10 0 6 -7 10 -16 10 -8 0
-12 -4 -9 -10z"/>
<path d="M2867 2084 c-6 -10 9 -42 16 -34 3 3 1 14 -3 24 -3 11 -9 15 -13 10z"/>
<path d="M2926 2053 c-6 -14 -5 -15 5 -6 7 7 10 15 7 18 -3 3 -9 -2 -12 -12z"/>
<path d="M2970 2049 c-12 -9 -11 -10 8 -6 24 6 28 -3 10 -21 -7 -7 -8 -12 -2
-12 17 0 33 22 27 36 -6 17 -22 18 -43 3z"/>
<path d="M3051 2034 c0 -11 3 -14 6 -6 3 7 2 16 -1 19 -3 4 -6 -2 -5 -13z"/>
<path d="M2840 2030 c0 -5 9 -14 19 -19 14 -8 22 -7 32 6 12 15 12 16 -3 10
-10 -3 -18 -2 -18 3 0 6 -7 10 -15 10 -8 0 -15 -4 -15 -10z"/>
<path d="M2773 2015 c-3 -9 -3 -18 0 -21 9 -9 27 6 27 22 0 19 -19 18 -27 -1z"/>
<path d="M2810 2012 c0 -5 -9 -18 -20 -30 -12 -12 -17 -22 -12 -22 8 0 52 46
52 55 0 3 -4 5 -10 5 -5 0 -10 -4 -10 -8z"/>
<path d="M2942 1998 c8 -12 21 -24 28 -26 8 -3 6 5 -6 21 -23 32 -42 36 -22 5z"/>
<path d="M3021 1989 c-13 -10 -19 -19 -14 -19 13 0 49 27 43 33 -3 3 -16 -3
-29 -14z"/>
<path d="M2721 1983 c-24 -20 -33 -53 -20 -74 7 -11 9 -11 9 -1 0 7 4 11 9 7
5 -3 13 0 17 6 4 7 3 9 -4 5 -16 -10 -11 36 6 57 8 9 13 17 10 17 -3 0 -15 -8
-27 -17z"/>
<path d="M2818 1969 l-33 -31 32 22 c18 11 35 25 38 30 12 19 -5 9 -37 -21z"/>
<path d="M2878 1957 c-14 -12 -35 -27 -45 -33 -10 -7 -16 -14 -13 -17 3 -3 27
12 54 34 26 21 44 39 40 39 -5 0 -21 -10 -36 -23z"/>
<path d="M2730 1964 c0 -4 8 -12 17 -19 16 -12 16 -15 -2 -51 -11 -22 -27 -44
-35 -51 -10 -8 -11 -12 -3 -13 7 0 10 -6 7 -14 -3 -8 -1 -17 4 -20 5 -3 13 9
16 27 3 18 15 50 25 71 19 37 19 38 0 57 -20 20 -29 24 -29 13z"/>
<path d="M6880 1956 c0 -2 18 -6 40 -8 22 -2 40 0 40 4 0 5 -18 8 -40 8 -22 0
-40 -2 -40 -4z"/>
<path d="M2912 1910 c0 -14 2 -19 5 -12 2 6 2 18 0 25 -3 6 -5 1 -5 -13z"/>
<path d="M2790 1879 c-7 -11 -10 -23 -7 -25 2 -2 9 7 15 21 14 30 7 33 -8 4z"/>
<path d="M2840 1890 c0 -5 5 -10 11 -10 5 0 7 5 4 10 -3 6 -8 10 -11 10 -2 0
-4 -4 -4 -10z"/>
<path d="M838 1833 c12 -2 32 -2 45 0 12 2 2 4 -23 4 -25 0 -35 -2 -22 -4z"/>
<path d="M918 1833 c7 -3 16 -2 19 1 4 3 -2 6 -13 5 -11 0 -14 -3 -6 -6z"/>
<path d="M958 1833 c6 -2 18 -2 25 0 6 3 1 5 -13 5 -14 0 -19 -2 -12 -5z"/>
<path d="M1008 1833 c7 -3 16 -2 19 1 4 3 -2 6 -13 5 -11 0 -14 -3 -6 -6z"/>
<path d="M1048 1833 c7 -3 16 -2 19 1 4 3 -2 6 -13 5 -11 0 -14 -3 -6 -6z"/>
<path d="M1088 1833 c6 -2 18 -2 25 0 6 3 1 5 -13 5 -14 0 -19 -2 -12 -5z"/>
<path d="M1130 1830 c0 -5 5 -10 10 -10 6 0 10 5 10 10 0 6 -4 10 -10 10 -5 0
-10 -4 -10 -10z"/>
<path d="M1160 1836 c0 -2 11 -6 25 -8 14 -3 25 -1 25 3 0 5 -11 9 -25 9 -14
0 -25 -2 -25 -4z"/>
<path d="M1228 1833 c7 -3 16 -2 19 1 4 3 -2 6 -13 5 -11 0 -14 -3 -6 -6z"/>
<path d="M2770 1829 c0 -5 5 -7 10 -4 6 3 10 8 10 11 0 2 -4 4 -10 4 -5 0 -10
-5 -10 -11z"/>
<path d="M2640 1826 c0 -2 11 -6 25 -8 14 -3 25 -1 25 3 0 5 -11 9 -25 9 -14
0 -25 -2 -25 -4z"/>
<path d="M834 1795 c-10 -26 1 -35 13 -10 6 14 7 25 2 25 -5 0 -12 -7 -15 -15z"/>
<path d="M870 1800 c0 -5 5 -10 10 -10 6 0 10 5 10 10 0 6 -4 10 -10 10 -5 0
-10 -4 -10 -10z"/>
<path d="M905 1800 c-3 -5 1 -10 10 -10 9 0 13 5 10 10 -3 6 -8 10 -10 10 -2
0 -7 -4 -10 -10z"/>
<path d="M946 1801 c-3 -5 6 -8 19 -8 14 0 25 3 25 8 0 5 -9 9 -19 9 -11 0
-22 -4 -25 -9z"/>
<path d="M1296 1802 c-2 -4 -1 -14 4 -22 7 -11 9 -9 7 8 -1 24 -3 26 -11 14z"/>
<path d="M1603 1782 c-1 -22 0 -24 9 -8 6 10 6 22 2 26 -5 5 -10 -3 -11 -18z"/>
<path d="M2768 1787 c-3 -19 -2 -25 4 -19 6 6 8 18 6 28 -3 14 -5 12 -10 -9z"/>
<path d="M1043 1793 c9 -2 23 -2 30 0 6 3 -1 5 -18 5 -16 0 -22 -2 -12 -5z"/>
<path d="M1098 1793 c6 -2 18 -2 25 0 6 3 1 5 -13 5 -14 0 -19 -2 -12 -5z"/>
<path d="M1168 1793 c12 -2 30 -2 40 0 9 3 -1 5 -23 4 -22 0 -30 -2 -17 -4z"/>
<path d="M1044 1759 c-4 -7 -3 -9 4 -5 5 3 13 0 15 -6 4 -9 6 -10 6 -1 1 17
-16 25 -25 12z"/>
<path d="M1177 1749 c7 -7 15 -10 18 -7 3 3 -2 9 -12 12 -14 6 -15 5 -6 -5z"/>
<path d="M830 1735 c0 -8 2 -15 4 -15 2 0 6 7 10 15 3 8 1 15 -4 15 -6 0 -10
-7 -10 -15z"/>
<path d="M2560 1725 c-7 -9 -9 -19 -5 -23 4 -4 10 -1 12 6 3 6 12 12 21 12 13
0 14 -2 3 -9 -8 -5 -9 -11 -3 -15 6 -3 13 -2 16 2 3 5 22 8 42 5 19 -2 33 0
30 5 -3 5 7 7 22 5 24 -4 25 -3 8 7 -11 7 -34 10 -56 6 -22 -3 -41 -2 -45 4
-9 15 -31 12 -45 -5z"/>
<path d="M1180 1700 c0 -5 5 -10 11 -10 5 0 7 5 4 10 -3 6 -8 10 -11 10 -2 0
-4 -4 -4 -10z"/>
<path d="M827 1681 c-3 -13 -1 -18 9 -14 7 2 10 11 7 19 -7 19 -10 18 -16 -5z"/>
<path d="M2860 1680 c-12 -7 -10 -9 7 -7 12 0 19 5 17 9 -6 10 -6 10 -24 -2z"/>
<path d="M2565 1660 c-16 -11 -25 -20 -20 -20 6 0 19 6 30 14 11 7 29 16 40
19 l20 5 -20 1 c-11 0 -33 -8 -50 -19z"/>
<path d="M2717 1658 c-21 -11 -36 -22 -34 -25 7 -6 77 29 77 39 0 4 -1 7 -2 7
-2 -1 -20 -11 -41 -21z"/>
<path d="M6945 1670 c-3 -5 -1 -10 4 -10 6 0 11 5 11 10 0 6 -2 10 -4 10 -3 0
-8 -4 -11 -10z"/>
<path d="M2506 1653 c-6 -14 -5 -15 5 -6 7 7 10 15 7 18 -3 3 -9 -2 -12 -12z"/>
<path d="M2897 1663 c-10 -9 -9 -23 2 -23 5 0 11 7 15 15 5 15 -5 20 -17 8z"/>
<path d="M836 1633 c-6 -14 -5 -15 5 -6 7 7 10 15 7 18 -3 3 -9 -2 -12 -12z"/>
<path d="M898 1643 c6 -2 18 -2 25 0 6 3 1 5 -13 5 -14 0 -19 -2 -12 -5z"/>
<path d="M1186 1639 c6 -11 44 -12 44 -1 0 4 -11 8 -25 8 -14 1 -22 -2 -19 -7z"/>
<path d="M2121 1628 c1 -16 3 -18 6 -6 2 9 16 19 31 21 24 4 24 4 -5 6 -28 1
-33 -2 -32 -21z"/>
<path d="M2238 1643 c6 -2 18 -2 25 0 6 3 1 5 -13 5 -14 0 -19 -2 -12 -5z"/>
<path d="M2830 1646 c0 -2 9 -6 20 -9 11 -3 18 -1 14 4 -5 9 -34 13 -34 5z"/>
<path d="M2466 1615 c-3 -8 -2 -15 3 -15 5 0 14 7 21 15 10 12 10 15 -3 15 -8
0 -17 -7 -21 -15z"/>
<path d="M2525 1620 c3 -5 8 -10 11 -10 2 0 4 5 4 10 0 6 -5 10 -11 10 -5 0
-7 -4 -4 -10z"/>
<path d="M2312 1590 c-7 -11 -9 -20 -4 -20 4 0 13 9 20 20 7 11 9 20 4 20 -4
0 -13 -9 -20 -20z"/>
<path d="M2120 1576 c0 -14 4 -27 8 -30 5 -3 6 8 4 25 -5 35 -12 38 -12 5z"/>
<path d="M2536 1584 c-4 -9 -4 -19 -1 -22 2 -3 7 3 11 12 4 9 4 19 1 22 -2 3
-7 -3 -11 -12z"/>
<path d="M2741 1567 l-25 -32 32 29 c33 31 37 36 25 35 -5 0 -19 -14 -32 -32z"/>
<path d="M2434 1576 c-10 -8 -16 -17 -13 -20 3 -3 14 3 24 14 21 23 17 26 -11
6z"/>
<path d="M2271 1539 c-12 -12 -20 -24 -16 -27 3 -3 15 4 27 16 28 28 18 38
-11 11z"/>
<path d="M946 1538 c3 -5 10 -6 15 -3 13 9 11 12 -6 12 -8 0 -12 -4 -9 -9z"/>
<path d="M1678 1543 c7 -3 16 -2 19 1 4 3 -2 6 -13 5 -11 0 -14 -3 -6 -6z"/>
<path d="M2370 1525 c-13 -14 -19 -25 -13 -25 12 0 48 38 41 45 -2 3 -15 -6
-28 -20z"/>
<path d="M2547 1543 c-4 -3 -7 -13 -7 -22 1 -13 3 -13 11 2 11 19 8 33 -4 20z"/>
<path d="M831 1514 c0 -11 3 -14 6 -6 3 7 2 16 -1 19 -3 4 -6 -2 -5 -13z"/>
<path d="M2620 1520 l-65 -7 73 -1 c47 -1 71 2 67 8 -3 6 -7 9 -8 8 -1 -1 -31
-4 -67 -8z"/>
<path d="M2163 1513 c15 -2 39 -2 55 0 15 2 2 4 -28 4 -30 0 -43 -2 -27 -4z"/>
<path d="M1160 1490 c0 -6 7 -10 15 -10 8 0 15 2 15 4 0 2 -7 6 -15 10 -8 3
-15 1 -15 -4z"/>
<path d="M928 1483 c7 -3 16 -2 19 1 4 3 -2 6 -13 5 -11 0 -14 -3 -6 -6z"/>
<path d="M1458 1483 c7 -3 16 -2 19 1 4 3 -2 6 -13 5 -11 0 -14 -3 -6 -6z"/>
<path d="M831 1464 c0 -11 3 -14 6 -6 3 7 2 16 -1 19 -3 4 -6 -2 -5 -13z"/>
<path d="M946 1441 c-3 -5 5 -8 19 -8 14 0 22 3 19 8 -3 5 -11 9 -19 9 -8 0
-16 -4 -19 -9z"/>
<path d="M1164 1438 c-3 -4 4 -8 15 -8 12 0 21 4 21 8 0 5 -7 9 -15 9 -9 0
-18 -4 -21 -9z"/>
<path d="M2183 1409 c-3 -10 -9 -16 -14 -14 -4 3 -7 -4 -6 -14 1 -19 3 -19 19
-4 9 8 16 20 15 26 -3 14 33 15 53 2 13 -8 13 -7 2 6 -17 23 -63 21 -69 -2z"/>
<path d="M1113 1383 c9 -2 23 -2 30 0 6 3 -1 5 -18 5 -16 0 -22 -2 -12 -5z"/>
<path d="M2160 1342 c0 -11 39 -47 44 -41 2 2 -7 14 -20 27 -13 12 -24 19 -24
14z"/>
<path d="M2298 1343 c6 -2 18 -2 25 0 6 3 1 5 -13 5 -14 0 -19 -2 -12 -5z"/>
<path d="M6260 1300 c0 -11 2 -20 4 -20 2 0 6 9 9 20 3 11 1 20 -4 20 -5 0 -9
-9 -9 -20z"/>
<path d="M6963 1240 c0 -25 2 -35 4 -22 2 12 2 32 0 45 -2 12 -4 2 -4 -23z"/>
<path d="M6959 1038 c-1 -46 -1 -86 0 -90 0 -5 -36 -8 -81 -8 -45 0 -79 -2
-77 -4 2 -2 41 -6 85 -9 l82 -6 1 99 c1 55 -1 100 -4 100 -3 0 -6 -37 -6 -82z"/>
<path d="M6171 1106 c10 -9 120 -15 114 -6 -3 6 -31 10 -62 10 -31 0 -54 -2
-52 -4z"/>
<path d="M5963 1093 c9 -2 25 -2 35 0 9 3 1 5 -18 5 -19 0 -27 -2 -17 -5z"/>
<path d="M818 1023 c7 -3 16 -2 19 1 4 3 -2 6 -13 5 -11 0 -14 -3 -6 -6z"/>
<path d="M863 1023 c9 -2 23 -2 30 0 6 3 -1 5 -18 5 -16 0 -22 -2 -12 -5z"/>
<path d="M918 1023 c6 -2 18 -2 25 0 6 3 1 5 -13 5 -14 0 -19 -2 -12 -5z"/>
<path d="M968 1023 c6 -2 18 -2 25 0 6 3 1 5 -13 5 -14 0 -19 -2 -12 -5z"/>
<path d="M2239 853 l-167 -3 -4 -31 c-3 -16 -1 -32 3 -35 4 -2 357 -1 783 2
l776 7 0 29 0 28 -112 0 c-62 0 -338 2 -613 4 -275 2 -575 1 -666 -1z"/>
</g>
</svg>
